<?xml version="1.0" encoding="UTF-8"?>
<svg width="64px" height="64px" viewBox="0 0 64 64" version="1.1" xmlns="http://www.w3.org/2000/svg" xmlns:xlink="http://www.w3.org/1999/xlink">
    <!-- Generator: Sketch 49.1 (51147) - http://www.bohemiancoding.com/sketch -->
    <title>default_avatar_64.png</title>
    <desc>Created with Sketch.</desc>
    <defs/>
    <g id="default_avatar_64.png" stroke="none" stroke-width="1" fill="none" fill-rule="evenodd" fill-opacity="0.54">
        <g id="Staff-" transform="translate(3.000000, 3.000000)" fill="#000000">
            <g>
                <path d="M29,4.83333333 C15.7083333,4.83333333 4.83333333,15.7083333 4.83333333,29 C4.83333333,42.2916667 15.7083333,53.1666667 29,53.1666667 C42.2916667,53.1666667 53.1666667,42.2916667 53.1666667,29 C53.1666667,15.7083333 42.2916667,4.83333333 29,4.83333333 Z M43.5,41.8083333 L43.5,41.0833333 C43.5,37.4583333 37.9416667,35.0416667 33.1083333,34.075 L29,41.0833333 L24.8916667,34.075 C20.0583333,35.0416667 14.5,37.4583333 14.5,41.0833333 L14.5,41.8083333 C11.6,38.425 9.66666667,33.8333333 9.66666667,29 C9.66666667,18.3666667 18.3666667,9.66666667 29,9.66666667 C39.6333333,9.66666667 48.3333333,18.3666667 48.3333333,29 C48.3333333,33.8333333 46.4,38.425 43.5,41.8083333 Z" id="Shape" fill-rule="nonzero"/>
                <circle id="Oval" fill-rule="nonzero" cx="29" cy="21.75" r="7.25"/>
            </g>
        </g>
    </g>
</svg>