<?xml version="1.0" encoding="UTF-8"?>
<svg width="27px" height="19px" viewBox="0 0 27 19" version="1.1" xmlns="http://www.w3.org/2000/svg" xmlns:xlink="http://www.w3.org/1999/xlink">
    <!-- Generator: Sketch 55.2 (78181) - https://sketchapp.com -->
    <title>Add Lead</title>
    <desc>Created with Sketch.</desc>
    <g id="Add-Lead" stroke="none" stroke-width="1" fill="none" fill-rule="evenodd">
        <g id="lead_color" transform="translate(0.000000, 1.000000)" fill-rule="nonzero">
            <g id="Group-3">
                <g id="icon-/-document">
                    <g id="Doc" transform="translate(13.153846, 9.105263) rotate(90.000000) translate(-13.153846, -9.105263) translate(4.153846, -3.894737)">
                        <path d="M1.95148935,0 C0.873681784,0 1.77635684e-14,1.28007111 1.77635684e-14,2.85921626 L1.77635684e-14,22.8737301 C1.77635684e-14,24.453447 0.873681784,25.7329463 1.95148935,25.7329463 L7.80595742,25.7329463 L9.75744674,25.7329463 L15.6119148,25.7329463 C16.6901127,25.7329463 17.5634041,24.453447 17.5634041,22.8737301 L17.5634041,2.85921626 C17.5634041,1.28007111 16.6901127,0 15.6119148,0 L9.75744674,0 L7.80595742,0 L1.95148935,0 Z" id="Shape" stroke="#043F66" fill="#C9E1FA"></path>
                        <g id="Group" transform="translate(5.473684, 2.076923)" fill="#043F66">
                            <polygon id="Shape" transform="translate(1.026316, 3.461538) rotate(90.000000) translate(-1.026316, -3.461538) " points="-2.43522267 2.43522267 -2.43522267 4.48785425 4.48785425 4.48785425 4.48785425 2.43522267"></polygon>
                            <polygon id="Shape" transform="translate(5.815789, 3.461538) rotate(90.000000) translate(-5.815789, -3.461538) " points="2.35425101 2.43522267 2.35425101 4.48785425 9.27732794 4.48785425 9.27732794 2.43522267"></polygon>
                        </g>
                    </g>
                </g>
            </g>
            <g id="Add-Client" transform="translate(3.000000, 2.000000)">
                <g id="XMLID_6194_" transform="translate(0.000000, 5.943786)">
                    <g id="XMLID_6197_" transform="translate(0.000000, 4.196919)">
                        <g id="XMLID_6204_" transform="translate(0.000000, 0.289081)">
                            <path d="M0,3.42596576 L0,2.76766601 C0.284059431,1.64257189 1.31803576,0.780797679 2.38609922,0.541415955 L4.65857467,0.0267452437 L7.21510953,0.0267452437 L9.487585,0.541415955 C10.5670108,0.792766764 11.5896248,1.64257189 11.8736842,2.76766601 L11.8736842,3.42596576 L0,3.42596576 Z" id="XMLID_6231_" fill="#38862A"></path>
                            <path d="M0,2.72669679 L0.170435659,2.20381885 C0.454495089,1.31017291 1.31803576,0.625678158 2.38609922,0.435540724 L4.65857467,0.0267452437 L7.21510953,0.0267452437 L9.487585,0.435540724 C10.5670108,0.635185029 11.4191891,1.31017291 11.7032485,2.20381885 L11.8736842,2.72669679 L0,2.72669679 Z" id="XMLID_6231_" fill="#4CA93B"></path>
                        </g>
                    </g>
                    <path d="M2.18773982,1.05487891 L2.18773982,2.37935159 C2.18773982,2.37935159 1.95990048,0.930431807 1.43671386,0.530423281 L1.43671386,0.26375093 C1.43671386,0.272640008 2.18773982,-0.0740340486 2.18773982,1.05487891 Z" id="XMLID_6196_" fill="#643D3C"></path>
                    <path d="M9.4279676,1.05487891 L9.4279676,2.37935159 C9.4279676,2.37935159 9.63892993,0.992655357 10.1452395,0.530423281 L10.1705551,0.148192911 C10.1789935,0.148192911 9.4279676,-0.0740340486 9.4279676,1.05487891 Z" id="XMLID_6195_" fill="#643D3C"></path>
                </g>
                <g id="Head" transform="translate(0.989474, 0.290387)">
                    <path d="M4.7002411,10.8891132 L5.07997333,10.8891132 C6.52295578,10.8891132 8.43849387,9.65353129 8.43849387,8.142388 L8.43849387,3.46673276 C8.43849387,0.275553629 1.18982764,0.275553629 1.18982764,3.46673276 L1.18982764,8.142388 C1.19826613,9.65353129 3.25725865,10.8891132 4.7002411,10.8891132 Z" id="XMLID_6223_" fill="#EBA339"></path>
                    <path d="M8.43849387,6.70827815 C8.75915667,6.07715359 9.1473274,6.20160068 9.1473274,6.20160068 C9.1473274,6.20160068 9.18108133,5.94381741 9.23171233,5.41047271 C9.28234327,4.877128 9.26546627,4.60156657 9.26546627,4.60156657 C9.3667282,4.70823551 9.51862113,4.98379694 9.51862113,4.98379694 C9.51862113,4.98379694 9.721145,4.51267579 9.34141273,3.41931915 C8.970119,2.32596251 8.10095413,2.22818264 7.56089053,1.56150176 C7.02082693,0.894820886 6.38793988,0.272585402 4.64961013,0.139249226 C2.91128039,0.00591305082 2.02523853,1.40149836 2.02523853,1.40149836 C2.02523853,1.40149836 1.60331384,1.46372191 0.88604186,2.31707343 C0.168769878,3.17042495 0.236277829,4.50378671 0.236277829,4.50378671 L0.413486201,4.24600344 C0.388170719,5.07268773 0.447240177,6.17493344 0.447240177,6.17493344 C1.00418077,6.20160068 1.19826613,6.69049999 1.19826613,6.69049999 L1.19826613,6.36160409 C1.25733559,3.41931915 2.97034985,3.05486694 2.97034985,3.05486694 C2.97034985,3.05486694 3.23194316,2.28151711 4.46396327,2.42374237 C5.69598338,2.56596762 6.26136247,3.41931915 6.26136247,3.41931915 L6.26136247,3.40154099 C6.26136247,3.40154099 6.885811,3.97933109 7.25710473,4.70823551 C7.62839847,5.43713994 7.73809893,5.83714846 7.73809893,5.83714846 L7.80560687,4.53045394 C7.80560687,4.53045394 8.337232,5.23269114 8.40473993,5.71270137 C8.4638094,6.21048976 8.43849387,6.70827815 8.43849387,6.70827815 Z" id="XMLID_6202_" fill="#643D3C"></path>
                </g>
            </g>
        </g>
    </g>
</svg>