<?xml version="1.0" encoding="UTF-8" standalone="no"?>
<svg viewBox="0 0 42 42" version="1.1" xmlns="http://www.w3.org/2000/svg" xmlns:xlink="http://www.w3.org/1999/xlink">
    <!-- Generator: Sketch 43.2 (39069) - http://www.bohemiancoding.com/sketch -->
    <title>calendar</title>
    <desc>Created with Sketch.</desc>
    <defs>
        <filter x="-7.4%" y="-3.8%" width="114.7%" height="107.5%" filterUnits="objectBoundingBox" id="filter-1">
            <feOffset dx="0" dy="0" in="SourceAlpha" result="shadowOffsetOuter1"></feOffset>
            <feGaussianBlur stdDeviation="0.5" in="shadowOffsetOuter1" result="shadowBlurOuter1"></feGaussianBlur>
            <feColorMatrix values="0 0 0 0 0   0 0 0 0 0   0 0 0 0 0  0 0 0 0.5 0" type="matrix" in="shadowBlurOuter1" result="shadowMatrixOuter1"></feColorMatrix>
            <feMerge>
                <feMergeNode in="shadowMatrixOuter1"></feMergeNode>
                <feMergeNode in="SourceGraphic"></feMergeNode>
            </feMerge>
        </filter>
    </defs>
    <g id="Iconsdeliverable-Copy" stroke="none" stroke-width="1" fill="none" fill-rule="evenodd">
        <g id="calendar">
            <g id="Event" filter="url(#filter-1)" transform="translate(4.000000, 1.000000)">
                <path d="M3.74106563,5.36163522 C1.67487508,5.36163522 0,7.04559748 0,9.10377358 L0,35.2987421 C0,37.3569182 1.67487508,39.0408805 3.74106563,39.0408805 L14.9642625,39.0408805 L18.7053281,39.0408805 L29.928525,39.0408805 C31.9954638,39.0408805 33.6695906,37.3569182 33.6695906,35.2987421 L33.6695906,9.10377358 C33.6695906,7.04559748 31.9954638,5.36163522 29.928525,5.36163522 L18.7053281,5.36163522 L14.9642625,5.36163522 L3.74106563,5.36163522 Z" id="Shape" fill="#BDC3C7"></path>
                <path d="M3.74106563,3.49056604 C1.67487508,3.49056604 0,5.16592138 0,7.2327044 L0,33.427673 C0,35.4952044 1.67487508,37.1698113 3.74106563,37.1698113 L14.9642625,37.1698113 L18.7053281,37.1698113 L29.928525,37.1698113 C31.9954638,37.1698113 33.6695906,35.4952044 33.6695906,33.427673 L33.6695906,7.2327044 C33.6695906,5.16592138 31.9954638,3.49056604 29.928525,3.49056604 L18.7053281,3.49056604 L14.9642625,3.49056604 L3.74106563,3.49056604 Z" id="Shape" stroke="#9B9B9B" fill="#ECF0F1"></path>
                <path d="M3.74106563,0.490566038 C1.67487508,0.490566038 0,2.65056604 0,5.29056604 L0,12.490566 L33.6695906,12.490566 L33.6695906,5.29056604 C33.6695906,2.65056604 31.9954638,0.490566038 29.928525,0.490566038 L18.7053281,0.490566038 L14.9642625,0.490566038 L3.74106563,0.490566038 Z" id="Shape" fill="#E74C3C"></path>
                <path d="M18.2086988,7.23719399 C17.3405815,7.73854548 16.2710169,7.73854548 15.4028996,7.23719399 C14.5347823,6.7358425 14,5.80930674 14,4.80660377 C14,3.25655931 15.2561991,2 16.8057992,2 C18.3553993,2 19.6115984,3.25655931 19.6115984,4.80660377 C19.6115985,5.80930674 19.0768162,6.7358425 18.2086988,7.23719399 Z" id="Shape" fill="#C0392B"></path>
                <path d="M17.7086988,6.37063349 C17.1499826,6.69330096 16.4616158,6.69330096 15.9028996,6.37063349 C15.3441834,6.04796602 15,5.45165195 15,4.80631703 C15,3.80871568 15.8084838,3 16.8057992,3 C17.8031146,3 18.6115984,3.80871568 18.6115984,4.80631703 C18.6115985,5.45165195 18.2674151,6.04796602 17.7086988,6.37063349 Z" id="Shape" fill="#BDC3C7"></path>
                <g id="Group" transform="translate(3.741066, 16.924528)">
                    <path d="M0,0.534591195 L0,4.27672956 L3.74106563,4.27672956 L3.74106563,0.534591195 L0,0.534591195 Z M5.61159844,0.534591195 L5.61159844,4.27672956 L9.35266407,4.27672956 L9.35266407,0.534591195 L5.61159844,0.534591195 Z M11.2231969,0.534591195 L11.2231969,4.27672956 L14.9642625,4.27672956 L14.9642625,0.534591195 L11.2231969,0.534591195 Z M16.8347953,0.534591195 L16.8347953,4.27672956 L20.5758609,4.27672956 L20.5758609,0.534591195 L16.8347953,0.534591195 Z M22.4463938,0.534591195 L22.4463938,4.27672956 L26.1874594,4.27672956 L26.1874594,0.534591195 L22.4463938,0.534591195 Z" id="Shape" fill="#BDC3C7"></path>
                    <path d="M0,6.14779874 L0,9.88993711 L3.74106563,9.88993711 L3.74106563,6.14779874 L0,6.14779874 Z M5.61159844,6.14779874 L5.61159844,9.88993711 L9.35266407,9.88993711 L9.35266407,6.14779874 L5.61159844,6.14779874 Z M11.2231969,6.14779874 L11.2231969,9.88993711 L14.9642625,9.88993711 L14.9642625,6.14779874 L11.2231969,6.14779874 Z M16.8347953,6.14779874 L16.8347953,9.88993711 L20.5758609,9.88993711 L20.5758609,6.14779874 L16.8347953,6.14779874 Z M22.4463938,6.14779874 L22.4463938,9.88993711 L26.1874594,9.88993711 L26.1874594,6.14779874 L22.4463938,6.14779874 Z" id="Shape" fill="#BDC3C7"></path>
                    <polygon id="Path" stroke="#E74C3C" fill="#D8D8D8" points="5.61159844 6.14779874 5.61159844 9.88993711 9.35266407 9.88993711 9.35266407 6.14779874"></polygon>
                    <path d="M0,11.7610063 L0,15.5031447 L3.74106563,15.5031447 L3.74106563,11.7610063 L0,11.7610063 Z M5.61159844,11.7610063 L5.61159844,15.5031447 L9.35266407,15.5031447 L9.35266407,11.7610063 L5.61159844,11.7610063 Z M11.2231969,11.7610063 L11.2231969,15.5031447 L14.9642625,15.5031447 L14.9642625,11.7610063 L11.2231969,11.7610063 Z M16.8347953,11.7610063 L16.8347953,15.5031447 L20.5758609,15.5031447 L20.5758609,11.7610063 L16.8347953,11.7610063 Z M22.4463938,11.7610063 L22.4463938,15.5031447 L26.1874594,15.5031447 L26.1874594,11.7610063 L22.4463938,11.7610063 Z" id="Shape" fill="#BDC3C7"></path>
                </g>
                <rect id="Rectangle-path" fill="#C0392B" x="0" y="10" width="33.6695906" height="2.71698113"></rect>
            </g>
        </g>
    </g>
</svg>
