<?xml version="1.0" encoding="UTF-8" standalone="no"?>
<svg width="42px" height="42px" viewBox="0 0 42 42" version="1.1" xmlns="http://www.w3.org/2000/svg" xmlns:xlink="http://www.w3.org/1999/xlink">
    <!-- Generator: Sketch 43.2 (39069) - http://www.bohemiancoding.com/sketch -->
    <title>company</title>
    <desc>Created with Sketch.</desc>
    <defs></defs>
    <g id="Iconsdeliverable-Copy" stroke="none" stroke-width="1" fill="none" fill-rule="evenodd">
        <g id="company">
            <path d="M6.89181287,32 C4.55987953,32 2.66959064,32.452044 2.66959064,33.0045423 L2.66959064,40.0363382 C2.66959064,40.5888365 4.55987953,41.0408805 6.89181287,41.0408805 L19.5584795,41.0408805 L23.7807018,41.0408805 L36.4473684,41.0408805 C38.7801462,41.0408805 40.6695906,40.5888365 40.6695906,40.0363382 L40.6695906,33.0045423 C40.6695906,32.452044 38.7801462,32 36.4473684,32 L23.7807018,32 L19.5584795,32 L6.89181287,32 Z" id="Shape" fill="#BDC3C7"></path>
            <path d="M6.22222222,29 C3.89028889,29 2,29.5058916 2,30.129979 L2,38.0398323 C2,38.6641457 3.89028889,39.1698113 6.22222222,39.1698113 L18.8888889,39.1698113 L23.1111111,39.1698113 L35.7777778,39.1698113 C38.1105556,39.1698113 40,38.6641457 40,38.0398323 L40,30.129979 C40,29.5058916 38.1105556,29 35.7777778,29 L23.1111111,29 L18.8888889,29 L6.22222222,29 Z" id="Shape" fill="#40BC53"></path>
            <g id="1492737575_18_School_Building" transform="translate(16.000000, 5.000000)">
                <path d="M8,29 L17.1666667,29 C18.1791887,29 19,28.0035884 19,26.7744523 L19,2.13207547 L8,2.13207547 L8,29 Z" id="Shape" fill="#C4E0F2" fill-rule="nonzero"></path>
                <path d="M8,2.13207547 L8,29 L17.1666667,29 C18.1791887,29 19,28.0035884 19,26.7744523 L19,25.7395726 C19,26.9687087 18.1791887,27.9651203 17.1666667,27.9651203 L10.9608333,27.9651203 C10.0867886,27.9651248 9.37752614,27.1066146 9.375,26.0455854 C9.375,26.0455854 9.24316406,2.13207547 9.375,2.13207547 C9.50683594,2.13207547 8,2.13207547 8,2.13207547 Z" id="Shape" fill="#95BBD4" fill-rule="nonzero"></path>
                <path d="M15.7916667,21.4122449 L15.7916667,18.7183673 C15.7916667,18.2224382 15.381261,17.8204082 14.875,17.8204082 L12.125,17.8204082 C11.618739,17.8204082 11.2083333,18.2224382 11.2083333,18.7183673 L11.2083333,21.4122449 C11.2083333,21.9081741 11.618739,22.3102041 12.125,22.3102041 L14.875,22.3102041 C15.381261,22.3102041 15.7916667,21.9081741 15.7916667,21.4122449 Z" id="Shape" fill="#4D91BB" fill-rule="nonzero"></path>
                <path d="M11.3045833,18.8126531 C11.3045833,18.3167239 11.714989,17.9146939 12.22125,17.9146939 L14.97125,17.9146939 C15.1903165,17.9159265 15.401689,17.9939717 15.5670833,18.1346939 C15.3939568,17.9364108 15.1413503,17.8216983 14.875,17.8204082 L12.125,17.8204082 C11.618739,17.8204082 11.2083333,18.2224382 11.2083333,18.7183673 C11.2083333,21.3673469 11.0708333,21.7040816 11.5291667,22.0902041 C11.17625,21.6906122 11.3045833,21.3673469 11.3045833,18.8126531 Z" id="Shape" fill="#1D6694" fill-rule="nonzero"></path>
                <path d="M15.7916667,15.4122449 L15.7916667,12.7183673 C15.7916667,12.2224382 15.381261,11.8204082 14.875,11.8204082 L12.125,11.8204082 C11.618739,11.8204082 11.2083333,12.2224382 11.2083333,12.7183673 L11.2083333,15.4122449 C11.2083333,15.9081741 11.618739,16.3102041 12.125,16.3102041 L14.875,16.3102041 C15.381261,16.3102041 15.7916667,15.9081741 15.7916667,15.4122449 Z" id="Shape" fill="#4D91BB" fill-rule="nonzero"></path>
                <path d="M11.3045833,12.8126531 C11.3045833,12.3167239 11.714989,11.9146939 12.22125,11.9146939 L14.97125,11.9146939 C15.1903165,11.9159265 15.401689,11.9939717 15.5670833,12.1346939 C15.3939568,11.9364108 15.1413503,11.8216983 14.875,11.8204082 L12.125,11.8204082 C11.618739,11.8204082 11.2083333,12.2224382 11.2083333,12.7183673 C11.2083333,15.3673469 11.0708333,15.7040816 11.5291667,16.0902041 C11.17625,15.6906122 11.3045833,15.3673469 11.3045833,12.8126531 Z" id="Shape" fill="#1D6694" fill-rule="nonzero"></path>
                <path d="M15.7916667,9.4122449 L15.7916667,6.71836735 C15.7916667,6.22243818 15.381261,5.82040816 14.875,5.82040816 L12.125,5.82040816 C11.618739,5.82040816 11.2083333,6.22243818 11.2083333,6.71836735 L11.2083333,9.4122449 C11.2083333,9.90817406 11.618739,10.3102041 12.125,10.3102041 L14.875,10.3102041 C15.381261,10.3102041 15.7916667,9.90817406 15.7916667,9.4122449 Z" id="Shape" fill="#4D91BB" fill-rule="nonzero"></path>
                <path d="M11.3045833,6.81265306 C11.3045833,6.3167239 11.714989,5.91469388 12.22125,5.91469388 L14.97125,5.91469388 C15.1903165,5.91592649 15.401689,5.99397174 15.5670833,6.13469388 C15.3939568,5.93641083 15.1413503,5.82169831 14.875,5.82040816 L12.125,5.82040816 C11.618739,5.82040816 11.2083333,6.22243818 11.2083333,6.71836735 C11.2083333,9.36734694 11.0708333,9.70408163 11.5291667,10.0902041 C11.17625,9.69061224 11.3045833,9.36734694 11.3045833,6.81265306 Z" id="Shape" fill="#1D6694" fill-rule="nonzero"></path>
                <rect id="Rectangle" fill="#1C5599" x="0" y="0" width="21" height="2.26415094" rx="1.13207547"></rect>
                <rect id="Rectangle" fill="#4D91BB" x="6" y="1" width="15" height="2.26415094" rx="1.13207547"></rect>
                <rect id="Rectangle-Copy" fill="#4D91BB" x="6" y="0.5" width="15" height="2.26415094" rx="1.13207547"></rect>
            </g>
            <g id="1492737575_18_School_Building" transform="translate(5.000000, 1.000000)">
                <polygon id="Shape" fill="#C4E0F2" fill-rule="nonzero" points="1.5 1.13207547 1.5 35 19.5 35 19.5 1.13207547"></polygon>
                <polygon id="Shape" fill="#E8F3FA" fill-rule="nonzero" points="1.5 1.13207547 1.5 35 2.25 35 2.25 1.13207547"></polygon>
                <path d="M8.25,28.1773585 L12.75,28.1773585 C13.1642136,28.1773585 13.5,28.5152568 13.5,28.9320755 L13.5,35 L7.5,35 L7.5,28.9320755 C7.5,28.5152568 7.83578644,28.1773585 8.25,28.1773585 Z" id="Shape" fill="#4D91BB" fill-rule="nonzero"></path>
                <polygon id="Shape" fill="#2175AA" fill-rule="nonzero" points="7.5 34.7612696 7.5 35.0132075 13.5 35.0132075 13.5 34.5132075"></polygon>
                <path d="M7.725,29.1622642 C7.725,28.7454455 8.06078644,28.4075472 8.475,28.4075472 L12.975,28.4075472 C13.1187087,28.4079219 13.2592848,28.4498361 13.38,28.5283019 C13.2431895,28.3108903 13.0057232,28.178609 12.75,28.1773585 L8.25,28.1773585 C7.83578644,28.1773585 7.5,28.5152568 7.5,28.9320755 L7.5,35 L7.725,35 L7.725,29.1622642 Z" id="Shape" fill="#2175AA" fill-rule="nonzero"></path>
                <path d="M9,20.8150943 L6,20.8150943 C5.58578644,20.8150943 5.25,20.477196 5.25,20.0603774 L5.25,17.0415094 C5.25,16.6246908 5.58578644,16.2867925 6,16.2867925 L9,16.2867925 C9.41421356,16.2867925 9.75,16.6246908 9.75,17.0415094 L9.75,20.0603774 C9.75,20.477196 9.41421356,20.8150943 9,20.8150943 Z M9.75,26.0981132 L9.75,23.0792453 C9.75,22.6624266 9.41421356,22.3245283 9,22.3245283 L6,22.3245283 C5.58578644,22.3245283 5.25,22.6624266 5.25,23.0792453 L5.25,26.0981132 C5.25,26.5149319 5.58578644,26.8528302 6,26.8528302 L9,26.8528302 C9.41421356,26.8528302 9.75,26.5149319 9.75,26.0981132 Z M15.75,20.2867925 L15.75,17.2679245 C15.75,16.8511058 15.4142136,16.5132075 15,16.5132075 L12,16.5132075 C11.5857864,16.5132075 11.25,16.8511058 11.25,17.2679245 L11.25,20.2867925 C11.25,20.7036111 11.5857864,21.0415094 12,21.0415094 L15,21.0415094 C15.4142136,21.0415094 15.75,20.7036111 15.75,20.2867925 Z M15.75,26.0981132 L15.75,23.0792453 C15.75,22.6624266 15.4142136,22.3245283 15,22.3245283 L12,22.3245283 C11.5857864,22.3245283 11.25,22.6624266 11.25,23.0792453 L11.25,26.0981132 C11.25,26.5149319 11.5857864,26.8528302 12,26.8528302 L15,26.8528302 C15.4142136,26.8528302 15.75,26.5149319 15.75,26.0981132 Z" id="Shape" fill="#4D91BB" fill-rule="nonzero"></path>
                <path d="M9,8.73962264 L6,8.73962264 C5.58578644,8.73962264 5.25,8.40172434 5.25,7.98490566 L5.25,4.96603774 C5.25,4.54921906 5.58578644,4.21132075 6,4.21132075 L9,4.21132075 C9.41421356,4.21132075 9.75,4.54921906 9.75,4.96603774 L9.75,7.98490566 C9.75,8.40172434 9.41421356,8.73962264 9,8.73962264 Z M9.75,14.0226415 L9.75,11.0037736 C9.75,10.5869549 9.41421356,10.2490566 9,10.2490566 L6,10.2490566 C5.58578644,10.2490566 5.25,10.5869549 5.25,11.0037736 L5.25,14.0226415 C5.25,14.4394602 5.58578644,14.7773585 6,14.7773585 L9,14.7773585 C9.41421356,14.7773585 9.75,14.4394602 9.75,14.0226415 Z M15.75,8.21132075 L15.75,5.19245283 C15.75,4.77563415 15.4142136,4.43773585 15,4.43773585 L12,4.43773585 C11.5857864,4.43773585 11.25,4.77563415 11.25,5.19245283 L11.25,8.21132075 C11.25,8.62813943 11.5857864,8.96603774 12,8.96603774 L15,8.96603774 C15.4142136,8.96603774 15.75,8.62813943 15.75,8.21132075 Z M15.75,14.0226415 L15.75,11.0037736 C15.75,10.5869549 15.4142136,10.2490566 15,10.2490566 L12,10.2490566 C11.5857864,10.2490566 11.25,10.5869549 11.25,11.0037736 L11.25,14.0226415 C11.25,14.4394602 11.5857864,14.7773585 12,14.7773585 L15,14.7773585 C15.4142136,14.7773585 15.75,14.4394602 15.75,14.0226415 Z" id="Shape" fill="#4D91BB" fill-rule="nonzero"></path>
                <path d="M5.5425,20.6566038 C5.44089926,20.524868 5.38551588,20.3629807 5.385,20.1962264 L5.385,17.1773585 C5.385,16.7605398 5.72078644,16.4226415 6.135,16.4226415 L9.135,16.4226415 C9.30071209,16.4231606 9.46158762,16.4788923 9.5925,16.5811321 C9.45090554,16.39604 9.23212249,16.2873539 9,16.2867925 L6,16.2867925 C5.58578644,16.2867925 5.25,16.6246908 5.25,17.0415094 L5.25,20.0603774 C5.25055794,20.2939597 5.35856477,20.5141188 5.5425,20.6566038 Z" id="Shape" fill="#2175AA" fill-rule="nonzero"></path>
                <path d="M11.5425,20.8830189 C11.4408993,20.7512831 11.3855159,20.5893958 11.385,20.4226415 L11.385,17.4037736 C11.385,16.9869549 11.7207864,16.6490566 12.135,16.6490566 L15.135,16.6490566 C15.3007121,16.6495757 15.4615876,16.7053074 15.5925,16.8075472 C15.4509055,16.6224551 15.2321225,16.513769 15,16.5132075 L12,16.5132075 C11.5857864,16.5132075 11.25,16.8511058 11.25,17.2679245 L11.25,20.2867925 C11.2505579,20.5203748 11.3585648,20.7405339 11.5425,20.8830189 Z" id="Shape" fill="#2175AA" fill-rule="nonzero"></path>
                <path d="M5.385,26.2339623 L5.385,23.2150943 C5.385,22.7982757 5.72078644,22.4603774 6.135,22.4603774 L9.135,22.4603774 C9.30071209,22.4608965 9.46158762,22.5166282 9.5925,22.6188679 C9.45090554,22.4337759 9.23212249,22.3250898 9,22.3245283 L6,22.3245283 C5.58578644,22.3245283 5.25,22.6624266 5.25,23.0792453 L5.25,26.0981132 C5.25055794,26.3316956 5.35856477,26.5518546 5.5425,26.6943396 C5.44089926,26.5626039 5.38551588,26.4007166 5.385,26.2339623 Z" id="Shape" fill="#2175AA" fill-rule="nonzero"></path>
                <path d="M11.385,26.2339623 L11.385,23.2150943 C11.385,22.7982757 11.7207864,22.4603774 12.135,22.4603774 L15.135,22.4603774 C15.3007121,22.4608965 15.4615876,22.5166282 15.5925,22.6188679 C15.4509055,22.4337759 15.2321225,22.3250898 15,22.3245283 L12,22.3245283 C11.5857864,22.3245283 11.25,22.6624266 11.25,23.0792453 L11.25,26.0981132 C11.2505579,26.3316956 11.3585648,26.5518546 11.5425,26.6943396 C11.4408993,26.5626039 11.3855159,26.4007166 11.385,26.2339623 Z" id="Shape" fill="#2175AA" fill-rule="nonzero"></path>
                <path d="M5.5425,8.58113208 C5.44089926,8.44939635 5.38551588,8.28750902 5.385,8.12075472 L5.385,5.10188679 C5.385,4.68506811 5.72078644,4.34716981 6.135,4.34716981 L9.135,4.34716981 C9.30071209,4.34768893 9.46158762,4.40342064 9.5925,4.50566038 C9.45090554,4.32056832 9.23212249,4.2118822 9,4.21132075 L6,4.21132075 C5.58578644,4.21132075 5.25,4.54921906 5.25,4.96603774 L5.25,7.98490566 C5.25055794,8.21848804 5.35856477,8.43864709 5.5425,8.58113208 Z" id="Shape" fill="#2175AA" fill-rule="nonzero"></path>
                <path d="M11.5425,8.80754717 C11.4408993,8.67581144 11.3855159,8.51392411 11.385,8.34716981 L11.385,5.32830189 C11.385,4.91148321 11.7207864,4.57358491 12.135,4.57358491 L15.135,4.57358491 C15.3007121,4.57410403 15.4615876,4.62983573 15.5925,4.73207547 C15.4509055,4.54698341 15.2321225,4.4382973 15,4.43773585 L12,4.43773585 C11.5857864,4.43773585 11.25,4.77563415 11.25,5.19245283 L11.25,8.21132075 C11.2505579,8.44490313 11.3585648,8.66506218 11.5425,8.80754717 Z" id="Shape" fill="#2175AA" fill-rule="nonzero"></path>
                <path d="M5.385,14.1584906 L5.385,11.1396226 C5.385,10.722804 5.72078644,10.3849057 6.135,10.3849057 L9.135,10.3849057 C9.30071209,10.3854248 9.46158762,10.4411565 9.5925,10.5433962 C9.45090554,10.3583042 9.23212249,10.2496181 9,10.2490566 L6,10.2490566 C5.58578644,10.2490566 5.25,10.5869549 5.25,11.0037736 L5.25,14.0226415 C5.25055794,14.2562239 5.35856477,14.4763829 5.5425,14.6188679 C5.44089926,14.4871322 5.38551588,14.3252449 5.385,14.1584906 Z" id="Shape" fill="#2175AA" fill-rule="nonzero"></path>
                <path d="M11.385,14.1584906 L11.385,11.1396226 C11.385,10.722804 11.7207864,10.3849057 12.135,10.3849057 L15.135,10.3849057 C15.3007121,10.3854248 15.4615876,10.4411565 15.5925,10.5433962 C15.4509055,10.3583042 15.2321225,10.2496181 15,10.2490566 L12,10.2490566 C11.5857864,10.2490566 11.25,10.5869549 11.25,11.0037736 L11.25,14.0226415 C11.2505579,14.2562239 11.3585648,14.4763829 11.5425,14.6188679 C11.4408993,14.4871322 11.3855159,14.3252449 11.385,14.1584906 Z" id="Shape" fill="#2175AA" fill-rule="nonzero"></path>
                <rect id="Rectangle" fill="#1C5599" x="0" y="0" width="21" height="2.26415094" rx="1.13207547"></rect>
                <rect id="Rectangle" fill="#4D91BB" x="0" y="0.377358491" width="21" height="2.26415094" rx="1.13207547"></rect>
            </g>
        </g>
    </g>
</svg>