<?xml version="1.0" encoding="UTF-8" standalone="no"?>
<svg width="42px" height="42px" viewBox="0 0 42 42" version="1.1" xmlns="http://www.w3.org/2000/svg" xmlns:xlink="http://www.w3.org/1999/xlink">
    <!-- Generator: Sketch 43.2 (39069) - http://www.bohemiancoding.com/sketch -->
    <title>contact</title>
    <desc>Created with Sketch.</desc>
    <defs>
        <filter x="-4.3%" y="-3.8%" width="108.6%" height="107.5%" filterUnits="objectBoundingBox" id="filter-1">
            <feOffset dx="0" dy="0" in="SourceAlpha" result="shadowOffsetOuter1"></feOffset>
            <feGaussianBlur stdDeviation="0.5" in="shadowOffsetOuter1" result="shadowBlurOuter1"></feGaussianBlur>
            <feColorMatrix values="0 0 0 0 0   0 0 0 0 0   0 0 0 0 0  0 0 0 0.5 0" type="matrix" in="shadowBlurOuter1" result="shadowMatrixOuter1"></feColorMatrix>
            <feMerge>
                <feMergeNode in="shadowMatrixOuter1"></feMergeNode>
                <feMergeNode in="SourceGraphic"></feMergeNode>
            </feMerge>
        </filter>
    </defs>
    <g id="Iconsdeliverable-Copy" stroke="none" stroke-width="1" fill="none" fill-rule="evenodd">
        <g id="contact">
            <g id="Add-Client" filter="url(#filter-1)" transform="translate(4.000000, 1.000000)">
                <g id="XMLID_6194_" transform="translate(0.000000, 16.358491)">
                    <g id="XMLID_6197_" transform="translate(0.000000, 9.584906)">
                        <g id="XMLID_6204_" transform="translate(0.000000, 2.761467)">
                            <path d="M0,9.42894421 L0,7.61717141 C0.828506673,4.52068697 3.84427096,2.14891166 6.95945606,1.49008519 L13.5875094,0.0736082696 L21.0440695,0.0736082696 L27.6721229,1.49008519 C30.8204482,2.18185299 33.8030723,4.52068697 34.6315789,7.61717141 L34.6315789,9.42894421 L0,9.42894421 Z" id="XMLID_6231_" fill="#38862A"></path>
                            <path d="M0,7.50441591 L0.497104004,6.06535105 C1.32561068,3.60585838 3.84427096,1.72199165 6.95945606,1.19869534 L13.5875094,0.0736082696 L21.0440695,0.0736082696 L27.6721229,1.19869534 C30.8204482,1.74815647 33.3059683,3.60585838 34.1344749,6.06535105 L34.6315789,7.50441591 L0,7.50441591 Z" id="XMLID_6231_" fill="#4CA93B"></path>
                        </g>
                    </g>
                    <path d="M6.3809078,2.90323811 L6.3809078,6.5484523 C6.3809078,6.5484523 5.71637641,2.56073476 4.19041543,1.45983115 L4.19041543,0.725895406 C4.19041543,0.75035993 6.3809078,-0.203756536 6.3809078,2.90323811 Z" id="XMLID_6196_" fill="#643D3C"></path>
                    <path d="M27.4982388,2.90323811 L27.4982388,6.5484523 C27.4982388,6.5484523 28.1135456,2.73198644 29.5902821,1.45983115 L29.6641189,0.407856584 C29.6887311,0.407856584 27.4982388,-0.203756536 27.4982388,2.90323811 Z" id="XMLID_6195_" fill="#643D3C"></path>
                </g>
                <g id="Head" transform="translate(2.885965, 0.799203)">
                    <path d="M13.7090365,29.9690214 L14.8165889,29.9690214 C19.0252877,29.9690214 24.6122739,26.5684524 24.6122739,22.4094832 L24.6122739,9.54114319 C24.6122739,0.758378798 3.47033061,0.758378798 3.47033061,9.54114319 L3.47033061,22.4094832 C3.49494289,26.5684524 9.50033771,29.9690214 13.7090365,29.9690214 Z" id="XMLID_6223_" fill="#EBA339"></path>
                    <path d="M24.6122739,18.4625256 C25.5475403,16.7255443 26.6797049,17.0680477 26.6797049,17.0680477 C26.6797049,17.0680477 26.778154,16.3585764 26.9258276,14.890705 C27.0735012,13.4228335 27.0242767,12.6644332 27.0242767,12.6644332 C27.319624,12.9580075 27.7626449,13.7164078 27.7626449,13.7164078 C27.7626449,13.7164078 28.3533395,12.419788 27.2457872,9.41065141 C26.1628471,6.40151486 23.6277829,6.13240509 22.0525974,4.29756573 C20.4774119,2.46272638 18.6314913,0.750209644 13.5613629,0.383241772 C8.49123448,0.0162739006 5.90694573,3.85720429 5.90694573,3.85720429 C5.90694573,3.85720429 4.67633203,4.02845596 2.58428876,6.37705034 C0.492245477,8.72564472 0.689143668,12.3953234 0.689143668,12.3953234 L1.20600142,11.6858522 C1.1321646,13.961053 1.30445051,16.9946541 1.30445051,16.9946541 C2.92886059,17.0680477 3.49494289,18.4135965 3.49494289,18.4135965 L3.49494289,17.5084091 C3.66722881,9.41065141 8.6635204,8.4076059 8.6635204,8.4076059 C8.6635204,8.4076059 9.42650089,6.27919224 13.0198929,6.67062464 C16.6132849,7.06205703 18.2623072,9.41065141 18.2623072,9.41065141 L18.2623072,9.36172236 C18.2623072,9.36172236 20.0836155,10.9519165 21.1665555,12.9580075 C22.2494956,14.9640985 22.5694551,16.0650021 22.5694551,16.0650021 L22.7663533,12.468717 C22.7663533,12.468717 24.3169266,14.4014145 24.5138248,15.7224988 C24.6861107,17.0925122 24.6122739,18.4625256 24.6122739,18.4625256 Z" id="XMLID_6202_" fill="#643D3C"></path>
                </g>
            </g>
        </g>
    </g>
</svg>