<?xml version="1.0" encoding="UTF-8" standalone="no"?>
<svg width="42px" height="42px" viewBox="0 0 42 42" version="1.1" xmlns="http://www.w3.org/2000/svg" xmlns:xlink="http://www.w3.org/1999/xlink">
    <!-- Generator: Sketch 43.2 (39069) - http://www.bohemiancoding.com/sketch -->
    <title>court_case</title>
    <desc>Created with Sketch.</desc>
    <defs>
        <filter x="-3.9%" y="-4.3%" width="107.9%" height="108.6%" filterUnits="objectBoundingBox" id="filter-1">
            <feOffset dx="0" dy="0" in="SourceAlpha" result="shadowOffsetOuter1"></feOffset>
            <feGaussianBlur stdDeviation="0.5" in="shadowOffsetOuter1" result="shadowBlurOuter1"></feGaussianBlur>
            <feColorMatrix values="0 0 0 0 0   0 0 0 0 0   0 0 0 0 0  0 0 0 0.5 0" type="matrix" in="shadowBlurOuter1" result="shadowMatrixOuter1"></feColorMatrix>
            <feMerge>
                <feMergeNode in="shadowMatrixOuter1"></feMergeNode>
                <feMergeNode in="SourceGraphic"></feMergeNode>
            </feMerge>
        </filter>
    </defs>
    <g id="Iconsdeliverable-Copy" stroke="none" stroke-width="1" fill="none" fill-rule="evenodd">
        <g id="court_case">
            <g id="Briefcase" filter="url(#filter-1)" transform="translate(2.000000, 3.000000)">
                <path d="M36.8028346,19.994908 C35.4304429,21.2357948 33.6089661,21.9198121 31.6708098,21.9198121 L21.568836,21.9198121 L21.568836,23.7840601 C21.568836,24.5706447 20.8850787,25.2155804 20.049563,25.2155804 L17.4677932,25.2155804 C16.6326527,25.2155804 15.9490831,24.5708215 15.9490831,23.7840601 L15.9490831,21.9198121 L5.84654645,21.9198121 C3.90876531,21.9198121 2.08691338,21.2357948 0.714709211,19.994908 C0.453962281,19.7588266 0.215350702,19.5082442 0,19.245283 L0,32.2410824 C0,33.5619008 1.14616096,34.6415094 2.5463157,34.6415094 L34.9716033,34.6415094 C36.3715705,34.6415094 37.5175439,33.5619008 37.5175439,32.2410824 L37.5175439,19.245283 C37.301818,19.5082442 37.0641443,19.7588266 36.8028346,19.994908 Z" id="Path" fill="#6B3D17"></path>
                <rect id="Rectangle-4" fill="#D8A280" x="0" y="13" width="37.4000015" height="11"></rect>
                <path d="M36.8028346,18.0703797 C35.4304429,19.3112665 33.6089661,19.9952838 31.6708098,19.9952838 L21.568836,19.9952838 L21.568836,21.8595318 C21.568836,22.6461164 20.8850787,23.2910521 20.049563,23.2910521 L17.4677932,23.2910521 C16.6326527,23.2910521 15.9490831,22.6462932 15.9490831,21.8595318 L15.9490831,19.9952838 L5.84654645,19.9952838 C3.90876531,19.9952838 2.08691338,19.3112665 0.714709211,18.0703797 C0.453962281,17.8342983 0.215350702,17.5837159 0,17.3207547 L0,30.3165541 C0,31.6373725 1.14616096,32.7169811 2.5463157,32.7169811 L34.9716033,32.7169811 C36.3715705,32.7169811 37.5175439,31.6373725 37.5175439,30.3165541 L37.5175439,17.3207547 C37.301818,17.5837159 37.0641443,17.8342983 36.8028346,18.0703797 Z" id="Path" fill="#C06C26"></path>
                <path d="M37.5175439,7.72219684 L37.5175439,14.2726208 C37.2714288,15.32084 36.7261113,16.2835367 35.9206096,17.0644032 C34.7875798,18.1612492 33.2774986,18.7657727 31.6708098,18.7657727 L21.568836,18.7657727 L21.568836,16.7715073 C21.568836,15.9287693 20.8850787,15.2392909 20.049563,15.2392909 L17.4677932,15.2392909 C16.6326527,15.2392909 15.9490831,15.9289586 15.9490831,16.7715073 L15.9490831,18.7657727 L5.84654645,18.7657727 C4.23985763,18.7657727 2.73015167,18.1612492 1.59674667,17.0644032 C0.790494649,16.2846719 0.246115088,15.3212185 0,14.2733777 L0,7.72219684 C0,6.31012826 1.14616096,5.15405978 2.5463157,5.15405978 L34.9716033,5.15405978 C36.3715705,5.15405978 37.5175439,6.31012826 37.5175439,7.72219684 Z" id="Path" fill="#A04A15"></path>
                <path d="M20.0497506,22.2920654 C20.1835007,22.2920654 20.2951154,22.1792967 20.2951154,22.0445797 L20.2951154,20.0499359 L20.2951154,18.7657727 L20.2951154,16.7715073 C20.2951154,16.6367903 20.1835007,16.5232648 20.0497506,16.5232648 L17.4677932,16.5232648 C17.334606,16.5232648 17.2216782,16.6367903 17.2216782,16.7715073 L17.2216782,18.7657727 L17.2216782,20.0499359 L17.2216782,22.0445797 C17.2216782,22.1792967 17.334606,22.2920654 17.4677932,22.2920654 L20.0497506,22.2920654 L20.0497506,22.2920654 Z" id="Path" fill="#3D4D4E"></path>
                <path d="M24.6295172,0.76989241 C24.1320346,0.268109498 23.4801672,0.0174072504 22.8288627,0.0174072504 L14.6894315,0.0174072504 C14.0377518,0.0174072504 13.3855093,0.268109498 12.8884018,0.76989241 C12.3916696,1.2712969 12.1429282,1.92860982 12.1429282,2.58573352 L12.1429282,3.86989665 L14.3067526,3.86989665 L14.3067526,2.58573352 C14.3067526,2.51288796 14.3264493,2.40636315 14.4193052,2.31327221 C14.5112232,2.22018126 14.6166475,2.19993587 14.6894315,2.19993587 L22.8290503,2.19993587 C22.9007088,2.19993587 23.0065082,2.22018126 23.0986138,2.31327221 C23.1912821,2.40636315 23.2109789,2.51288796 23.2109789,2.58573352 L23.2109789,3.86989665 L25.3748032,3.86989665 L25.3748032,2.58573352 C25.3746156,1.92860982 25.1262495,1.27148611 24.6295172,0.76989241 Z" id="Shape" fill="#5E2A11"></path>
            </g>
        </g>
    </g>
</svg>