<?xml version="1.0" encoding="UTF-8"?>
<svg width="32px" height="32px" viewBox="0 0 32 32" version="1.1" xmlns="http://www.w3.org/2000/svg" xmlns:xlink="http://www.w3.org/1999/xlink">
    <!-- Generator: Sketch 49.1 (51147) - http://www.bohemiancoding.com/sketch -->
    <title>default_avatar_32.png</title>
    <desc>Created with Sketch.</desc>
    <defs></defs>
    <g id="default_avatar_32.png" stroke="none" stroke-width="1" fill="none" fill-rule="evenodd" fill-opacity="0.54">
        <g id="Staff-" transform="translate(2.000000, 2.000000)" fill="#000000">
            <g>
                <path d="M14,2.33333333 C7.58333333,2.33333333 2.33333333,7.58333333 2.33333333,14 C2.33333333,20.4166667 7.58333333,25.6666667 14,25.6666667 C20.4166667,25.6666667 25.6666667,20.4166667 25.6666667,14 C25.6666667,7.58333333 20.4166667,2.33333333 14,2.33333333 Z M21,20.1833333 L21,19.8333333 C21,18.0833333 18.3166667,16.9166667 15.9833333,16.45 L14,19.8333333 L12.0166667,16.45 C9.68333333,16.9166667 7,18.0833333 7,19.8333333 L7,20.1833333 C5.6,18.55 4.66666667,16.3333333 4.66666667,14 C4.66666667,8.86666667 8.86666667,4.66666667 14,4.66666667 C19.1333333,4.66666667 23.3333333,8.86666667 23.3333333,14 C23.3333333,16.3333333 22.4,18.55 21,20.1833333 Z" id="Shape" fill-rule="nonzero"></path>
                <circle id="Oval" fill-rule="nonzero" cx="14" cy="10.5" r="3.5"></circle>
            </g>
        </g>
    </g>
</svg>