<?xml version="1.0" encoding="UTF-8" standalone="no"?>
<svg width="42px" height="42px" viewBox="0 0 42 42" version="1.1" xmlns="http://www.w3.org/2000/svg" xmlns:xlink="http://www.w3.org/1999/xlink">
    <!-- Generator: Sketch 43.2 (39069) - http://www.bohemiancoding.com/sketch -->
    <title>exisiting_case</title>
    <desc>Created with Sketch.</desc>
    <defs>
        <filter x="-6.8%" y="-7.5%" width="113.6%" height="115.0%" filterUnits="objectBoundingBox" id="filter-1">
            <feOffset dx="0" dy="0" in="SourceAlpha" result="shadowOffsetOuter1"></feOffset>
            <feGaussianBlur stdDeviation="0.5" in="shadowOffsetOuter1" result="shadowBlurOuter1"></feGaussianBlur>
            <feColorMatrix values="0 0 0 0 0   0 0 0 0 0   0 0 0 0 0  0 0 0 0.5 0" type="matrix" in="shadowBlurOuter1" result="shadowMatrixOuter1"></feColorMatrix>
            <feMerge>
                <feMergeNode in="shadowMatrixOuter1"></feMergeNode>
                <feMergeNode in="SourceGraphic"></feMergeNode>
            </feMerge>
        </filter>
    </defs>
    <g id="Iconsdeliverable-Copy" stroke="none" stroke-width="1" fill="none" fill-rule="evenodd">
        <g id="exisiting_case">
            <g id="1494917117_folder-document" transform="translate(2.000000, 3.000000)" fill-rule="nonzero">
                <g id="Group" transform="translate(0.000000, 0.925000)">
                    <path d="M3.08333333,6.78333333 C1.38040833,6.78333333 0,8.17083333 0,9.86666667 L0,31.45 C0,33.1458333 1.38045458,34.5333333 3.08333333,34.5333333 L33.9166667,34.5333333 C35.6202083,34.5333333 37,33.1458333 37,31.45 L37,9.86666667 C37,8.17083333 35.6202083,6.78333333 33.9166667,6.78333333 L3.08333333,6.78333333 Z" id="Shape" fill="#CF922A"></path>
                    <path d="M4.625,0.616666667 C2.922075,0.616666667 1.54166667,2.00416667 1.54166667,3.7 L1.54166667,25.2833333 C1.54166667,26.9791667 2.922075,28.3666667 4.625,28.3666667 L21.5833333,28.3666667 L29.2916667,28.3666667 L32.375,28.3666667 C34.0785417,28.3666667 35.4583333,26.9791667 35.4583333,25.2833333 L35.4583333,11.4083333 L35.4583333,6.78333333 C35.4583333,5.0875 34.0785417,3.7 32.375,3.7 L29.2916667,3.7 L21.5833333,3.7 L20.0416667,3.7 L15.4166667,0.616666667 L4.625,0.616666667 Z" id="Shape" fill="#CF922A"></path>
                    <path d="M35.4583333,20.6583333 L35.4583333,8.325 C35.4583333,6.62916667 34.0785417,5.24166667 32.375,5.24166667 L15.4166667,5.24166667 L7.70833333,5.24166667 L4.625,5.24166667 C2.922075,5.24166667 1.54166667,6.62916667 1.54166667,8.325 L1.54166667,20.6583333 L35.4583333,20.6583333 Z" id="Shape" fill="#D0CAC2"></path>
                    <path d="M3.08333333,6.78333333 C1.38040833,6.78333333 0,8.17083333 0,9.86666667 L0,19.1166667 L0,20.6583333 L0,29.9083333 C0,31.6041667 1.38045458,32.9916667 3.08333333,32.9916667 L33.9166667,32.9916667 C35.6202083,32.9916667 37,31.6041667 37,29.9083333 L37,20.6583333 L37,19.1166667 L37,9.86666667 C37,8.17083333 35.6202083,6.78333333 33.9166667,6.78333333 L3.08333333,6.78333333 Z" id="Shape" fill="#F1AF42"></path>
                </g>
            </g>
            <g id="Briefcase" filter="url(#filter-1)" transform="translate(10.000000, 14.000000)">
                <path d="M21.3069043,11.4256617 C20.5123617,12.1347399 19.4578225,12.5256069 18.335732,12.5256069 L12.4872208,12.5256069 L12.4872208,13.5908915 C12.4872208,14.0403684 12.0913614,14.4089031 11.6076418,14.4089031 L10.1129329,14.4089031 C9.62943052,14.4089031 9.23367967,14.0404694 9.23367967,13.5908915 L9.23367967,12.5256069 L3.38484268,12.5256069 C2.26296939,12.5256069 1.20821301,12.1347399 0.413779017,11.4256617 C0.262820268,11.290758 0.124676722,11.1475681 0,10.9973046 L0,18.4234757 C0,19.1782291 0.663566874,19.7951482 1.47418277,19.7951482 L20.2467177,19.7951482 C21.057225,19.7951482 21.7206833,19.1782291 21.7206833,18.4234757 L21.7206833,10.9973046 C21.5957894,11.1475681 21.4581888,11.290758 21.3069043,11.4256617 Z" id="Path" fill="#6B3D17"></path>
                <rect id="Rectangle-4" fill="#D8A280" x="0" y="7.42857143" width="21.6526325" height="6.28571429"></rect>
                <path d="M21.3069043,10.3259313 C20.5123617,11.0350094 19.4578225,11.4258765 18.335732,11.4258765 L12.4872208,11.4258765 L12.4872208,12.491161 C12.4872208,12.9406379 12.0913614,13.3091726 11.6076418,13.3091726 L10.1129329,13.3091726 C9.62943052,13.3091726 9.23367967,12.940739 9.23367967,12.491161 L9.23367967,11.4258765 L3.38484268,11.4258765 C2.26296939,11.4258765 1.20821301,11.0350094 0.413779017,10.3259313 C0.262820268,10.1910276 0.124676722,10.0478377 0,9.89757412 L0,17.3237452 C0,18.0784986 0.663566874,18.6954178 1.47418277,18.6954178 L20.2467177,18.6954178 C21.057225,18.6954178 21.7206833,18.0784986 21.7206833,17.3237452 L21.7206833,9.89757412 C21.5957894,10.0478377 21.4581888,10.1910276 21.3069043,10.3259313 Z" id="Path" fill="#C06C26"></path>
                <path d="M21.7206833,4.41268391 L21.7206833,8.15578334 C21.5781956,8.75476574 21.2624855,9.3048781 20.7961424,9.75108756 C20.1401778,10.3778567 19.2659203,10.7232987 18.335732,10.7232987 L12.4872208,10.7232987 L12.4872208,9.58371847 C12.4872208,9.10215391 12.0913614,8.70816621 11.6076418,8.70816621 L10.1129329,8.70816621 C9.62943052,8.70816621 9.23367967,9.10226203 9.23367967,9.58371847 L9.23367967,10.7232987 L3.38484268,10.7232987 C2.45465442,10.7232987 1.58061412,10.3778567 0.924432281,9.75108756 C0.457654797,9.30552682 0.142487682,8.75498198 0,8.15621582 L0,4.41268391 C0,3.60578758 0.663566874,2.94517702 1.47418277,2.94517702 L20.2467177,2.94517702 C21.057225,2.94517702 21.7206833,3.60578758 21.7206833,4.41268391 Z" id="Path" fill="#A04A15"></path>
                <path d="M11.6077504,12.7383231 C11.6851846,12.7383231 11.7498036,12.6738838 11.7498036,12.5969027 L11.7498036,11.4571062 L11.7498036,10.7232987 L11.7498036,9.58371847 C11.7498036,9.50673733 11.6851846,9.44186559 11.6077504,9.44186559 L10.1129329,9.44186559 C10.0358245,9.44186559 9.97044525,9.50673733 9.97044525,9.58371847 L9.97044525,10.7232987 L9.97044525,11.4571062 L9.97044525,12.5969027 C9.97044525,12.6738838 10.0358245,12.7383231 10.1129329,12.7383231 L11.6077504,12.7383231 L11.6077504,12.7383231 Z" id="Path" fill="#3D4D4E"></path>
                <path d="M14.2591942,0.43993852 C13.9711779,0.153205427 13.593781,0.00994700021 13.21671,0.00994700021 L8.50440773,0.00994700021 C8.12711946,0.00994700021 7.74950538,0.153205427 7.46170633,0.43993852 C7.17412448,0.726455374 7.03011635,1.10206275 7.03011635,1.47756201 L7.03011635,2.21136951 L8.28285676,2.21136951 L8.28285676,1.47756201 C8.28285676,1.43593598 8.29426012,1.37506466 8.34801881,1.32186983 C8.40123449,1.26867501 8.46226961,1.25710621 8.50440773,1.25710621 L13.2168186,1.25710621 C13.2583051,1.25710621 13.3195574,1.26867501 13.3728817,1.32186983 C13.4265318,1.37506466 13.4379351,1.43593598 13.4379351,1.47756201 L13.4379351,2.21136951 L14.6906755,2.21136951 L14.6906755,1.47756201 C14.6905669,1.10206275 14.546776,0.726563494 14.2591942,0.43993852 Z" id="Shape" fill="#5E2A11"></path>
            </g>
        </g>
    </g>
</svg>