<?xml version="1.0" encoding="UTF-8" standalone="no"?>
<svg width="42px" height="42px" viewBox="0 0 42 42" version="1.1" xmlns="http://www.w3.org/2000/svg" xmlns:xlink="http://www.w3.org/1999/xlink">
    <!-- Generator: Sketch 43.2 (39069) - http://www.bohemiancoding.com/sketch -->
    <title>expense</title>
    <desc>Created with Sketch.</desc>
    <defs></defs>
    <g id="Iconsdeliverable-Copy" stroke="none" stroke-width="1" fill="none" fill-rule="evenodd">
        <g id="expense">
            <g id="Receipt" transform="translate(3.000000, 1.000000)">
                <polygon id="Shape" stroke="#BDC3C7" fill="#BDC3C7" fill-rule="nonzero" points="0 38.834718 2.91666667 36.8012695 5.83333333 40 9 36.8012695 11.6666667 40 14.5833333 36.8012695 17.5 40 20.4166667 36.8012695 23.3333333 40 26 36.8012695 29.1666667 40 32.0833333 36.8012695 35 38.834718 35 1 32.0833333 3.83760385 29.1666667 1 26.25 3.83760385 23.3333333 1 20.4166667 3.83760385 17.5 1 14.5833333 3.83760385 11.6666667 1 8.75 3.83760385 5.83333333 1 2.91666667 3.83760385 0 1"></polygon>
                <polygon id="Shape" stroke="#9B9B9B" fill="#ECF0F1" fill-rule="nonzero" points="0 37.834718 2.91666667 35.8012695 5.83333333 39 9 35.8012695 11.6666667 39 14.5833333 35.8012695 17.5 39 20.4166667 35.8012695 23.3333333 39 26 35.8012695 29.1666667 39 32.0833333 35.8012695 35 37.834718 35 0 32.0833333 2.83760385 29.1666667 0 26.25 2.83760385 23.3333333 0 20.4166667 2.83760385 17.5 0 14.5833333 2.83760385 11.6666667 0 8.75 2.83760385 5.83333333 0 2.91666667 2.83760385 0 0"></polygon>
                <path d="M14.551,30.448 C14.5436666,30.8660021 14.6536655,31.1959988 14.881,31.438 C15.1083345,31.6800012 15.390665,31.8339997 15.728,31.9 L15.728,29.601 C15.6913332,29.5863333 15.6418336,29.5698334 15.5795,29.5515 C15.5171664,29.5331666 15.4493337,29.5166667 15.376,29.502 C15.1046653,29.4286663 14.8370013,29.3425005 14.573,29.2435 C14.3089987,29.1444995 14.072501,29.0125008 13.8635,28.8475 C13.654499,28.6824992 13.4876673,28.4771679 13.363,28.2315 C13.2383327,27.9858321 13.176,27.6796685 13.176,27.313 C13.176,26.9389981 13.2474993,26.6090014 13.3905,26.323 C13.5335007,26.0369986 13.7223322,25.7968343 13.957,25.6025 C14.1916678,25.4081657 14.4629985,25.2578339 14.771,25.1515 C15.0790015,25.0451661 15.3979983,24.9810001 15.728,24.959 L15.728,24.112 L16.377,24.112 L16.377,24.959 C16.7070016,24.9956668 17.0168319,25.0671661 17.3065,25.1735 C17.5961681,25.2798339 17.8509989,25.4264991 18.071,25.6135 C18.2910011,25.8005009 18.470666,26.0333319 18.61,26.312 C18.749334,26.5906681 18.8299999,26.9206648 18.852,27.302 L17.29,27.302 C17.2826666,27.0086652 17.1910009,26.7593344 17.015,26.554 C16.8389991,26.3486656 16.6263346,26.246 16.377,26.246 L16.377,28.193 C16.4650004,28.2150001 16.5548329,28.2369999 16.6465,28.259 C16.7381671,28.2810001 16.8353328,28.3066665 16.938,28.336 C17.4806694,28.4826674 17.8986652,28.6641656 18.192,28.8805 C18.4853348,29.0968344 18.701666,29.3223322 18.841,29.557 C18.980334,29.7916678 19.0628332,30.0263322 19.0885,30.261 C19.1141668,30.4956678 19.127,30.7046657 19.127,30.888 C19.127,31.0493341 19.0866671,31.2528321 19.006,31.4985 C18.9253329,31.7441679 18.780501,31.9843322 18.5715,32.219 C18.362499,32.4536678 18.0820018,32.6626658 17.73,32.846 C17.3779982,33.0293342 16.9270027,33.1393331 16.377,33.176 L16.377,34.111 L15.728,34.111 L15.728,33.176 C14.9066626,33.117333 14.2650023,32.8643356 13.803,32.417 C13.3409977,31.9696644 13.0733337,31.3133377 13,30.448 L14.551,30.448 Z M16.377,31.9 C16.5090007,31.8853333 16.6464993,31.8541669 16.7895,31.8065 C16.9325007,31.7588331 17.0608328,31.6910004 17.1745,31.603 C17.2881672,31.5149996 17.3816663,31.406834 17.455,31.2785 C17.5283337,31.150166 17.565,30.9980009 17.565,30.822 C17.565,30.5359986 17.4751676,30.3215007 17.2955,30.1785 C17.1158324,30.0354993 16.8096688,29.9053339 16.377,29.788 L16.377,31.9 Z M15.728,26.246 C15.6033327,26.246 15.4823339,26.2643331 15.365,26.301 C15.2476661,26.3376668 15.1413338,26.3944996 15.046,26.4715 C14.9506662,26.5485004 14.8755003,26.6438328 14.8205,26.7575 C14.7654997,26.8711672 14.738,27.0049992 14.738,27.159 C14.738,27.4010012 14.8149992,27.5879993 14.969,27.72 C15.1230008,27.8520007 15.3759982,27.9583329 15.728,28.039 L15.728,26.246 Z" id="$" fill="#38862A"></path>
                <polygon id="Shape" fill="#BDC3C7" points="13.9444444 15 13.9444444 16.9444444 31.5555556 16.9444444 31.5555556 15"></polygon>
                <polygon id="Shape" fill="#BDC3C7" points="5 15 5 16.9444444 11 16.9444444 11 15"></polygon>
                <polygon id="Shape" fill="#BDC3C7" transform="translate(5.472222, 9.750000) rotate(90.000000) translate(-5.472222, -9.750000) " points="2.72222222 9.25 2.72222222 10.2222222 8.22222222 10.2222222 8.22222222 9.25"></polygon>
                <polygon id="Shape" fill="#BDC3C7" transform="translate(7.972222, 9.750000) rotate(90.000000) translate(-7.972222, -9.750000) " points="5.22222222 8.77777778 5.22222222 10.7222222 10.7222222 10.7222222 10.7222222 8.77777778"></polygon>
                <polygon id="Shape" fill="#BDC3C7" transform="translate(11.027778, 9.750000) rotate(90.000000) translate(-11.027778, -9.750000) " points="8.27777778 8.77777778 8.27777778 10.7222222 13.7777778 10.7222222 13.7777778 8.77777778"></polygon>
                <polygon id="Shape" fill="#BDC3C7" transform="translate(20.027778, 9.750000) rotate(90.000000) translate(-20.027778, -9.750000) " points="17.2777778 8.77777778 17.2777778 10.7222222 22.7777778 10.7222222 22.7777778 8.77777778"></polygon>
                <polygon id="Shape" fill="#BDC3C7" transform="translate(23.027778, 9.750000) rotate(90.000000) translate(-23.027778, -9.750000) " points="20.2777778 8.77777778 20.2777778 10.7222222 25.7777778 10.7222222 25.7777778 8.77777778"></polygon>
                <polygon id="Shape" fill="#BDC3C7" transform="translate(30.027778, 9.750000) rotate(90.000000) translate(-30.027778, -9.750000) " points="27.2777778 8.77777778 27.2777778 10.7222222 32.7777778 10.7222222 32.7777778 8.77777778"></polygon>
                <polygon id="Shape" fill="#BDC3C7" transform="translate(13.500000, 9.750000) rotate(90.000000) translate(-13.500000, -9.750000) " points="10.75 9.25 10.75 10.25 16.25 10.25 16.25 9.25"></polygon>
                <polygon id="Shape" fill="#BDC3C7" transform="translate(15.500000, 9.750000) rotate(90.000000) translate(-15.500000, -9.750000) " points="12.75 9.25 12.75 10.25 18.25 10.25 18.25 9.25"></polygon>
                <polygon id="Shape" fill="#BDC3C7" transform="translate(17.500000, 9.750000) rotate(90.000000) translate(-17.500000, -9.750000) " points="14.75 9.25 14.75 10.25 20.25 10.25 20.25 9.25"></polygon>
                <polygon id="Shape" fill="#BDC3C7" transform="translate(25.500000, 9.750000) rotate(90.000000) translate(-25.500000, -9.750000) " points="22.75 9.25 22.75 10.25 28.25 10.25 28.25 9.25"></polygon>
                <polygon id="Shape" fill="#BDC3C7" transform="translate(27.500000, 9.750000) rotate(90.000000) translate(-27.500000, -9.750000) " points="24.75 9.25 24.75 10.25 30.25 10.25 30.25 9.25"></polygon>
                <polygon id="Shape" fill="#BDC3C7" points="5 18 5 19.9444444 11 19.9444444 11 18"></polygon>
                <polygon id="Shape" fill="#BDC3C7" points="14 18 14 19.9444444 31.6111111 19.9444444 31.6111111 18"></polygon>
                <polygon id="Shape" fill="#BDC3C7" points="3 22 3 23 32.5555556 23 32.5555556 22"></polygon>
                <polygon id="Shape" fill="#38862A" points="21.3120117 30 21.3120117 31.9444444 31.6111111 31.9444444 31.6111111 30"></polygon>
                <polygon id="Shape" fill="#38862A" points="21.3120117 27 21.3120117 28.9444444 31.6111111 28.9444444 31.6111111 27"></polygon>
            </g>
        </g>
    </g>
</svg>