<?xml version="1.0" encoding="UTF-8" standalone="no"?>
<svg width="42px" height="42px" viewBox="0 0 42 42" version="1.1" xmlns="http://www.w3.org/2000/svg" xmlns:xlink="http://www.w3.org/1999/xlink">
    <!-- Generator: Sketch 43.2 (39069) - http://www.bohemiancoding.com/sketch -->
    <title>lawyer_add</title>
    <desc>Created with Sketch.</desc>
    <defs>
        <filter x="-4.3%" y="-3.8%" width="108.6%" height="107.5%" filterUnits="objectBoundingBox" id="filter-1">
            <feOffset dx="0" dy="0" in="SourceAlpha" result="shadowOffsetOuter1"></feOffset>
            <feGaussianBlur stdDeviation="0.5" in="shadowOffsetOuter1" result="shadowBlurOuter1"></feGaussianBlur>
            <feColorMatrix values="0 0 0 0 0   0 0 0 0 0   0 0 0 0 0  0 0 0 0.5 0" type="matrix" in="shadowBlurOuter1" result="shadowMatrixOuter1"></feColorMatrix>
            <feMerge>
                <feMergeNode in="shadowMatrixOuter1"></feMergeNode>
                <feMergeNode in="SourceGraphic"></feMergeNode>
            </feMerge>
        </filter>
    </defs>
    <g id="Iconsdeliverable-Copy" stroke="none" stroke-width="1" fill="none" fill-rule="evenodd">
        <g id="lawyer_add">
            <g id="Add-Client" filter="url(#filter-1)" transform="translate(1.000000, 1.000000)">
                <g id="XMLID_6194_" transform="translate(0.000000, 26.358491)">
                    <g id="XMLID_6197_" transform="translate(0.000000, 0.584906)">
                        <g id="XMLID_6204_" transform="translate(0.000000, 1.761467)">
                            <path d="M0,9.42894421 L0,7.61717141 C0.828506673,4.52068697 3.84427096,2.14891166 6.95945606,1.49008519 L13.5875094,0.0736082696 L21.0440695,0.0736082696 L27.6721229,1.49008519 C30.8204482,2.18185299 33.8030723,4.52068697 34.6315789,7.61717141 L34.6315789,9.42894421 L0,9.42894421 Z" id="XMLID_6231_" fill="#000000"></path>
                            <path d="M0,7.50441591 L0.497104004,6.06535105 C1.32561068,3.60585838 3.84427096,1.72199165 6.95945606,1.19869534 L13.5875094,0.0736082696 L21.0440695,0.0736082696 L27.6721229,1.19869534 C30.8204482,1.74815647 33.3059683,3.60585838 34.1344749,6.06535105 L34.6315789,7.50441591 L0,7.50441591 Z" id="XMLID_6231_" fill="#003F69"></path>
                        </g>
                    </g>
                    <polyline id="Path-22" stroke="#FFFFFF" opacity="0.456389925" points="7.31689453 3.48672428 6.21191406 6.23428287 10.1403809 7.12222232 11.5895996 9.68814029"></polyline>
                    <polyline id="Path-22" stroke="#FFFFFF" opacity="0.456389925" transform="translate(26.688843, 6.742217) scale(-1, 1) translate(-26.688843, -6.742217) " points="25.1049805 3.64150943 24 6.38906803 27.9284668 7.27700748 29.3776855 9.84292545"></polyline>
                    <polygon id="Rectangle" fill="#9FCAE6" points="11.3339844 1.73379459 23.3344727 1.73379459 21 10 14 10"></polygon>
                </g>
                <g id="Head" transform="translate(2.885965, 0.799203)">
                    <path d="M13.7090365,29.9690214 L14.8165889,29.9690214 C19.0252877,29.9690214 24.6122739,26.5684524 24.6122739,22.4094832 L24.6122739,9.54114319 C24.6122739,0.758378798 3.47033061,0.758378798 3.47033061,9.54114319 L3.47033061,22.4094832 C3.49494289,26.5684524 9.50033771,29.9690214 13.7090365,29.9690214 Z" id="XMLID_6223_" fill="#EBA339"></path>
                    <path d="M24.5138248,20.8975742 C25.4490912,19.160593 26.6797049,17.0680477 26.6797049,17.0680477 C26.6797049,17.0680477 28.3533395,12.419788 27.2457872,9.41065141 C26.1628471,6.40151486 18.6314913,0.750209644 13.5613629,0.383241772 C8.49123448,0.0162739006 5.90694573,3.85720429 5.90694573,3.85720429 C5.90694573,3.85720429 4.67633203,4.02845596 2.58428876,6.37705034 C1.24365842,7.88208463 1.09567119,11.8183649 1.16231588,14.4518431 C1.19966972,15.9278873 1.30445051,16.9946541 1.30445051,16.9946541 C2.03736033,17.0277682 1.4645515,19.8390283 1.81178899,20.8975742 C2.15902649,21.9561202 3.49494289,21.7608555 3.49494289,21.7608555 L3.49494289,17.5084091 C3.66722881,9.41065141 9.42650089,6.27919224 13.0198929,6.67062464 C16.6132849,7.06205703 24.5138248,10.5181797 24.5138248,15.7224988 C24.6861107,17.0925122 24.5138248,23.6197323 24.5138248,20.8975742 Z" id="XMLID_6202_" fill="#000000"></path>
                </g>
            </g>
            <g id="Add" transform="translate(22.000000, 22.000000)">
                <polyline id="Fill-2" fill="#FFFFFF" points="17.5 11.2471333 11.2471333 11.2471333 11.2471333 17.5 6.55748326 17.5 6.55748326 11.2471333 0.30461655 11.2471333 0.30461655 6.55748326 6.55748326 6.55748326 6.55748326 0.30461655 11.2471333 0.30461655 11.2471333 6.55748326 17.5 6.55748326 17.5 11.2471333"></polyline>
                <polyline id="Fill-2" fill="#FFFFFF" points="19.5 11.2471333 13.2471333 11.2471333 13.2471333 17.5 8.55748326 17.5 8.55748326 11.2471333 2.30461655 11.2471333 2.30461655 6.55748326 8.55748326 6.55748326 8.55748326 0.30461655 13.2471333 0.30461655 13.2471333 6.55748326 19.5 6.55748326 19.5 11.2471333"></polyline>
                <polyline id="Fill-2" fill="#FFFFFF" points="17.5 13.2471333 11.2471333 13.2471333 11.2471333 19.5 6.55748326 19.5 6.55748326 13.2471333 0.30461655 13.2471333 0.30461655 8.55748326 6.55748326 8.55748326 6.55748326 2.30461655 11.2471333 2.30461655 11.2471333 8.55748326 17.5 8.55748326 17.5 13.2471333"></polyline>
                <polyline id="Fill-2" fill="#FFFFFF" points="19.5 13.2471333 13.2471333 13.2471333 13.2471333 19.5 8.55748326 19.5 8.55748326 13.2471333 2.30461655 13.2471333 2.30461655 8.55748326 8.55748326 8.55748326 8.55748326 2.30461655 13.2471333 2.30461655 13.2471333 8.55748326 19.5 8.55748326 19.5 13.2471333"></polyline>
                <polyline id="Fill-2" fill="#40BC53" points="18.9789278 12.5365803 12.5365803 12.5365803 12.5365803 18.9789278 7.70481962 18.9789278 7.70481962 12.5365803 1.2624721 12.5365803 1.2624721 7.70481962 7.70481962 7.70481962 7.70481962 1.2624721 12.5365803 1.2624721 12.5365803 7.70481962 18.9789278 7.70481962 18.9789278 12.5365803"></polyline>
            </g>
        </g>
    </g>
</svg>