<?xml version="1.0" encoding="UTF-8" standalone="no"?>
<svg width="42px" height="42px" viewBox="0 0 42 42" version="1.1" xmlns="http://www.w3.org/2000/svg" xmlns:xlink="http://www.w3.org/1999/xlink">
    <!-- Generator: Sketch 43.2 (39069) - http://www.bohemiancoding.com/sketch -->
    <title>message</title>
    <desc>Created with Sketch.</desc>
    <defs>
        <path d="M4.48927875,2.33622497 C2.0098501,2.33622497 0,3.68855635 0,5.34140582 L0,26.3776718 C0,28.0305212 2.0098501,29.3828526 4.48927875,29.3828526 L17.957115,29.3828526 L22.4463938,29.3828526 L35.91423,29.3828526 C38.3945565,29.3828526 40.4035088,28.0305212 40.4035088,26.3776718 L40.4035088,5.34140582 C40.4035088,3.68855635 38.3945565,2.33622497 35.91423,2.33622497 L22.4463938,2.33622497 L17.957115,2.33622497 L4.48927875,2.33622497 Z" id="path-1"></path>
        <filter x="-3.7%" y="-5.5%" width="107.4%" height="111.1%" filterUnits="objectBoundingBox" id="filter-2">
            <feOffset dx="0" dy="0" in="SourceAlpha" result="shadowOffsetOuter1"></feOffset>
            <feGaussianBlur stdDeviation="0.5" in="shadowOffsetOuter1" result="shadowBlurOuter1"></feGaussianBlur>
            <feColorMatrix values="0 0 0 0 0   0 0 0 0 0   0 0 0 0 0  0 0 0 0.5 0" type="matrix" in="shadowBlurOuter1"></feColorMatrix>
        </filter>
        <linearGradient x1="69.9521019%" y1="62.9843675%" x2="31.2453497%" y2="11.1774207%" id="linearGradient-3">
            <stop stop-color="#F6C448" offset="0%"></stop>
            <stop stop-color="#F5D564" offset="100%"></stop>
        </linearGradient>
    </defs>
    <g id="Iconsdeliverable-Copy" stroke="none" stroke-width="1" fill="none" fill-rule="evenodd">
        <g id="message">
            <g id="Messages" transform="translate(1.000000, 6.000000)">
                <g id="Shape">
                    <use fill="black" fill-opacity="1" filter="url(#filter-2)" xlink:href="#path-1"></use>
                    <use fill="#C79236" fill-rule="evenodd" xlink:href="#path-1"></use>
                </g>
                <path d="M4.48927875,0.0995445673 C2.0098501,0.0995445673 0,1.44496403 0,3.10472542 L0,24.1409913 C0,25.8013538 2.0098501,27.1461722 4.48927875,27.1461722 L17.957115,27.1461722 L22.4463938,27.1461722 L35.91423,27.1461722 C38.3945565,27.1461722 40.4035088,25.8013538 40.4035088,24.1409913 L40.4035088,3.10472542 C40.4035088,1.44496403 38.3945565,0.0995445673 35.91423,0.0995445673 L22.4463938,0.0995445673 L17.957115,0.0995445673 L4.48927875,0.0995445673 Z" id="Shape" fill="url(#linearGradient-3)"></path>
                <g id="Group">
                    <path d="M-1.09197014,19.9950819 C-1.09197014,20.0092049 -1.09682564,20.0139499 -1.10186636,20.0139499 L17.7447417,20.0139499 C17.737395,20.0139499 17.7348455,20.0114191 17.7348455,19.9950819 C17.7348455,19.989246 17.7477063,19.976214 17.7538813,19.976214 L6.34148769,19.976214 L-1.1194548,19.976214 C-1.0983524,19.976214 -1.09197014,19.9827852 -1.09197014,19.9950819 Z" id="Rectangle-6" stroke="#C79236" transform="translate(8.321438, 20.013950) rotate(-39.000000) translate(-8.321438, -20.013950) "></path>
                    <path d="M-1.78877136,9.88531195 C-1.78877136,9.6298266 -1.5832857,9.4230478 -1.33355021,9.4230478 L22.7296917,9.4230478 C22.9818516,9.4230478 23.1849129,9.62706223 23.1849129,9.88531195 C23.1849129,10.1397423 22.9766655,10.3475761 22.7220326,10.3475761 L8.10428078,10.3475761 L-1.32964691,10.3475761 C-1.58442548,10.3475761 -1.78877136,10.1431066 -1.78877136,9.88531195 Z" id="Rectangle-6" stroke="#C5870B" transform="translate(10.698071, 9.885312) rotate(39.000000) translate(-10.698071, -9.885312) "></path>
                    <path d="M22.9010621,19.0124154 C22.9010621,19.0265383 22.8962066,19.0312833 22.8911659,19.0312833 L41.7377739,19.0312833 C41.7304272,19.0312833 41.7278777,19.0287525 41.7278777,19.0124154 C41.7278777,19.0065795 41.7407386,18.9935475 41.7469136,18.9935475 L30.33452,18.9935475 L22.8735775,18.9935475 C22.8946799,18.9935475 22.9010621,19.0001186 22.9010621,19.0124154 Z" id="Rectangle-6" stroke="#C79236" transform="translate(32.314470, 19.031283) scale(-1, 1) rotate(-39.000000) translate(-32.314470, -19.031283) "></path>
                    <rect id="Rectangle-6" stroke="#C5870B" transform="translate(29.937837, 9.885312) scale(-1, 1) rotate(39.000000) translate(-29.937837, -9.885312) " x="17.4509947" y="9.4230478" width="24.9736842" height="1" rx="0.5"></rect>
                </g>
            </g>
        </g>
    </g>
</svg>