<?xml version="1.0" encoding="UTF-8" standalone="no"?>
<svg width="42px" height="42px" viewBox="0 0 42 42" version="1.1" xmlns="http://www.w3.org/2000/svg" xmlns:xlink="http://www.w3.org/1999/xlink">
    <!-- Generator: Sketch 44.1 (41455) - http://www.bohemiancoding.com/sketch -->
    <title>payment</title>
    <desc>Created with Sketch.</desc>
    <defs>
        <filter x="-5.6%" y="-2.6%" width="111.1%" height="110.3%" filterUnits="objectBoundingBox" id="filter-1">
            <feOffset dx="0" dy="1" in="SourceAlpha" result="shadowOffsetOuter1"></feOffset>
            <feGaussianBlur stdDeviation="0.5" in="shadowOffsetOuter1" result="shadowBlurOuter1"></feGaussianBlur>
            <feColorMatrix values="0 0 0 0 0   0 0 0 0 0   0 0 0 0 0  0 0 0 0.5 0" type="matrix" in="shadowBlurOuter1" result="shadowMatrixOuter1"></feColorMatrix>
            <feMerge>
                <feMergeNode in="shadowMatrixOuter1"></feMergeNode>
                <feMergeNode in="SourceGraphic"></feMergeNode>
            </feMerge>
        </filter>
        <rect id="path-2" x="0" y="28" width="36" height="11" rx="3"></rect>
        <linearGradient x1="50%" y1="0%" x2="50%" y2="100%" id="linearGradient-3">
            <stop stop-color="#FFFFFF" offset="0%"></stop>
            <stop stop-color="#DEDEDE" offset="65.223104%"></stop>
            <stop stop-color="#CDCCCC" offset="100%"></stop>
        </linearGradient>
        <rect id="path-4" x="19" y="0" width="15" height="7" rx="1"></rect>
        <rect id="path-5" x="6" y="4" width="12" height="19" rx="2"></rect>
        <linearGradient x1="50%" y1="0%" x2="50%" y2="100%" id="linearGradient-6">
            <stop stop-color="#E3E3E3" offset="0%"></stop>
            <stop stop-color="#D8D7D7" offset="100%"></stop>
        </linearGradient>
        <rect id="path-7" x="20" y="21" width="2" height="2"></rect>
        <rect id="path-8" x="20" y="25" width="2" height="2"></rect>
        <rect id="path-9" x="24" y="21" width="2" height="2"></rect>
        <rect id="path-10" x="24" y="25" width="2" height="2"></rect>
    </defs>
    <g id="Page-1" stroke="none" stroke-width="1" fill="none" fill-rule="evenodd">
        <g id="payment">
            <g id="Group" filter="url(#filter-1)" transform="translate(3.000000, 1.000000)">
                <g id="Rectangle-15">
                    <use fill="#FFCB00" fill-rule="evenodd" xlink:href="#path-2"></use>
                    <rect stroke="#9B9B9B" stroke-width="1" x="0.5" y="28.5" width="35" height="10" rx="3"></rect>
                </g>
                <polygon id="Path-9" stroke="#9B9B9B" fill="url(#linearGradient-3)" points="1 29.5810547 34.9287385 29.5810547 32.9849498 11.2203964 31.6117894 9.84210257 29.5623253 9.58105469 6.9369861 9.65703131 4.78964889 10.178153 3.75317209 12.0551652"></polygon>
                <g id="Rectangle">
                    <use fill="#7CBDDE" fill-rule="evenodd" xlink:href="#path-4"></use>
                    <rect stroke="#9B9B9B" stroke-width="1" x="19.5" y="0.5" width="14" height="6" rx="1"></rect>
                </g>
                <rect id="Rectangle" fill="#7CBDDE" x="19" y="12" width="12" height="7" rx="1"></rect>
                <g id="Rectangle-2">
                    <use fill="#FFFFFF" fill-rule="evenodd" xlink:href="#path-5"></use>
                    <rect stroke="#9B9B9B" stroke-width="1" x="6.5" y="4.5" width="11" height="18" rx="2"></rect>
                </g>
                <path d="M18,34.88 C18.84,34.88 19.44,34.28 19.44,33.44 C19.44,32.6 18.84,32 18,32 C17.16,32 16.56,32.6 16.56,33.44 C16.56,34.28 17.28,34.88 18,34.88 Z" id="Path" fill="#764D0B"></path>
                <path d="M14.16,10.84 L9.84,10.84 C9.36,10.84 8.88,11.32 8.88,11.8 C8.88,12.28 9.24,12.76 9.84,12.76 L14.16,12.76 C14.64,12.76 15.12,12.4 15.12,11.8 C15.12,11.2 14.64,10.84 14.16,10.84 Z" id="Path" fill="#9B9B9B"></path>
                <path d="M14.16,6.96 L9.84,6.96 C9.36,6.96 8.88,7.32 8.88,7.92 C8.88,8.52 9.24,8.88 9.84,8.88 L14.16,8.88 C14.64,8.88 15.12,8.52 15.12,7.92 C15.12,7.32 14.64,6.96 14.16,6.96 Z" id="Path" fill="#9B9B9B"></path>
                <path d="M14.16,14.72 L9.84,14.72 C9.36,14.72 8.88,15.08 8.88,15.68 C8.88,16.28 9.24,16.64 9.84,16.64 L14.16,16.64 C14.64,16.64 15.12,16.28 15.12,15.68 C15.12,15.08 14.64,14.72 14.16,14.72 Z" id="Path" fill="#9B9B9B"></path>
                <rect id="Rectangle-3" fill="url(#linearGradient-6)" x="5" y="19" width="14" height="5"></rect>
                <g id="Rectangle-21">
                    <use fill="#D8D8D8" fill-rule="evenodd" xlink:href="#path-7"></use>
                    <rect stroke="#979797" stroke-width="1" x="20.5" y="21.5" width="1" height="1"></rect>
                </g>
                <g id="Rectangle-21">
                    <use fill="#D8D8D8" fill-rule="evenodd" xlink:href="#path-8"></use>
                    <rect stroke="#979797" stroke-width="1" x="20.5" y="25.5" width="1" height="1"></rect>
                </g>
                <g id="Rectangle-21">
                    <use fill="#D8D8D8" fill-rule="evenodd" xlink:href="#path-9"></use>
                    <rect stroke="#979797" stroke-width="1" x="24.5" y="21.5" width="1" height="1"></rect>
                </g>
                <g id="Rectangle-21">
                    <use fill="#D8D8D8" fill-rule="evenodd" xlink:href="#path-10"></use>
                    <rect stroke="#979797" stroke-width="1" x="24.5" y="25.5" width="1" height="1"></rect>
                </g>
                <rect id="Path" fill="#40BC53" x="28" y="25" width="2" height="2"></rect>
                <rect id="Path" fill="#CA4245" x="28" y="21" width="2" height="2"></rect>
                <path d="M25,7.5 L25,8.5" id="Line" stroke="#9B9B9B" stroke-width="2" stroke-linecap="square"></path>
            </g>
        </g>
    </g>
</svg>