<?xml version="1.0" encoding="UTF-8"?>
<svg width="20px" height="20px" viewBox="0 0 20 20" version="1.1" xmlns="http://www.w3.org/2000/svg" xmlns:xlink="http://www.w3.org/1999/xlink">
    <!-- Generator: Sketch 58 (84663) - https://sketch.com -->
    <title>payment_plan_invoice_icon</title>
    <desc>Created with Sketch.</desc>
    <g id="payment_plan_invoice_icon" stroke="none" stroke-width="1" fill="none" fill-rule="evenodd">
        <rect id="Rectangle" fill="#40BC53" x="1" y="1" width="13" height="17" rx="1"></rect>
        <g id="currency-usd" transform="translate(3.000000, 4.000000)" fill="#FFFFFF" fill-rule="nonzero">
            <path d="M0,7.33333333 L2.47449318,7.33333333 C2.47449318,7.99333333 2.98798996,8.34289115 4.22020359,8.34289115 C5.45241722,8.34289115 6.00155723,7.99333333 6.00155723,7.33333333 C6.00155723,6.66111111 5.53807077,6.70618695 3.87496035,6.38229806 C2.27232667,6.05840917 0.440407186,5.36555556 0.440407186,3.66666667 C0.440407186,2.57277778 1.55166733,1.64388889 3.08626467,1.33222222 L3.08626467,0 L5.35414252,0 L5.35414252,1.33222222 C6.88873986,1.64388889 8,2.57277778 8,3.66666667 L5.8240909,3.66666667 C5.8240909,3.00666667 5.45241722,2.44444444 4.22020359,2.44444444 C2.98798996,2.44444444 2.47449318,3.00666667 2.47449318,3.66666667 C2.47449318,4.33888889 2.87649797,4.3720296 4.53960839,4.69591849 C6.14224206,5.01980738 8,5.63444444 8,7.33333333 C8,8.42722222 6.88873986,9.35611111 5.35414252,9.66777778 L5.35414252,11 L3.08626467,11 L3.08626467,9.66777778 C1.55166733,9.35611111 0,8.42722222 0,7.33333333 Z" id="Path"></path>
        </g>
    </g>
</svg>