<?xml version="1.0" encoding="UTF-8" standalone="no"?>
<svg width="42px" height="42px" viewBox="0 0 42 42" version="1.1" xmlns="http://www.w3.org/2000/svg" xmlns:xlink="http://www.w3.org/1999/xlink">
    <!-- Generator: Sketch 43.2 (39069) - http://www.bohemiancoding.com/sketch -->
    <title>request</title>
    <desc>Created with Sketch.</desc>
    <defs>
        <rect id="path-1" x="0" y="19.05" width="3.81395349" height="15.2"></rect>
    </defs>
    <g id="Iconsdeliverable-Copy" stroke="none" stroke-width="1" fill="none" fill-rule="evenodd">
        <g id="request">
            <g id="Request" transform="translate(0.000000, 1.000000)">
                <path d="M4.8046875,23.7603394 C4.8046875,23.7603394 5.98641827,22.8783632 6.63763854,22.4705566 C7.2888588,22.06275 7.39001305,21.9935471 8.07951036,21.7095825 C8.76900766,21.425618 8.78413505,21.3730374 9.6252044,21.2401489 C10.4662737,21.1072604 10.5203218,21.077785 11.4425588,21.1782227 C12.3647958,21.2786603 12.3547452,21.3217042 13.1796023,21.6272461 C14.0044595,21.9327879 13.8711432,21.9048749 14.6396314,22.3624756 C15.4081196,22.8200763 16.0428609,23.3321899 16.0428609,23.3321899 C16.0428609,23.3321899 17.1260342,24.3540824 17.9768407,24.9441284 C18.8276473,25.5341744 18.9402107,25.5780428 19.9366597,26.0325928 C20.9331087,26.4871427 22.1267033,26.8371704 22.1267033,26.8371704 C22.1267033,26.8371704 25.8022371,28.4802455 26.3410474,29.0011108 C26.8798577,29.5219762 27.3446923,30.7942507 27.2593852,31.3744873 C27.1740782,31.954724 26.8267824,32.2946563 26.6932515,32.5248779 C26.5597206,32.7550996 25.9600683,33.2065307 25.4325448,33.4054718 C24.9050213,33.6044129 24.9756952,33.6045513 24.2748456,33.6857056 C23.5739959,33.7668598 23.3519048,33.7278434 22.7233319,33.6857056 C22.094759,33.6435678 21.443123,33.498295 20.3889614,33.1186279 C19.3347998,32.7389608 19.5506925,32.8232636 18.3011688,32.3455353 C17.051645,31.867807 16.0473784,31.2695387 15.8270689,31.3744873 C15.6067595,31.4794359 18.1802255,33.0609222 19.1507767,33.4769653 C20.1213279,33.8930085 21.6382035,35.1676453 24.2431868,34.6918335 C26.8481701,34.2160217 27.4075526,33.4941997 27.9216592,32.9365601 C28.4357659,32.3789204 29.9117403,31.0304138 29.7059582,30.0900391 C29.500176,29.1496643 29.9741268,28.3776733 29.9741268,28.3776733 L34.8232763,25.7229614 C34.8232763,25.7229614 35.9730817,25.0867632 36.2421023,24.9854126 C36.511123,24.884062 36.7470771,24.8465762 37.0977627,24.8072876 C37.4484483,24.767999 37.299859,24.7586898 37.8320256,24.8072876 C38.3641921,24.8558854 38.4845356,24.8460277 38.8756018,24.9696411 C39.2666681,25.0932545 39.2649206,25.0962976 39.6270908,25.3029297 C39.989261,25.5095618 40.25532,25.7568237 40.25532,25.7568237 L40.8484568,26.4688599 L40.9702035,27.0234131 L40.9909214,27.7843872 C40.9909214,27.7843872 41.0039944,28.1112414 40.8640534,28.3776733 C40.7241124,28.6441053 40.4360195,29.0011108 40.4360195,29.0011108 C40.4360195,29.0011108 40.1536146,29.3736593 39.9114962,29.6180542 C39.6693778,29.8624491 40.2540996,29.4024595 39.3572345,30.0900391 C38.4603695,30.7776186 37.519395,31.4519531 37.519395,31.4519531 L33.8821255,34.1291626 L29.7059582,37.2954041 C29.7059582,37.2954041 26.6264155,38.5172161 25.9776696,38.6562744 C25.3289238,38.7953328 23.3839764,38.8420532 23.3839764,38.8420532 C23.3839764,38.8420532 22.1366032,38.9356144 21.033311,38.6562744 C19.9300188,38.3769345 19.9846391,38.3742195 18.9673419,37.9391357 C17.9500448,37.504052 17.3428853,37.3133148 16.8311881,37.0648621 C16.3194909,36.8164093 14.4186804,36.2599222 13.731187,36.0834351 C13.1096066,35.9238685 11.8375396,35.4808135 11.0638172,35.3595703 C10.2900949,35.2383271 9.07107986,35.0591161 7.72660792,35.0163086 C6.38213598,34.9735011 5.01884993,35.0369507 5.01884993,35.0369507 L4.8046875,23.7603394 Z" id="Path-3" fill="#A6AEB3"></path>
                <path d="M4.8046875,21.8603394 C4.8046875,21.8603394 5.98641827,20.9783632 6.63763854,20.5705566 C7.2888588,20.16275 7.39001305,20.0935471 8.07951036,19.8095825 C8.76900766,19.525618 8.78413505,19.4730374 9.6252044,19.3401489 C10.4662737,19.2072604 10.5203218,19.177785 11.4425588,19.2782227 C12.3647958,19.3786603 12.3547452,19.4217042 13.1796023,19.7272461 C14.0044595,20.0327879 13.8711432,20.0048749 14.6396314,20.4624756 C15.4081196,20.9200763 16.0428609,21.4321899 16.0428609,21.4321899 C16.0428609,21.4321899 17.1260342,22.4540824 17.9768407,23.0441284 C18.8276473,23.6341744 18.9402107,23.6780428 19.9366597,24.1325928 C20.9331087,24.5871427 22.1267033,24.9371704 22.1267033,24.9371704 C22.1267033,24.9371704 25.8022371,26.5802455 26.3410474,27.1011108 C26.8798577,27.6219762 27.3446923,28.8942507 27.2593852,29.4744873 C27.1740782,30.054724 26.8267824,30.3946563 26.6932515,30.6248779 C26.5597206,30.8550996 25.9600683,31.3065307 25.4325448,31.5054718 C24.9050213,31.7044129 24.9756952,31.7045513 24.2748456,31.7857056 C23.5739959,31.8668598 23.3519048,31.8278434 22.7233319,31.7857056 C22.094759,31.7435678 21.443123,31.598295 20.3889614,31.2186279 C19.3347998,30.8389608 19.5506925,30.9232636 18.3011688,30.4455353 C17.051645,29.967807 16.0473784,29.3695387 15.8270689,29.4744873 C15.6067595,29.5794359 18.1802255,31.1609222 19.1507767,31.5769653 C20.1213279,31.9930085 21.6382035,33.2676453 24.2431868,32.7918335 C26.8481701,32.3160217 27.4075526,31.5941997 27.9216592,31.0365601 C28.4357659,30.4789204 28.6339821,29.3809021 28.4281999,28.4405273 C28.2224178,27.5001526 27.9216592,27.1011108 27.9216592,27.1011108 L34.8232763,23.8229614 C34.8232763,23.8229614 35.9730817,23.1867632 36.2421023,23.0854126 C36.511123,22.984062 36.7470771,22.9465762 37.0977627,22.9072876 C37.4484483,22.867999 37.299859,22.8586898 37.8320256,22.9072876 C38.3641921,22.9558854 38.4845356,22.9460277 38.8756018,23.0696411 C39.2666681,23.1932545 39.2649206,23.1962976 39.6270908,23.4029297 C39.989261,23.6095618 40.25532,23.8568237 40.25532,23.8568237 L40.8484568,24.5688599 L40.9702035,25.1234131 L40.9909214,25.8843872 C40.9909214,25.8843872 41.0039944,26.2112414 40.8640534,26.4776733 C40.7241124,26.7441053 40.4360195,27.1011108 40.4360195,27.1011108 C40.4360195,27.1011108 40.1536146,27.4736593 39.9114962,27.7180542 C39.6693778,27.9624491 40.2540996,27.5024595 39.3572345,28.1900391 C38.4603695,28.8776186 37.519395,29.5519531 37.519395,29.5519531 L33.8821255,32.2291626 L29.7059582,35.3954041 C29.7059582,35.3954041 26.6264155,36.6172161 25.9776696,36.7562744 C25.3289238,36.8953328 23.3839764,36.9420532 23.3839764,36.9420532 C23.3839764,36.9420532 22.1366032,37.0356144 21.033311,36.7562744 C19.9300188,36.4769345 19.9846391,36.4742195 18.9673419,36.0391357 C17.9500448,35.604052 17.3428853,35.4133148 16.8311881,35.1648621 C16.3194909,34.9164093 14.4186804,34.3599222 13.731187,34.1834351 C13.1096066,34.0238685 11.8375396,33.5808135 11.0638172,33.4595703 C10.2900949,33.3383271 9.07107986,33.1591161 7.72660792,33.1163086 C6.38213598,33.0735011 5.01884993,33.1369507 5.01884993,33.1369507 L4.8046875,21.8603394 Z" id="Path-3" stroke="#6B88A5" stroke-width="0.75" fill="#E0E0E0"></path>
                <ellipse id="Oval-5" fill="#BDC3C7" cx="27.1744186" cy="12.825" rx="10.9651163" ry="10.925"></ellipse>
                <ellipse id="Oval-5" fill="#40BC53" cx="27.1744186" cy="10.925" rx="10.9651163" ry="10.925"></ellipse>
                <path d="M24.5718217,13.36 C24.5584883,14.1200038 24.7584863,14.7199978 25.1718217,15.16 C25.5851571,15.6000022 26.0984853,15.8799994 26.7118217,16 L26.7118217,11.82 C26.6451547,11.7933332 26.5551556,11.7633335 26.4418217,11.73 C26.3284878,11.6966665 26.2051557,11.6666668 26.0718217,11.64 C25.5784859,11.506666 25.0918241,11.3500009 24.6118217,11.17 C24.1318193,10.9899991 23.7018236,10.7500015 23.3218217,10.45 C22.9418198,10.1499985 22.6384895,9.7766689 22.4118217,9.33 C22.1851539,8.8833311 22.0718217,8.32667 22.0718217,7.66 C22.0718217,6.9799966 22.2018204,6.3800026 22.4618217,5.86 C22.721823,5.3399974 23.0651529,4.9033351 23.4918217,4.55 C23.9184905,4.1966649 24.4118189,3.9233343 24.9718217,3.73 C25.5318245,3.5366657 26.1118187,3.4200002 26.7118217,3.38 L26.7118217,1.84 L27.8918217,1.84 L27.8918217,3.38 C28.4918247,3.446667 29.0551524,3.5766657 29.5818217,3.77 C30.108491,3.9633343 30.5718197,4.2299983 30.9718217,4.57 C31.3718237,4.9100017 31.6984871,5.3333308 31.9518217,5.84 C32.2051563,6.3466692 32.3518215,6.9466632 32.3918217,7.64 L29.5518217,7.64 C29.5384883,7.106664 29.3718233,6.6533352 29.0518217,6.28 C28.7318201,5.9066648 28.3451573,5.72 27.8918217,5.72 L27.8918217,9.26 C28.0518225,9.3000002 28.2151542,9.3399998 28.3818217,9.38 C28.5484892,9.4200002 28.7251541,9.4666664 28.9118217,9.52 C29.8984933,9.786668 30.6584857,10.1166647 31.1918217,10.51 C31.7251577,10.9033353 32.1184871,11.3133312 32.3718217,11.74 C32.6251563,12.1666688 32.7751548,12.5933312 32.8218217,13.02 C32.8684886,13.4466688 32.8918217,13.826665 32.8918217,14.16 C32.8918217,14.4533348 32.8184891,14.8233311 32.6718217,15.27 C32.5251543,15.7166689 32.2618236,16.1533312 31.8818217,16.58 C31.5018198,17.0066688 30.9918249,17.386665 30.3518217,17.72 C29.7118185,18.053335 28.8918267,18.253333 27.8918217,18.32 L27.8918217,20.02 L26.7118217,20.02 L26.7118217,18.32 C25.2184809,18.2133328 24.0518259,17.7533374 23.2118217,16.94 C22.3718175,16.1266626 21.8851557,14.9333412 21.7518217,13.36 L24.5718217,13.36 Z M27.8918217,16 C28.1318229,15.9733332 28.3818204,15.9166671 28.6418217,15.83 C28.901823,15.7433329 29.135154,15.6200008 29.3418217,15.46 C29.5484894,15.2999992 29.7184877,15.1033345 29.8518217,14.87 C29.9851557,14.6366655 30.0518217,14.3600016 30.0518217,14.04 C30.0518217,13.5199974 29.88849,13.1300013 29.5618217,12.87 C29.2351534,12.6099987 28.6784923,12.3733344 27.8918217,12.16 L27.8918217,16 Z M26.7118217,5.72 C26.4851539,5.72 26.2651561,5.753333 26.0518217,5.82 C25.8384873,5.886667 25.6451559,5.9899993 25.4718217,6.13 C25.2984875,6.2700007 25.1618222,6.4433323 25.0618217,6.65 C24.9618212,6.8566677 24.9118217,7.0999986 24.9118217,7.38 C24.9118217,7.8200022 25.0518203,8.1599988 25.3318217,8.4 C25.6118231,8.6400012 26.0718185,8.8333326 26.7118217,8.98 L26.7118217,5.72 Z" id="$" fill="#FFFFFF"></path>
                <rect id="Rectangle" fill="#A6AEB3" x="0" y="20" width="3.81395349" height="16.15"></rect>
                <g id="Rectangle">
                    <use fill="#E0E0E0" fill-rule="evenodd" xlink:href="#path-1"></use>
                    <rect stroke="#6B88A5" stroke-width="0.75" x="0.375" y="19.425" width="3.06395349" height="14.45"></rect>
                </g>
            </g>
        </g>
    </g>
</svg>