<?xml version="1.0" encoding="UTF-8" standalone="no"?>
<svg width="42px" height="42px" viewBox="0 0 42 42" version="1.1" xmlns="http://www.w3.org/2000/svg" xmlns:xlink="http://www.w3.org/1999/xlink">
    <!-- Generator: Sketch 43.2 (39069) - http://www.bohemiancoding.com/sketch -->
    <title>share</title>
    <desc>Created with Sketch.</desc>
    <defs></defs>
    <g id="Iconsdeliverable-Copy" stroke="none" stroke-width="1" fill="none" fill-rule="evenodd">
        <g id="share" stroke-width="4">
            <g id="Group" transform="translate(2.000000, 3.000000)" stroke="#9B9B9B">
                <path d="M14,15 L22.5,10.5" id="Line" stroke-linecap="square"></path>
                <path d="M14,28 L22.5,23.5" id="Line" stroke-linecap="square" transform="translate(18.500000, 25.500000) scale(1, -1) translate(-18.500000, -25.500000) "></path>
                <path d="M0,18.4999415 C0,22.0898228 2.91017634,25 6.5,25 C10.0898237,25 13,22.0898228 13,18.4999415 C13,14.9100602 10.0898237,12 6.5,12 C2.91017634,12 0,14.9100602 0,18.4999415 Z" id="Path"></path>
                <path d="M30.4804078,0 C26.9014045,0 24,2.91017716 24,6.49994152 C24,10.0898228 26.9014045,13 30.4804078,13 C34.059411,13 36.9608155,10.0898228 36.9608155,6.49994152 C36.9608155,2.91017716 34.059411,0 30.4804078,0 Z" id="Path"></path>
                <path d="M30.4804078,24 C26.9014045,24 24,26.9100602 24,30.4999415 C24,34.0898228 26.9014045,37 30.4804078,37 C34.059411,37 36.9608155,34.0898228 36.9608155,30.4999415 C36.9608155,26.9100602 34.059411,24 30.4804078,24 Z" id="Path"></path>
            </g>
            <g id="Group" transform="translate(2.000000, 2.000000)">
                <path d="M14,15 L22.5,10.5" id="Line" stroke="#000000" stroke-linecap="square"></path>
                <path d="M14,28 L22.5,23.5" id="Line" stroke="#000000" stroke-linecap="square" transform="translate(18.500000, 25.500000) scale(1, -1) translate(-18.500000, -25.500000) "></path>
                <path d="M0,18.4999415 C0,22.0898228 2.91017634,25 6.5,25 C10.0898237,25 13,22.0898228 13,18.4999415 C13,14.9100602 10.0898237,12 6.5,12 C2.91017634,12 0,14.9100602 0,18.4999415 Z" id="Path" stroke="#338DC9"></path>
                <path d="M30.4804078,0 C26.9014045,0 24,2.91017716 24,6.49994152 C24,10.0898228 26.9014045,13 30.4804078,13 C34.059411,13 36.9608155,10.0898228 36.9608155,6.49994152 C36.9608155,2.91017716 34.059411,0 30.4804078,0 Z" id="Path" stroke="#FF7E00"></path>
                <path d="M30.4804078,24 C26.9014045,24 24,26.9100602 24,30.4999415 C24,34.0898228 26.9014045,37 30.4804078,37 C34.059411,37 36.9608155,34.0898228 36.9608155,30.4999415 C36.9608155,26.9100602 34.059411,24 30.4804078,24 Z" id="Path" stroke="#FFCB00"></path>
            </g>
        </g>
    </g>
</svg>