<?xml version="1.0" encoding="UTF-8" standalone="no"?>
<svg viewBox="0 0 42 42" version="1.1" xmlns="http://www.w3.org/2000/svg" xmlns:xlink="http://www.w3.org/1999/xlink">
    <!-- Generator: Sketch 43.2 (39069) - http://www.bohemiancoding.com/sketch -->
    <title>task</title>
    <desc>Created with Sketch.</desc>
    <defs>
        <filter x="-4.4%" y="-3.7%" width="108.8%" height="107.3%" filterUnits="objectBoundingBox" id="filter-1">
            <feOffset dx="0" dy="0" in="SourceAlpha" result="shadowOffsetOuter1"></feOffset>
            <feGaussianBlur stdDeviation="0.5" in="shadowOffsetOuter1" result="shadowBlurOuter1"></feGaussianBlur>
            <feColorMatrix values="0 0 0 0 0   0 0 0 0 0   0 0 0 0 0  0 0 0 0.5 0" type="matrix" in="shadowBlurOuter1" result="shadowMatrixOuter1"></feColorMatrix>
            <feMerge>
                <feMergeNode in="shadowMatrixOuter1"></feMergeNode>
                <feMergeNode in="SourceGraphic"></feMergeNode>
            </feMerge>
        </filter>
    </defs>
    <g id="Iconsdeliverable-Copy" stroke="none" stroke-width="1" fill="none" fill-rule="evenodd">
        <g id="task">
            <g id="Task" filter="url(#filter-1)" transform="translate(4.000000, 0.000000)">
                <path d="M3.74106563,4.46383648 C1.67487508,4.46383648 0,6.28812893 0,8.51781971 L0,36.8957023 C0,39.1253931 1.67487508,40.9496855 3.74106563,40.9496855 L14.9642625,40.9496855 L18.7053281,40.9496855 L29.928525,40.9496855 C31.9954638,40.9496855 33.6695906,39.1253931 33.6695906,36.8957023 L33.6695906,8.51781971 C33.6695906,6.28812893 31.9954638,4.46383648 29.928525,4.46383648 L18.7053281,4.46383648 L14.9642625,4.46383648 L3.74106563,4.46383648 Z" id="Shape" fill="#774E1C"></path>
                <path d="M3.74106563,4.46383648 C1.67487508,4.46383648 0,6.16517296 0,8.24458421 L0,34.7098183 C0,36.7892296 1.67487508,38.490566 3.74106563,38.490566 L14.9642625,38.490566 L18.7053281,38.490566 L29.928525,38.490566 C31.9954638,38.490566 33.6695906,36.7892296 33.6695906,34.7098183 L33.6695906,8.24458421 C33.6695906,6.16517296 31.9954638,4.46383648 29.928525,4.46383648 L18.7053281,4.46383648 L14.9642625,4.46383648 L3.74106563,4.46383648 Z" id="Shape" fill="#A96F29"></path>
                <path d="M5.87881741,6.89622642 C4.22586498,6.89622642 2.88596491,8.39372191 2.88596491,10.2410901 L2.88596491,33.6551363 C2.88596491,35.5031735 4.22586498,37 5.87881741,37 L14.8573749,37 L17.8502274,37 L26.8287849,37 C28.4823359,37 29.8216374,35.5031735 29.8216374,33.6551363 L29.8216374,10.2410901 C29.8216374,8.39372191 28.4823359,6.89622642 26.8287849,6.89622642 L17.8502274,6.89622642 L14.8573749,6.89622642 L5.87881741,6.89622642 Z" id="Shape" fill="#ECF0F1"></path>
                <path d="M16.8347953,-2.08490566 C15.8017,-2.08490566 14.9642625,-1.24722799 14.9642625,-0.213836478 L14.9642625,5.39937107 C14.9642625,6.43276258 15.8017,7.27044025 16.8347953,7.27044025 C17.8678906,7.27044025 18.7053281,6.43276258 18.7053281,5.39937107 L18.7053281,-0.213836478 C18.7053281,-1.24722799 17.8678906,-2.08490566 16.8347953,-2.08490566 Z" id="Shape" fill="#BDC3C7" transform="translate(16.834795, 2.592767) scale(1, -1) rotate(90.000000) translate(-16.834795, -2.592767) "></path>
                <rect id="Rectangle-2" fill="#BDC3C7" x="8.44411956" y="3.52830189" width="16.3538012" height="5.77358491"></rect>
                <rect id="Rectangle-2" fill="#959595" x="8.44411956" y="7.69811321" width="16.3538012" height="1.60377358"></rect>
                <rect id="Rectangle-2" stroke="#BDC3C7" stroke-width="2" x="8.48213125" y="15.4339623" width="16.7053281" height="16.9023731"></rect>
                <polygon id="Fill-19" fill="#C1392B" points="11.6501669 17.7683581 15.6989473 21.838618 27.6310222 9.90312161 31.7990578 14.071697 15.71926 30.1954318 7.48213125 21.9369335"></polygon>
            </g>
        </g>
    </g>
</svg>
