<?xml version="1.0" encoding="UTF-8"?>
<svg width="40px" height="28px" viewBox="0 0 40 28" version="1.1" xmlns="http://www.w3.org/2000/svg" xmlns:xlink="http://www.w3.org/1999/xlink">
    <!-- Generator: Sketch 52.4 (67378) - http://www.bohemiancoding.com/sketch -->
    <title>lead_archived</title>
    <desc>Created with Sketch.</desc>
    <defs>
        <filter x="0.0%" y="0.0%" width="100.0%" height="100.0%" filterUnits="objectBoundingBox" id="filter-1">
            <feOffset dx="0" dy="0" in="SourceAlpha" result="shadowOffsetOuter1"></feOffset>
            <feColorMatrix values="0 0 0 0 0   0 0 0 0 0   0 0 0 0 0  0 0 0 0.5 0" type="matrix" in="shadowOffsetOuter1" result="shadowMatrixOuter1"></feColorMatrix>
            <feMerge>
                <feMergeNode in="shadowMatrixOuter1"></feMergeNode>
                <feMergeNode in="SourceGraphic"></feMergeNode>
            </feMerge>
        </filter>
    </defs>
    <g id="lead_archived" stroke="none" stroke-width="1" fill="none" fill-rule="evenodd">
        <g id="Group-3" transform="translate(1.000000, 1.000000)">
            <g id="icon-/-document">
                <g id="Doc" transform="translate(19.000000, 13.000000) rotate(90.000000) translate(-19.000000, -13.000000) translate(6.000000, -6.000000)">
                    <path d="M2.85217674,0 C1.27691953,0 1.77635684e-14,1.84899161 1.77635684e-14,4.12997904 L1.77635684e-14,33.0398323 C1.77635684e-14,35.3216457 1.27691953,37.1698113 2.85217674,37.1698113 L11.408707,37.1698113 L14.2608837,37.1698113 L22.8174139,37.1698113 C24.3932416,37.1698113 25.6695906,35.3216457 25.6695906,33.0398323 L25.6695906,4.12997904 C25.6695906,1.84899161 24.3932416,0 22.8174139,0 L14.2608837,0 L11.408707,0 L2.85217674,0 Z" id="Shape" stroke="#C4C4C4" stroke-width="2" fill="#F7F7F9"></path>
                    <g id="Group" transform="translate(8.000000, 3.000000)" fill="#C4C4C4">
                        <polygon id="Shape" transform="translate(1.500000, 5.000000) rotate(90.000000) translate(-1.500000, -5.000000) " points="-3.5 3.5 -3.5 6.5 6.5 6.5 6.5 3.5"></polygon>
                        <polygon id="Shape" transform="translate(8.500000, 5.000000) rotate(90.000000) translate(-8.500000, -5.000000) " points="3.5 3.5 3.5 6.5 13.5 6.5 13.5 3.5"></polygon>
                    </g>
                </g>
            </g>
        </g>
        <g id="Add-Client" filter="url(#filter-1)" transform="translate(5.000000, 4.000000)">
            <g id="XMLID_6194_" transform="translate(0.000000, 8.321301)">
                <g id="XMLID_6197_" transform="translate(0.000000, 5.875687)">
                    <g id="XMLID_6204_" transform="translate(0.000000, 0.404714)">
                        <path d="M0,4.79635206 L0,3.87473241 C0.426089146,2.29960065 1.97705364,1.09311675 3.57914883,0.757982337 L6.987862,0.0374433412 L10.8226643,0.0374433412 L14.2313775,0.757982337 C15.8505162,1.10987347 17.3844372,2.29960065 17.8105263,3.87473241 L17.8105263,4.79635206 L0,4.79635206 Z" id="XMLID_6231_" fill="#C4C4C4"></path>
                        <path d="M0,3.81737551 L0.255653488,3.08534639 C0.681742634,1.83424208 1.97705364,0.875949421 3.57914883,0.609757014 L6.987862,0.0374433412 L10.8226643,0.0374433412 L14.2313775,0.609757014 C15.8505162,0.889259041 17.1287837,1.83424208 17.5548728,3.08534639 L17.8105263,3.81737551 L0,3.81737551 Z" id="XMLID_6231_" fill="#DDDDDD"></path>
                    </g>
                </g>
                <path d="M3.28160973,1.47683047 L3.28160973,3.33109222 C3.28160973,3.33109222 2.93985072,1.30260453 2.15507079,0.742592594 L2.15507079,0.369251302 C2.15507079,0.381696011 3.28160973,-0.103647668 3.28160973,1.47683047 Z" id="XMLID_6196_" fill="#C4C4C4"></path>
                <path d="M14.1419514,1.47683047 L14.1419514,3.33109222 C14.1419514,3.33109222 14.4583949,1.3897175 15.2178593,0.742592594 L15.2558326,0.207470075 C15.2684903,0.207470075 14.1419514,-0.103647668 14.1419514,1.47683047 Z" id="XMLID_6195_" fill="#C4C4C4"></path>
            </g>
            <g id="Head" transform="translate(1.484211, 0.406542)">
                <path d="M7.05036165,15.2447585 L7.61995999,15.2447585 C9.78443367,15.2447585 12.6577408,13.5149438 12.6577408,11.3993432 L12.6577408,4.85342587 C12.6577408,0.38577508 1.78474146,0.38577508 1.78474146,4.85342587 L1.78474146,11.3993432 C1.7973992,13.5149438 4.88588797,15.2447585 7.05036165,15.2447585 Z" id="XMLID_6223_" fill="#E9E9E9"></path>
                <path d="M12.6577408,9.39158941 C13.138735,8.50801502 13.7209911,8.68224095 13.7209911,8.68224095 C13.7209911,8.68224095 13.771622,8.32134437 13.8475685,7.57466179 C13.9235149,6.8279792 13.8981994,6.4421932 13.8981994,6.4421932 C14.0500923,6.59152972 14.2779317,6.97731572 14.2779317,6.97731572 C14.2779317,6.97731572 14.5817175,6.3177461 14.0121191,4.78704681 C13.4551785,3.25634751 12.1514312,3.1194557 11.3413358,2.18610247 C10.5312404,1.25274924 9.58190982,0.381619563 6.9744152,0.194948917 C4.36692059,0.00827827115 3.0378578,1.9620977 3.0378578,1.9620977 C3.0378578,1.9620977 2.40497076,2.04921067 1.32906279,3.2439028 C0.253154817,4.43859493 0.354416744,6.30530139 0.354416744,6.30530139 L0.620229301,5.94440481 C0.582256079,7.10176282 0.670860265,8.64490682 0.670860265,8.64490682 C1.50627116,8.68224095 1.7973992,9.36669999 1.7973992,9.36669999 L1.7973992,8.90624573 C1.88600339,4.78704681 4.45552478,4.27681371 4.45552478,4.27681371 C4.45552478,4.27681371 4.84791474,3.19412396 6.69594491,3.39323932 C8.54397507,3.59235467 9.39204371,4.78704681 9.39204371,4.78704681 L9.39204371,4.76215739 C9.39204371,4.76215739 10.3287165,5.57106352 10.8856571,6.59152972 C11.4425977,7.61199592 11.6071484,8.17200785 11.6071484,8.17200785 L11.7084103,6.34263552 C11.7084103,6.34263552 12.505848,7.32576759 12.6071099,7.99778192 C12.6957141,8.69468566 12.6577408,9.39158941 12.6577408,9.39158941 Z" id="XMLID_6202_" fill="#C4C4C4"></path>
            </g>
        </g>
    </g>
</svg>