<?xml version="1.0" encoding="UTF-8"?>
<svg width="16px" height="16px" viewBox="0 0 16 16" version="1.1" xmlns="http://www.w3.org/2000/svg" xmlns:xlink="http://www.w3.org/1999/xlink">
    <!-- Generator: Sketch 49.1 (51147) - http://www.bohemiancoding.com/sketch -->
    <title>sn_payment.svg</title>
    <desc>Created with Sketch.</desc>
    <defs></defs>
    <g id="sn_payment.svg" stroke="none" stroke-width="1" fill="none" fill-rule="evenodd">
        <g id="rate" transform="translate(2.000000, 0.000000)" fill="#757575" fill-rule="nonzero">
            <path d="M4.84479371,7.02222222 C2.83791749,6.49777778 2.19253438,5.95555556 2.19253438,5.11111111 C2.19253438,4.14222222 3.08546169,3.46666667 4.57956778,3.46666667 C6.15324165,3.46666667 6.7367387,4.22222222 6.78978389,5.33333333 L8.74361493,5.33333333 C8.68172888,3.80444444 7.75343811,2.4 5.90569745,1.94666667 L5.90569745,0 L3.25343811,0 L3.25343811,1.92 C1.53831041,2.29333333 0.15913556,3.41333333 0.15913556,5.12888889 C0.15913556,7.18222222 1.76367226,8.84319444 4.23027344,9.43875 C6.44048955,9.97208333 6.96660118,10.1155556 6.96660118,10.9422222 C6.96660118,11.5555556 6.53339882,12.5333333 4.57956778,12.5333333 C2.75834971,12.5333333 2.04223969,11.7155556 1.94499018,10.6666667 L0,10.6666667 C0.106090373,12.6133333 1.55599214,13.7066667 3.25343811,14.0711111 L3.25343811,16 L5.90569745,16 L5.90569745,14.0888889 C7.62966601,13.76 9,12.7555556 9,10.9333333 C9,8.40888889 6.85166994,7.54666667 4.84479371,7.02222222 Z" id="Shape"></path>
        </g>
        <path d="M7.84479371,7.02222222 C5.83791749,6.49777778 5.19253438,5.95555556 5.19253438,5.11111111 C5.19253438,4.14222222 6.08546169,3.46666667 7.57956778,3.46666667 C9.15324165,3.46666667 9.7367387,4.22222222 9.78978389,5.33333333 L11.7436149,5.33333333 C11.6817289,3.80444444 10.7534381,2.4 8.90569745,1.94666667 L8.90569745,0 L6.25343811,0 L6.25343811,1.92 C4.53831041,2.29333333 3.15913556,3.41333333 3.15913556,5.12888889 C3.15913556,7.18222222 4.84774067,8.20444444 7.31434185,8.8 C9.52455796,9.33333333 9.96660118,10.1155556 9.96660118,10.9422222 C9.96660118,11.5555556 9.53339882,12.5333333 7.57956778,12.5333333 C5.75834971,12.5333333 5.04223969,11.7155556 4.94499018,10.6666667 L3,10.6666667 C3.10609037,12.6133333 4.55599214,13.7066667 6.25343811,14.0711111 L6.25343811,16 L8.90569745,16 L8.90569745,14.0888889 C10.629666,13.76 12,12.7555556 12,10.9333333 C12,8.40888889 9.85166994,7.54666667 7.84479371,7.02222222 Z" id="Shape" fill="#757575" fill-rule="nonzero"></path>
        <path d="M9.07460938,6.54958333 C7.06773315,6.02513889 6.19253438,5.95555556 6.19253438,5.11111111 C6.19253438,4.14222222 7.08546169,3.46666667 8.57956778,3.46666667 C10.1532417,3.46666667 10.7367387,4.22222222 10.7897839,5.33333333 L12.7436149,5.33333333 C12.6817289,3.80444444 11.7534381,2.4 9.90569745,1.94666667 L9.90569745,0 L7.25343811,0 L7.25343811,1.92 C5.53831041,2.29333333 4.15913556,3.41333333 4.15913556,5.12888889 C4.15913556,7.18222222 5.84774067,8.20444444 8.31434185,8.8 C10.524558,9.33333333 10.9666012,10.1155556 10.9666012,10.9422222 C10.9666012,11.5555556 10.5333988,12.5333333 8.57956778,12.5333333 C6.75834971,12.5333333 6.04223969,11.7155556 5.94499018,10.6666667 L4,10.6666667 C4.10609037,12.6133333 5.55599214,13.7066667 7.25343811,14.0711111 L7.25343811,16 L9.90569745,16 L9.90569745,14.0888889 C11.629666,13.76 13,12.7555556 13,10.9333333 C13,8.40888889 11.0814856,7.07402778 9.07460938,6.54958333 Z" id="Shape" fill="#757575" fill-rule="nonzero"></path>
    </g>
</svg>