<?xml version="1.0" encoding="UTF-8"?>
<svg width="24px" height="24px" viewBox="0 0 24 24" version="1.1" xmlns="http://www.w3.org/2000/svg" xmlns:xlink="http://www.w3.org/1999/xlink">
    <!-- Generator: Sketch 49.1 (51147) - http://www.bohemiancoding.com/sketch -->
    <title>sn_calendar</title>
    <desc>Created with Sketch.</desc>
    <defs></defs>
    <g id="sn_calendar" stroke="none" stroke-width="1" fill="none" fill-rule="evenodd" fill-opacity="0.54">
        <g id="Menu-Calendar" fill="#000000">
            <g id="Calendar">
                <path d="M13,16 L11,16 L11,18 L13,18 L13,16 Z M17,16 L15,16 L15,18 L17,18 L17,16 Z M9,16 L7,16 L7,18 L9,18 L9,16 Z M13,13 L11,13 L11,15 L13,15 L13,13 Z M17,13 L15,13 L15,15 L17,15 L17,13 Z M9,13 L7,13 L7,15 L9,15 L9,13 Z M13,10 L11,10 L11,12 L13,12 L13,10 Z M17,10 L15,10 L15,12 L17,12 L17,10 Z M9,10 L7,10 L7,12 L9,12 L9,10 Z M16,2 L16,4 L8,4 L8,2 L6,2 L6,4 L5,4 C3.89,4 3.01,4.9 3.01,6 L3,20 C3,21.1 3.89,22 5,22 L19,22 C20.1,22 21,21.1 21,20 L21,6 C21,4.9 20.1,4 19,4 L18,4 L18,2 L16,2 Z M19,20 L5,20 L5,8 L19,8 L19,20 Z" id="Shape-Copy" fill-rule="nonzero"></path>
            </g>
        </g>
    </g>
</svg>