<?xml version="1.0" encoding="UTF-8"?>
<svg width="24px" height="24px" viewBox="0 0 24 24" version="1.1" xmlns="http://www.w3.org/2000/svg" xmlns:xlink="http://www.w3.org/1999/xlink">
    <!-- Generator: Sketch 49.1 (51147) - http://www.bohemiancoding.com/sketch -->
    <title>sn_case</title>
    <desc>Created with Sketch.</desc>
    <defs></defs>
    <g id="sn_case" stroke="none" stroke-width="1" fill="none" fill-rule="evenodd" fill-opacity="0.54">
        <g id="Case" fill="#000000">
            <g>
                <path d="M20,6 L17,6 L17,4 C17,2.9 16.1,2 15,2 L9,2 C7.9,2 7,2.9 7,4 L7,6 L4,6 C2.9,6 2,6.9 2,8 L2,19 C2,20.1 2.9,21 4,21 L20,21 C21.1,21 22,20.1 22,19 L22,8 C22,6.9 21.1,6 20,6 Z M9,4 L15,4 L15,6 L9,6 L9,4 Z M20,19 L4,19 L4,13 L10,13 L10,15 L14,15 L14,13 L20,13 L20,19 Z M20,11 L14,11 L10,11 L4,11 L4,8 L7,8 L9,8 L15,8 L17,8 L20,8 L20,11 Z" fill-rule="nonzero"></path>
            </g>
        </g>
    </g>
</svg>