<?xml version="1.0" encoding="UTF-8"?>
<svg width="27px" height="21px" viewBox="0 0 27 21" version="1.1" xmlns="http://www.w3.org/2000/svg" xmlns:xlink="http://www.w3.org/1999/xlink">
    <!-- Generator: Sketch 52.4 (67378) - http://www.bohemiancoding.com/sketch -->
    <title>activity_lead_deleted</title>
    <desc>Created with Sketch.</desc>
    <g id="activity_lead_deleted" stroke="none" stroke-width="1" fill="none" fill-rule="evenodd" fill-opacity="0.54">
        <g id="Material-Icon-/--License" transform="translate(-1.000000, -4.000000)" fill="#000000">
            <g id="License">
                <path d="M25.5763889,4.83333333 L3.42361111,4.83333333 C2.20520833,4.83333333 1.20833333,5.92083333 1.20833333,7.25 L1.20833333,21.75 C1.20833333,23.0791667 2.20520833,24.1666667 3.42361111,24.1666667 L25.5763889,24.1666667 C26.7947917,24.1666667 27.7916667,23.0791667 27.7916667,21.75 L27.7916667,7.25 C27.7916667,5.92083333 26.7947917,4.83333333 25.5763889,4.83333333 Z M25.375,21.75 L3.625,21.75 L3.625,7.25 L25.375,7.25 L25.375,21.75 Z" id="Shape" fill-rule="nonzero"></path>
                <rect id="Rectangle-path" fill-rule="nonzero" x="18.125" y="10.875" width="4.83333333" height="2.41666667"></rect>
                <rect id="Rectangle-path" fill-rule="nonzero" x="18.125" y="15.7083333" width="4.83333333" height="2.41666667"></rect>
                <circle id="Oval" fill-rule="nonzero" cx="10.875" cy="12.0833333" r="2.41666667"></circle>
                <path d="M10.875,15.7083333 C9.30416667,15.7083333 6.04166667,16.5541667 6.04166667,18.125 L6.04166667,19.3333333 L15.7083333,19.3333333 L15.7083333,18.125 C15.7083333,16.5541667 12.4458333,15.7083333 10.875,15.7083333 Z" id="Shape" fill-rule="nonzero"></path>
            </g>
        </g>
    </g>
</svg>