<?xml version="1.0" encoding="UTF-8" standalone="no"?>
<svg viewBox="0 0 42 42" version="1.1" xmlns="http://www.w3.org/2000/svg" xmlns:xlink="http://www.w3.org/1999/xlink">
    <!-- Generator: Sketch 43.2 (39069) - http://www.bohemiancoding.com/sketch -->
    <title>time_entry__inactive</title>
    <desc>Created with Sketch.</desc>
    <defs>
        <filter x="-4.1%" y="-3.8%" width="108.1%" height="107.7%" filterUnits="objectBoundingBox" id="filter-1">
            <feOffset dx="0" dy="0" in="SourceAlpha" result="shadowOffsetOuter1"></feOffset>
            <feGaussianBlur stdDeviation="0.5" in="shadowOffsetOuter1" result="shadowBlurOuter1"></feGaussianBlur>
            <feColorMatrix values="0 0 0 0 0   0 0 0 0 0   0 0 0 0 0  0 0 0 0.5 0" type="matrix" in="shadowBlurOuter1" result="shadowMatrixOuter1"></feColorMatrix>
            <feMerge>
                <feMergeNode in="shadowMatrixOuter1"></feMergeNode>
                <feMergeNode in="SourceGraphic"></feMergeNode>
            </feMerge>
        </filter>
    </defs>
    <g id="Iconsdeliverable-Copy" stroke="none" stroke-width="1" fill="none" fill-rule="evenodd">
        <g id="time_entry__inactive">
            <g id="Time-Entru" filter="url(#filter-1)" transform="translate(3.000000, 1.000000)">
                <g id="Time_Saving">
                    <path d="M36.8434005,19.3082012 C36.8434005,29.8602312 28.6097724,38.4145978 18.4540233,38.4145978 C8.29769958,38.4145978 0.0646461151,29.8602312 0.0646461151,19.3082012 C0.0646461151,8.75617116 8.29769958,0.201505956 18.4540233,0.201505956 C28.6097724,0.201505956 36.8434005,8.75617116 36.8434005,19.3082012 Z" id="Shape" fill="#BDC3C7"></path>
                    <path d="M18.2373904,36.2048192 C8.7559106,36.2048192 1.042154,28.5496889 1.042154,19.1403398 C1.042154,9.73129283 8.7559106,2.07646475 18.2373904,2.07646475 C27.7191747,2.07646475 35.4332359,9.73129283 35.4332359,19.1403398 C35.4332359,28.5496889 27.7191747,36.2048192 18.2373904,36.2048192 Z" id="Shape" fill="#F1F1F1"></path>
                    <polygon id="Shape" fill="#E4E4E4" transform="translate(13.971947, 23.205059) rotate(-14.000000) translate(-13.971947, -23.205059) " points="8.78242713 26.6837031 8.33723197 25.9167847 19.1610597 19.7264151 19.6066619 20.4939799"></polygon>
                    <path d="M18.4537199,0.141070329 C8.29784526,0.141070329 0.0646461151,8.31190757 0.0646461151,18.3901142 C0.0646461151,28.4686219 8.29784526,36.6388569 18.4537199,36.6388569 C28.6105048,36.6388569 36.8434005,28.4686219 36.8434005,18.3901142 C36.8434005,8.31190757 28.6105048,0.141070329 18.4537199,0.141070329 Z M29.3371018,29.1937668 C26.4485105,32.0602673 22.6082089,33.6388399 18.5232401,33.6388399 C14.4382713,33.6388399 10.5986272,32.0602673 7.70996284,29.1937668 C4.82166381,26.3278463 3.23063368,22.5165512 3.23063368,18.4628951 C3.23063368,14.409529 4.82159076,10.5985239 7.70996284,7.73260342 C10.5985541,4.86639293 14.4383444,3.28782034 18.5232401,3.28782034 C22.6081358,3.28782034 26.4484375,4.86632043 29.3371018,7.73260342 C32.2254008,10.5985239 33.8161387,14.409529 33.8161387,18.4628951 C33.8160657,22.5165512 32.2254008,26.3277738 29.3371018,29.1937668 Z" id="Shape" fill="#DCDCDC"></path>
                    <rect id="Rectangle-path" fill="#CACACA" x="18.1429086" y="8.71625241" width="1.2452176" height="9.87381333"></rect>
                    <path d="M18.5238245,4.75851583 C18.0977575,4.75851583 17.7513224,5.10230159 17.7513224,5.52482024 C17.7513224,5.9470489 18.0977575,6.29061716 18.5238245,6.29061716 C18.9495993,6.29061716 19.2957423,5.94712139 19.2957423,5.52482024 C19.2957423,5.10230159 18.9495993,4.75851583 18.5238245,4.75851583 Z" id="Shape" fill="#BFBFBF"></path>
                    <path d="M18.5238245,30.6354631 C18.0977575,30.6354631 17.7513224,30.9789589 17.7513224,31.4014775 C17.7513224,31.8239962 18.0977575,32.1674919 18.5238245,32.1674919 C18.9495993,32.1674919 19.2957423,31.8239962 19.2957423,31.4014775 C19.2957423,30.9789589 18.9495993,30.6354631 18.5238245,30.6354631 Z" id="Shape" fill="#BFBFBF"></path>
                    <path d="M12.0038009,6.49165426 C11.8693765,6.49165426 11.7358287,6.52703331 11.6185726,6.59474649 C11.4399488,6.69667875 11.3120995,6.86211931 11.258695,7.059749 C11.2055827,7.25745119 11.2327598,7.46356315 11.3360621,7.64089339 C11.4733358,7.87767202 11.7302033,8.02433558 12.005262,8.02433558 C12.1402709,8.02433558 12.2732342,7.98866654 12.3904903,7.92124335 C12.5691141,7.8190211 12.6966712,7.65416053 12.7503679,7.45653084 C12.8034802,7.25882865 12.7763031,7.0524267 12.6730008,6.87509646 C12.5357272,6.63860781 12.2789327,6.49165426 12.0038009,6.49165426 Z" id="Shape" fill="#BFBFBF"></path>
                    <path d="M25.0418757,28.9020347 C24.9074512,28.9020347 24.7741957,28.9377037 24.6566474,29.0048369 C24.2879299,29.2158062 24.1615417,29.6853761 24.3741369,30.0512738 C24.5117028,30.2874724 24.7682781,30.434426 25.043629,30.434426 C25.1783457,30.434426 25.311309,30.3990469 25.4286382,30.3316238 C25.6075542,30.2296915 25.7351113,30.0642509 25.788808,29.8666212 C25.8421394,29.6689191 25.814524,29.4625171 25.7111487,29.2849694 C25.5738019,29.0487707 25.3172266,28.9020347 25.0418757,28.9020347 Z" id="Shape" fill="#BFBFBF"></path>
                    <path d="M7.61842272,11.3303193 C7.50116662,11.2628961 7.36754581,11.227227 7.23319442,11.227227 C6.95755127,11.227227 6.70126815,11.3741806 6.56341004,11.6106692 C6.35081487,11.9765669 6.47720307,12.4460643 6.84592054,12.6573961 C6.96346886,12.7248193 7.09679745,12.7599084 7.23114884,12.7599084 C7.50679199,12.7599084 7.76307511,12.6134623 7.90093322,12.3770461 C8.11323616,12.0105685 7.98655574,11.5415786 7.61842272,11.3303193 Z" id="Shape" fill="#BFBFBF"></path>
                    <path d="M30.2012172,24.2692641 C30.0839611,24.201551 29.9503402,24.1664619 29.8159889,24.1664619 C29.5403457,24.1664619 29.2840626,24.3131255 29.1462045,24.5496141 C28.9339015,24.9152218 29.060582,25.3847917 29.4292994,25.596051 C29.5465555,25.6631842 29.6795919,25.6985632 29.8140163,25.6985632 C30.0896595,25.6985632 30.3465271,25.5518997 30.4838007,25.315701 C30.587103,25.1384433 30.614207,24.9316788 30.5608756,24.7340491 C30.5076903,24.5362745 30.3798409,24.3711964 30.2012172,24.2692641 Z" id="Shape" fill="#BFBFBF"></path>
                    <path d="M5.48516531,17.6970982 C5.05939051,17.6970982 4.71324758,18.040594 4.71324758,18.4628951 C4.71324758,18.8854138 5.05939051,19.2291995 5.48516531,19.2291995 C5.91064789,19.2291995 6.25708305,18.8854138 6.25708305,18.4628951 C6.2571561,18.0406665 5.91072094,17.6970982 5.48516531,17.6970982 Z" id="Shape" fill="#BFBFBF"></path>
                    <path d="M31.5621916,17.6970982 C31.1364168,17.6970982 30.7899816,18.040594 30.7899816,18.4628951 C30.7899816,18.8854138 31.1364168,19.2291995 31.5621916,19.2291995 C31.9876741,19.2291995 32.3341093,18.8854138 32.3341093,18.4628951 C32.3341093,18.0406665 31.9876741,17.6970982 31.5621916,17.6970982 Z" id="Shape" fill="#BFBFBF"></path>
                    <path d="M7.23114884,24.1664619 C7.0967244,24.1664619 6.96346886,24.201551 6.84592054,24.2686841 C6.47778752,24.4799435 6.35081487,24.9498033 6.56341004,25.315121 C6.70097592,25.5518997 6.95755127,25.6985632 7.23260997,25.6985632 L7.23319442,25.6985632 C7.36761886,25.6985632 7.50058217,25.6631842 7.61791133,25.596051 C7.9866288,25.3847917 8.11330922,24.9152218 7.90100627,24.5496141 C7.76307511,24.3125455 7.50649977,24.1664619 7.23114884,24.1664619 Z" id="Shape" fill="#BFBFBF"></path>
                    <path d="M29.8139433,11.227227 C29.6795188,11.227227 29.5465555,11.2628961 29.4292264,11.3303193 C29.2506026,11.4328315 29.1227533,11.5979096 29.0693488,11.7953218 C29.0162365,11.9935314 29.0434136,12.1997159 29.1461314,12.3769736 C29.2839895,12.6134623 29.5402727,12.7598359 29.8159158,12.7598359 C29.9503402,12.7598359 30.083888,12.7247468 30.2011441,12.6573236 C30.5692771,12.4454843 30.6959575,11.9764944 30.4836546,11.6105967 C30.3458695,11.3742531 30.0896595,11.227227 29.8139433,11.227227 Z" id="Shape" fill="#BFBFBF"></path>
                    <path d="M12.3904903,29.0048369 C12.2732342,28.9377037 12.1396134,28.9020347 12.005262,28.9020347 C11.7296189,28.9020347 11.4733358,29.0486982 11.3360621,29.2848969 C11.2327598,29.4624446 11.2056558,29.6689191 11.258695,29.8665487 C11.3120264,30.0642509 11.4398758,30.229619 11.6185726,30.3315513 C11.7358287,30.3989744 11.8688651,30.4343535 12.0038009,30.4343535 C12.2789327,30.4343535 12.5357272,30.2873999 12.6730008,30.0512013 C12.8858882,29.6853761 12.7592078,29.2158062 12.3904903,29.0048369 Z" id="Shape" fill="#BFBFBF"></path>
                    <path d="M25.4285651,6.59474649 C25.311309,6.52703331 25.1776882,6.49165426 25.043556,6.49165426 C24.768132,6.49165426 24.5116297,6.63831782 24.3740638,6.87451648 C24.2710538,7.05177421 24.2436575,7.25824867 24.2972812,7.45645834 C24.3503934,7.65416053 24.4779505,7.8189486 24.6565743,7.92117086 C24.7741226,7.98859404 24.907159,8.02426309 25.0418026,8.02426309 C25.3172266,8.02426309 25.5737289,7.87759953 25.7110025,7.64082089 C25.923963,7.27528571 25.7972826,6.80600582 25.4285651,6.59474649 Z" id="Shape" fill="#BFBFBF"></path>
                    <path d="M19.8428644,18.4628951 C19.8428644,19.1862082 19.2524196,19.7724274 18.5232401,19.7724274 C17.794645,19.7724274 17.2039081,19.1862082 17.2039081,18.4628951 C17.2039081,17.740162 17.794645,17.1539428 18.5232401,17.1539428 C19.2524196,17.1539428 19.8428644,17.740162 19.8428644,18.4628951 Z" id="Shape" fill="#BFBFBF"></path>
                    <rect id="Rectangle-path" fill="#CACACA" transform="translate(23.773602, 18.317501) rotate(90.000000) translate(-23.773602, -18.317501) " x="23.1035293" y="14.3597747" width="1.34014452" height="7.91545291"></rect>
                </g>
            </g>
        </g>
    </g>
</svg>
