<?xml version="1.0" encoding="UTF-8" standalone="no"?>
<svg width="42px" height="42px" viewBox="0 0 42 42" version="1.1" xmlns="http://www.w3.org/2000/svg" xmlns:xlink="http://www.w3.org/1999/xlink">
    <!-- Generator: Sketch 43.2 (39069) - http://www.bohemiancoding.com/sketch -->
    <title>credit__inactive</title>
    <desc>Created with Sketch.</desc>
    <defs></defs>
    <g id="Iconsdeliverable-Copy" stroke="none" stroke-width="1" fill="none" fill-rule="evenodd">
        <g id="credit__inactive">
            <g id="Credit" transform="translate(1.000000, 4.000000)">
                <path d="M3.74106563,5 C1.67487508,5 0,6.73553459 0,8.85674354 L0,23.8539483 C0,25.9751572 1.67487508,27.7106918 3.74106563,27.7106918 L27.928525,36.7106918 C29.9954638,36.7106918 31.6695906,34.9751572 31.6695906,32.8539483 L31.6695906,16.8567435 C31.6695906,14.7355346 28.9954638,10 26.928525,10 L3.74106563,5 Z" id="Shape" fill="#BDC3C7"></path>
                <path d="M7.9002849,2 C5.74615755,2 4,3.06950556 4,4.38888889 L4,21.1111111 C4,22.4309722 5.74615755,23.5 7.9002849,23.5 L19.6011396,23.5 L25.3988604,23.5 L37.0997151,23.5 C39.2546225,23.5 41,22.4309722 41,21.1111111 L41,4.38888889 C41,3.06950556 39.2546225,2 37.0997151,2 L25.3988604,2 L19.6011396,2 L7.9002849,2 Z" id="Shape" fill="#BDC3C7"></path>
                <path d="M7.00569801,0 C4.793351,0 3,1.06950556 3,2.38888889 L3,19.1111111 C3,20.4309722 4.793351,21.5 7.00569801,21.5 L19.022792,21.5 L24.977208,21.5 L36.994302,21.5 C39.2074501,21.5 41,20.4309722 41,19.1111111 L41,2.38888889 C41,1.06950556 39.2074501,0 36.994302,0 L24.977208,0 L19.022792,0 L7.00569801,0 Z" id="Shape" fill="#D0D0D0"></path>
                <rect id="Rectangle-8" fill="#E4E4E4" x="19" y="3" width="19" height="9" rx="2"></rect>
                <rect id="Rectangle-8" fill="#D0D0D0" x="19" y="6" width="19" height="9" rx="2"></rect>
                <rect id="Rectangle-8" fill="#B3B3B3" x="19" y="10" width="19" height="9" rx="2"></rect>
                <path d="M3.74106563,2 C1.67487508,2 0,3.87392114 0,6.1642692 L3.74106563,22.1516113 C3.74106563,24.4419594 13.578829,23.7370605 15.6450195,23.7370605 L24.7165527,26.3359375 C26.7834915,26.3359375 31.6695906,30.6262856 31.6695906,28.3359375 L31.6695906,14.642692 C31.6695906,12.3523439 29.9954638,10.4784228 27.928525,10.4784228 L3.74106563,2 Z" id="Shape" fill="#FFFFFF"></path>
                <path d="M3.74106563,3 C1.67487508,3 0,4.73553459 0,6.85674354 L0,21.8539483 C0,23.9751572 1.67487508,25.7106918 3.74106563,25.7106918 C3.74106563,25.7106918 8.92022629,27.6884173 11.5098066,28.6772801 C17.6493794,31.0217507 27.928525,34.7106918 27.928525,34.7106918 C29.9954638,34.7106918 31.6695906,32.9751572 31.6695906,30.8539483 L31.6695906,15.8567435 C31.6695906,13.7355346 29.9954638,12 27.928525,12 L3.74106563,3 Z" id="Shape" fill="#EFEFEF"></path>
                <path d="M25,26 C26.6568542,26 28,24.6568542 28,23 C28,21.3431458 26.6568542,19 25,19 C23.3431458,19 22,20.3431458 22,22 C22,23.6568542 23.3431458,26 25,26 Z" id="Oval-2" fill="#D3D3D3"></path>
            </g>
        </g>
    </g>
</svg>