<?xml version="1.0" encoding="UTF-8"?>
<svg width="256px" height="256px" viewBox="0 0 256 256" version="1.1" xmlns="http://www.w3.org/2000/svg" xmlns:xlink="http://www.w3.org/1999/xlink">
    <!-- Generator: Sketch 49.1 (51147) - http://www.bohemiancoding.com/sketch -->
    <title>default_avatar_256.png</title>
    <desc>Created with Sketch.</desc>
    <defs></defs>
    <g id="default_avatar_256.png" stroke="none" stroke-width="1" fill="none" fill-rule="evenodd" fill-opacity="0.54">
        <g id="Staff-" transform="translate(10.000000, 10.000000)" fill="#000000">
            <g>
                <path d="M118,19.6666667 C63.9166667,19.6666667 19.6666667,63.9166667 19.6666667,118 C19.6666667,172.083333 63.9166667,216.333333 118,216.333333 C172.083333,216.333333 216.333333,172.083333 216.333333,118 C216.333333,63.9166667 172.083333,19.6666667 118,19.6666667 Z M177,170.116667 L177,167.166667 C177,152.416667 154.383333,142.583333 134.716667,138.65 L118,167.166667 L101.283333,138.65 C81.6166667,142.583333 59,152.416667 59,167.166667 L59,170.116667 C47.2,156.35 39.3333333,137.666667 39.3333333,118 C39.3333333,74.7333333 74.7333333,39.3333333 118,39.3333333 C161.266667,39.3333333 196.666667,74.7333333 196.666667,118 C196.666667,137.666667 188.8,156.35 177,170.116667 Z" id="Shape" fill-rule="nonzero"></path>
                <circle id="Oval" fill-rule="nonzero" cx="118" cy="88.5" r="29.5"></circle>
            </g>
        </g>
    </g>
</svg>