<?xml version="1.0" encoding="UTF-8" standalone="no"?>
<svg width="42px" height="42px" viewBox="0 0 42 42" version="1.1" xmlns="http://www.w3.org/2000/svg" xmlns:xlink="http://www.w3.org/1999/xlink">
    <!-- Generator: Sketch 43.2 (39069) - http://www.bohemiancoding.com/sketch -->
    <title>exisiting_contacts</title>
    <desc>Created with Sketch.</desc>
    <defs>
        <filter x="-8.3%" y="-7.1%" width="116.7%" height="114.3%" filterUnits="objectBoundingBox" id="filter-1">
            <feOffset dx="0" dy="0" in="SourceAlpha" result="shadowOffsetOuter1"></feOffset>
            <feGaussianBlur stdDeviation="0.5" in="shadowOffsetOuter1" result="shadowBlurOuter1"></feGaussianBlur>
            <feColorMatrix values="0 0 0 0 0   0 0 0 0 0   0 0 0 0 0  0 0 0 0.5 0" type="matrix" in="shadowBlurOuter1" result="shadowMatrixOuter1"></feColorMatrix>
            <feMerge>
                <feMergeNode in="shadowMatrixOuter1"></feMergeNode>
                <feMergeNode in="SourceGraphic"></feMergeNode>
            </feMerge>
        </filter>
    </defs>
    <g id="Iconsdeliverable-Copy" stroke="none" stroke-width="1" fill="none" fill-rule="evenodd">
        <g id="exisiting_contacts">
            <g id="1494916837_address-book-alt" transform="translate(3.000000, 1.000000)" fill-rule="nonzero">
                <g id="Group" transform="translate(3.400000, 0.008000)">
                    <path d="M3.4,0.672 C1.52218,0.672 0,2.184 0,4.032 L0,5.712 L0,17.472 L0,19.152 L0,24.192 L0,25.872 L0,34.272 L0,35.952 C0,37.8 1.52218,39.312 3.4,39.312 L27.2,39.312 C29.0785,39.312 30.6,37.8 30.6,35.952 L30.6,34.272 L30.6,25.872 L30.6,19.152 L30.6,12.432 L30.6,10.752 L30.6,5.712 L30.6,4.032 C30.6,2.184 29.0785,0.672 27.2,0.672 L20.4,0.672 L3.4,0.672 Z" id="Shape" fill="#A04A15"></path>
                    <path d="M5.1,0.672 C3.22218,0.672 1.7,2.184 1.7,4.032 L1.7,17.472 L1.7,24.192 L1.7,34.272 C1.7,36.12 3.22218,37.632 5.1,37.632 L18.7,37.632 L25.5,37.632 C27.3785,37.632 28.9,36.12 28.9,34.272 L28.9,24.192 L28.9,17.472 L28.9,10.752 L28.9,4.032 C28.9,2.184 27.3785,0.672 25.5,0.672 L18.7,0.672 L5.1,0.672 Z" id="Shape" fill="#ECF0F1"></path>
                    <path d="M20.4,24.192 L20.4,25.872 L20.4,27.552 L20.4,29.232 L20.4,35.952 L27.2,35.952 C29.0785,35.952 30.6,34.44 30.6,32.592 L30.6,29.232 L30.6,25.872 L30.6,24.192 L20.4,24.192 Z" id="Shape" fill="#40BC53"></path>
                    <path d="M20.4,15.792 L20.4,17.472 L20.4,19.152 L20.4,20.832 L20.4,27.552 L27.2,27.552 C29.0785,27.552 30.6,26.04 30.6,24.192 L30.6,20.832 L30.6,17.472 L30.6,15.792 L20.4,15.792 Z" id="Shape" fill="#CA4245"></path>
                    <path d="M20.4,7.392 L20.4,9.072 L20.4,10.752 L20.4,12.432 L20.4,19.152 L27.2,19.152 C29.0785,19.152 30.6,17.64 30.6,15.792 L30.6,12.432 L30.6,9.072 L30.6,7.392 L20.4,7.392 Z" id="Shape" fill="#FFCB00"></path>
                    <path d="M20.4,0.672 L20.4,4.032 L27.2,4.032 L27.2,7.392 L27.2,10.752 C29.0785,10.752 30.6,9.247728 30.6,7.392 L30.6,4.032 C30.6,2.176272 29.0785,0.672 27.2,0.672 L20.4,0.672 Z" id="Shape" fill="#FF7E00"></path>
                    <path d="M3.4,0.672 C1.52218,0.672 0,2.184 0,4.032 L0,17.472 L0,24.192 L0,32.592 L1.7,32.592 L1.7,34.272 L1.7,39.312 C1.7,37.464 3.22218,35.952 5.1,35.952 L18.7,35.952 L20.4,35.952 L22.5777,35.952 L23.8,35.952 L24.2777,35.952 C25.5357,35.952 26.6118,35.28 27.2,34.272 L27.2,32.592 L27.2,24.192 L27.2,17.472 L27.2,10.752 L27.2,4.032 C27.2,2.184 25.6785,0.672 23.8,0.672 L17,0.672 L3.4,0.672 Z" id="Shape" fill="#C06C26"></path>
                </g>
                <g id="Group" transform="translate(1.700000, 0.008000)">
                    <path d="M0,5.712 L0,7.392 L3.4,7.392 L3.4,5.712 L0,5.712 Z M0,10.752 L0,12.432 L3.4,12.432 L3.4,10.752 L0,10.752 Z M0,15.792 L0,17.472 L3.4,17.472 L3.4,15.792 L0,15.792 Z M0,20.832 L0,22.512 L3.4,22.512 L3.4,20.832 L0,20.832 Z M0,25.872 L0,27.552 L3.4,27.552 L3.4,25.872 L0,25.872 Z M0,30.912 L0,32.592 L3.4,32.592 L3.4,30.912 L0,30.912 Z" id="Shape" fill="#95A5A6"></path>
                    <path d="M5.1,0.672 C3.22218,0.672 1.7,2.184 1.7,4.032 L1.7,5.712 L1.7,17.472 L1.7,19.152 L1.7,24.192 L1.7,25.872 L1.7,34.272 L1.7,35.952 C1.7,37.8 3.22218,39.312 5.1,39.312 L6.8,39.312 C4.92218,39.312 3.4,37.8 3.4,35.952 L3.4,34.272 L3.4,25.872 L3.4,24.192 L3.4,19.152 L3.4,17.472 L3.4,5.712 L3.4,4.032 C3.4,2.184 4.92218,0.672 6.8,0.672 L5.1,0.672 Z" id="Shape" fill="#8B572A"></path>
                    <path d="M1.7,5.712 L1.7,7.392 L3.4,7.392 L3.4,5.712 L1.7,5.712 Z M1.7,10.752 L1.7,12.432 L3.4,12.432 L3.4,10.752 L1.7,10.752 Z M1.7,15.792 L1.7,17.472 L3.4,17.472 L3.4,15.792 L1.7,15.792 Z M1.7,20.832 L1.7,22.512 L3.4,22.512 L3.4,20.832 L1.7,20.832 Z M1.7,25.872 L1.7,27.552 L3.4,27.552 L3.4,25.872 L1.7,25.872 Z M1.7,30.912 L1.7,32.592 L3.4,32.592 L3.4,30.912 L1.7,30.912 Z" id="Shape" fill="#34495E"></path>
                </g>
                <g id="Group" transform="translate(0.000000, 3.368000)" fill="#BDC3C7">
                    <path d="M1.7,0.672 L1.7,2.352 L3.4,2.352 L3.4,0.672 L1.7,0.672 Z M1.7,5.712 L1.7,7.392 L3.4,7.392 L3.4,5.712 L1.7,5.712 Z M1.7,10.752 L1.7,12.432 L3.4,12.432 L3.4,10.752 L1.7,10.752 Z M1.7,15.792 L1.7,17.472 L3.4,17.472 L3.4,15.792 L1.7,15.792 Z M1.7,20.832 L1.7,22.512 L3.4,22.512 L3.4,20.832 L1.7,20.832 Z M1.7,25.872 L1.7,27.552 L3.4,27.552 L3.4,25.872 L1.7,25.872 Z" id="Shape"></path>
                    <path d="M1.7,0.672 C0.76109,0.672 0,1.344 0,2.352 C0,3.192 0.76109,4.032 1.7,4.032 L1.7,0.672 Z" id="Shape"></path>
                    <path d="M1.7,5.712 C0.76109,5.712 0,6.384 0,7.392 C0,8.232 0.76109,9.072 1.7,9.072 L1.7,5.712 Z" id="Shape"></path>
                    <path d="M1.7,10.752 C0.76109,10.752 0,11.424 0,12.432 C0,13.272 0.76109,14.112 1.7,14.112 L1.7,10.752 Z" id="Shape"></path>
                    <path d="M1.7,15.792 C0.76109,15.792 0,16.464 0,17.472 C0,18.312 0.76109,19.152 1.7,19.152 L1.7,15.792 Z" id="Shape"></path>
                    <path d="M1.7,20.832 C0.76109,20.832 0,21.504 0,22.512 C0,23.352 0.76109,24.192 1.7,24.192 L1.7,20.832 Z" id="Shape"></path>
                    <path d="M1.7,25.872 C0.76109,25.872 0,26.544 0,27.552 C0,28.392 0.76109,29.232 1.7,29.232 L1.7,25.872 Z" id="Shape"></path>
                </g>
                <path d="M3.4,4.04 L3.4,5.72 L5.1,5.72 L5.1,4.04 L3.4,4.04 Z M3.4,9.08 L3.4,10.76 L5.1,10.76 L5.1,9.08 L3.4,9.08 Z M3.4,14.12 L3.4,15.8 L5.1,15.8 L5.1,14.12 L3.4,14.12 Z M3.4,19.16 L3.4,20.84 L5.1,20.84 L5.1,19.16 L3.4,19.16 Z M3.4,24.2 L3.4,25.88 L5.1,25.88 L5.1,24.2 L3.4,24.2 Z M3.4,29.24 L3.4,30.92 L5.1,30.92 L5.1,29.24 L3.4,29.24 Z" id="Shape" fill="#95A5A6"></path>
            </g>
            <g id="Add-Client" filter="url(#filter-1)" transform="translate(12.000000, 9.000000)">
                <g id="XMLID_6194_" transform="translate(0.000000, 8.321301)">
                    <g id="XMLID_6197_" transform="translate(0.000000, 4.875687)">
                        <g id="XMLID_6204_" transform="translate(0.000000, 1.404714)">
                            <path d="M0,4.79635206 L0,3.87473241 C0.426089146,2.29960065 1.97705364,1.09311675 3.57914883,0.757982337 L6.987862,0.0374433412 L10.8226643,0.0374433412 L14.2313775,0.757982337 C15.8505162,1.10987347 17.3844372,2.29960065 17.8105263,3.87473241 L17.8105263,4.79635206 L0,4.79635206 Z" id="XMLID_6231_" fill="#38862A"></path>
                            <path d="M0,3.81737551 L0.255653488,3.08534639 C0.681742634,1.83424208 1.97705364,0.875949421 3.57914883,0.609757014 L6.987862,0.0374433412 L10.8226643,0.0374433412 L14.2313775,0.609757014 C15.8505162,0.889259041 17.1287837,1.83424208 17.5548728,3.08534639 L17.8105263,3.81737551 L0,3.81737551 Z" id="XMLID_6231_" fill="#4CA93B"></path>
                        </g>
                    </g>
                    <path d="M3.28160973,1.47683047 L3.28160973,3.33109222 C3.28160973,3.33109222 2.93985072,1.30260453 2.15507079,0.742592594 L2.15507079,0.369251302 C2.15507079,0.381696011 3.28160973,-0.103647668 3.28160973,1.47683047 Z" id="XMLID_6196_" fill="#643D3C"></path>
                    <path d="M14.1419514,1.47683047 L14.1419514,3.33109222 C14.1419514,3.33109222 14.4583949,1.3897175 15.2178593,0.742592594 L15.2558326,0.207470075 C15.2684903,0.207470075 14.1419514,-0.103647668 14.1419514,1.47683047 Z" id="XMLID_6195_" fill="#643D3C"></path>
                </g>
                <g id="Head" transform="translate(1.484211, 0.406542)">
                    <path d="M7.05036165,15.2447585 L7.61995999,15.2447585 C9.78443367,15.2447585 12.6577408,13.5149438 12.6577408,11.3993432 L12.6577408,4.85342587 C12.6577408,0.38577508 1.78474146,0.38577508 1.78474146,4.85342587 L1.78474146,11.3993432 C1.7973992,13.5149438 4.88588797,15.2447585 7.05036165,15.2447585 Z" id="XMLID_6223_" fill="#EBA339"></path>
                    <path d="M12.6577408,9.39158941 C13.138735,8.50801502 13.7209911,8.68224095 13.7209911,8.68224095 C13.7209911,8.68224095 13.771622,8.32134437 13.8475685,7.57466179 C13.9235149,6.8279792 13.8981994,6.4421932 13.8981994,6.4421932 C14.0500923,6.59152972 14.2779317,6.97731572 14.2779317,6.97731572 C14.2779317,6.97731572 14.5817175,6.3177461 14.0121191,4.78704681 C13.4551785,3.25634751 12.1514312,3.1194557 11.3413358,2.18610247 C10.5312404,1.25274924 9.58190982,0.381619563 6.9744152,0.194948917 C4.36692059,0.00827827115 3.0378578,1.9620977 3.0378578,1.9620977 C3.0378578,1.9620977 2.40497076,2.04921067 1.32906279,3.2439028 C0.253154817,4.43859493 0.354416744,6.30530139 0.354416744,6.30530139 L0.620229301,5.94440481 C0.582256079,7.10176282 0.670860265,8.64490682 0.670860265,8.64490682 C1.50627116,8.68224095 1.7973992,9.36669999 1.7973992,9.36669999 L1.7973992,8.90624573 C1.88600339,4.78704681 4.45552478,4.27681371 4.45552478,4.27681371 C4.45552478,4.27681371 4.84791474,3.19412396 6.69594491,3.39323932 C8.54397507,3.59235467 9.39204371,4.78704681 9.39204371,4.78704681 L9.39204371,4.76215739 C9.39204371,4.76215739 10.3287165,5.57106352 10.8856571,6.59152972 C11.4425977,7.61199592 11.6071484,8.17200785 11.6071484,8.17200785 L11.7084103,6.34263552 C11.7084103,6.34263552 12.505848,7.32576759 12.6071099,7.99778192 C12.6957141,8.69468566 12.6577408,9.39158941 12.6577408,9.39158941 Z" id="XMLID_6202_" fill="#643D3C"></path>
                </g>
            </g>
        </g>
    </g>
</svg>