<?xml version="1.0" encoding="UTF-8"?>
<svg width="40px" height="40px" viewBox="0 0 40 40" version="1.1" xmlns="http://www.w3.org/2000/svg" xmlns:xlink="http://www.w3.org/1999/xlink">
    <!-- Generator: Sketch 51.3 (57544) - http://www.bohemiancoding.com/sketch -->
    <title>Artboard</title>
    <desc>Created with Sketch.</desc>
    <defs></defs>
    <g id="Artboard" stroke="none" stroke-width="1" fill="none" fill-rule="evenodd">
        <g id="Group-2">
            <g id="icon-/-existing-contacts">
                <rect id="Rectangle-2" x="0" y="0" width="40" height="40"></rect>
                <g id="1494916837_address-book-alt" transform="translate(2.000000, 0.000000)" fill-rule="nonzero">
                    <g id="Group" transform="translate(3.400000, 0.008000)">
                        <path d="M3.4,0.672 C1.52218,0.672 0,2.184 0,4.032 L0,5.712 L0,17.472 L0,19.152 L0,24.192 L0,25.872 L0,34.272 L0,35.952 C0,37.8 1.52218,39.312 3.4,39.312 L27.2,39.312 C29.0785,39.312 30.6,37.8 30.6,35.952 L30.6,34.272 L30.6,25.872 L30.6,19.152 L30.6,12.432 L30.6,10.752 L30.6,5.712 L30.6,4.032 C30.6,2.184 29.0785,0.672 27.2,0.672 L20.4,0.672 L3.4,0.672 Z" id="Shape" fill="#A04A15"></path>
                        <path d="M5.1,0.672 C3.22218,0.672 1.7,2.184 1.7,4.032 L1.7,17.472 L1.7,24.192 L1.7,34.272 C1.7,36.12 3.22218,37.632 5.1,37.632 L18.7,37.632 L25.5,37.632 C27.3785,37.632 28.9,36.12 28.9,34.272 L28.9,24.192 L28.9,17.472 L28.9,10.752 L28.9,4.032 C28.9,2.184 27.3785,0.672 25.5,0.672 L18.7,0.672 L5.1,0.672 Z" id="Shape" fill="#ECF0F1"></path>
                        <path d="M20.4,24.192 L20.4,25.872 L20.4,27.552 L20.4,29.232 L20.4,35.952 L27.2,35.952 C29.0785,35.952 30.6,34.44 30.6,32.592 L30.6,29.232 L30.6,25.872 L30.6,24.192 L20.4,24.192 Z" id="Shape" fill="#40BC53"></path>
                        <path d="M20.4,15.792 L20.4,17.472 L20.4,19.152 L20.4,20.832 L20.4,27.552 L27.2,27.552 C29.0785,27.552 30.6,26.04 30.6,24.192 L30.6,20.832 L30.6,17.472 L30.6,15.792 L20.4,15.792 Z" id="Shape" fill="#CA4245"></path>
                        <path d="M20.4,7.392 L20.4,9.072 L20.4,10.752 L20.4,12.432 L20.4,19.152 L27.2,19.152 C29.0785,19.152 30.6,17.64 30.6,15.792 L30.6,12.432 L30.6,9.072 L30.6,7.392 L20.4,7.392 Z" id="Shape" fill="#FFCB00"></path>
                        <path d="M20.4,0.672 L20.4,4.032 L27.2,4.032 L27.2,7.392 L27.2,10.752 C29.0785,10.752 30.6,9.247728 30.6,7.392 L30.6,4.032 C30.6,2.176272 29.0785,0.672 27.2,0.672 L20.4,0.672 Z" id="Shape" fill="#FF7E00"></path>
                        <path d="M3.4,0.672 C1.52218,0.672 0,2.184 0,4.032 L0,17.472 L0,24.192 L0,32.592 L1.7,32.592 L1.7,34.272 L1.7,39.312 C1.7,37.464 3.22218,35.952 5.1,35.952 L18.7,35.952 L20.4,35.952 L22.5777,35.952 L23.8,35.952 L24.2777,35.952 C25.5357,35.952 26.6118,35.28 27.2,34.272 L27.2,32.592 L27.2,24.192 L27.2,17.472 L27.2,10.752 L27.2,4.032 C27.2,2.184 25.6785,0.672 23.8,0.672 L17,0.672 L3.4,0.672 Z" id="Shape" fill="#C06C26"></path>
                    </g>
                    <g id="Group" transform="translate(1.700000, 0.008000)">
                        <path d="M0,5.712 L0,7.392 L3.4,7.392 L3.4,5.712 L0,5.712 Z M0,10.752 L0,12.432 L3.4,12.432 L3.4,10.752 L0,10.752 Z M0,15.792 L0,17.472 L3.4,17.472 L3.4,15.792 L0,15.792 Z M0,20.832 L0,22.512 L3.4,22.512 L3.4,20.832 L0,20.832 Z M0,25.872 L0,27.552 L3.4,27.552 L3.4,25.872 L0,25.872 Z M0,30.912 L0,32.592 L3.4,32.592 L3.4,30.912 L0,30.912 Z" id="Shape" fill="#95A5A6"></path>
                        <path d="M5.1,0.672 C3.22218,0.672 1.7,2.184 1.7,4.032 L1.7,5.712 L1.7,17.472 L1.7,19.152 L1.7,24.192 L1.7,25.872 L1.7,34.272 L1.7,35.952 C1.7,37.8 3.22218,39.312 5.1,39.312 L6.8,39.312 C4.92218,39.312 3.4,37.8 3.4,35.952 L3.4,34.272 L3.4,25.872 L3.4,24.192 L3.4,19.152 L3.4,17.472 L3.4,5.712 L3.4,4.032 C3.4,2.184 4.92218,0.672 6.8,0.672 L5.1,0.672 Z" id="Shape" fill="#8B572A"></path>
                        <path d="M1.7,5.712 L1.7,7.392 L3.4,7.392 L3.4,5.712 L1.7,5.712 Z M1.7,10.752 L1.7,12.432 L3.4,12.432 L3.4,10.752 L1.7,10.752 Z M1.7,15.792 L1.7,17.472 L3.4,17.472 L3.4,15.792 L1.7,15.792 Z M1.7,20.832 L1.7,22.512 L3.4,22.512 L3.4,20.832 L1.7,20.832 Z M1.7,25.872 L1.7,27.552 L3.4,27.552 L3.4,25.872 L1.7,25.872 Z M1.7,30.912 L1.7,32.592 L3.4,32.592 L3.4,30.912 L1.7,30.912 Z" id="Shape" fill="#34495E"></path>
                    </g>
                    <g id="Group" transform="translate(0.000000, 3.368000)" fill="#BDC3C7">
                        <path d="M1.7,0.672 L1.7,2.352 L3.4,2.352 L3.4,0.672 L1.7,0.672 Z M1.7,5.712 L1.7,7.392 L3.4,7.392 L3.4,5.712 L1.7,5.712 Z M1.7,10.752 L1.7,12.432 L3.4,12.432 L3.4,10.752 L1.7,10.752 Z M1.7,15.792 L1.7,17.472 L3.4,17.472 L3.4,15.792 L1.7,15.792 Z M1.7,20.832 L1.7,22.512 L3.4,22.512 L3.4,20.832 L1.7,20.832 Z M1.7,25.872 L1.7,27.552 L3.4,27.552 L3.4,25.872 L1.7,25.872 Z" id="Shape"></path>
                        <path d="M1.7,0.672 C0.76109,0.672 0,1.344 0,2.352 C0,3.192 0.76109,4.032 1.7,4.032 L1.7,0.672 Z" id="Shape"></path>
                        <path d="M1.7,5.712 C0.76109,5.712 0,6.384 0,7.392 C0,8.232 0.76109,9.072 1.7,9.072 L1.7,5.712 Z" id="Shape"></path>
                        <path d="M1.7,10.752 C0.76109,10.752 0,11.424 0,12.432 C0,13.272 0.76109,14.112 1.7,14.112 L1.7,10.752 Z" id="Shape"></path>
                        <path d="M1.7,15.792 C0.76109,15.792 0,16.464 0,17.472 C0,18.312 0.76109,19.152 1.7,19.152 L1.7,15.792 Z" id="Shape"></path>
                        <path d="M1.7,20.832 C0.76109,20.832 0,21.504 0,22.512 C0,23.352 0.76109,24.192 1.7,24.192 L1.7,20.832 Z" id="Shape"></path>
                        <path d="M1.7,25.872 C0.76109,25.872 0,26.544 0,27.552 C0,28.392 0.76109,29.232 1.7,29.232 L1.7,25.872 Z" id="Shape"></path>
                    </g>
                    <path d="M3.4,4.04 L3.4,5.72 L5.1,5.72 L5.1,4.04 L3.4,4.04 Z M3.4,9.08 L3.4,10.76 L5.1,10.76 L5.1,9.08 L3.4,9.08 Z M3.4,14.12 L3.4,15.8 L5.1,15.8 L5.1,14.12 L3.4,14.12 Z M3.4,19.16 L3.4,20.84 L5.1,20.84 L5.1,19.16 L3.4,19.16 Z M3.4,24.2 L3.4,25.88 L5.1,25.88 L5.1,24.2 L3.4,24.2 Z M3.4,29.24 L3.4,30.92 L5.1,30.92 L5.1,29.24 L3.4,29.24 Z" id="Shape" fill="#95A5A6"></path>
                </g>
            </g>
            <polygon id="Path" fill="#FFFFFF" points="20.0434783 11 30.0869565 21.0434783 23.6956522 21.0434783 23.6956522 30 16.3913043 30 16.3913043 21.0434783 10 21.0434783"></polygon>
        </g>
    </g>
</svg>