<?xml version="1.0" encoding="UTF-8" standalone="no"?>
<svg width="42px" height="42px" viewBox="0 0 42 42" version="1.1" xmlns="http://www.w3.org/2000/svg" xmlns:xlink="http://www.w3.org/1999/xlink">
    <!-- Generator: Sketch 43.2 (39069) - http://www.bohemiancoding.com/sketch -->
    <title>note</title>
    <desc>Created with Sketch.</desc>
    <defs>
        <filter x="-4.4%" y="-4.3%" width="108.8%" height="108.6%" filterUnits="objectBoundingBox" id="filter-1">
            <feOffset dx="0" dy="0" in="SourceAlpha" result="shadowOffsetOuter1"></feOffset>
            <feGaussianBlur stdDeviation="0.5" in="shadowOffsetOuter1" result="shadowBlurOuter1"></feGaussianBlur>
            <feColorMatrix values="0 0 0 0 0   0 0 0 0 0   0 0 0 0 0  0 0 0 0.5 0" type="matrix" in="shadowBlurOuter1" result="shadowMatrixOuter1"></feColorMatrix>
            <feMerge>
                <feMergeNode in="shadowMatrixOuter1"></feMergeNode>
                <feMergeNode in="SourceGraphic"></feMergeNode>
            </feMerge>
        </filter>
    </defs>
    <g id="Iconsdeliverable-Copy" stroke="none" stroke-width="1" fill="none" fill-rule="evenodd">
        <g id="note">
            <g id="Note" filter="url(#filter-1)" transform="translate(4.000000, 3.000000)">
                <path d="M3.74106563,0.588050314 C1.67487508,0.588050314 0,2.27201258 0,4.33018868 L0,30.5251572 C0,32.5833333 1.67487508,34.2672956 3.74106563,34.2672956 L14.9642625,34.2672956 L18.7053281,34.2672956 L29.928525,34.2672956 C31.9954638,34.2672956 33.6695906,32.5833333 33.6695906,30.5251572 L33.6695906,4.33018868 C33.6695906,2.27201258 31.9954638,0.588050314 29.928525,0.588050314 L18.7053281,0.588050314 L14.9642625,0.588050314 L3.74106563,0.588050314 Z" id="Shape" fill="#DCB325"></path>
                <path d="M3.74106563,1.9245283 C1.67487508,1.9245283 0,3.440326 0,5.31027254 L0,29.0104822 C0,30.8811059 1.67487508,32.3962264 3.74106563,32.3962264 L14.9642625,32.3962264 L18.7053281,32.3962264 L29.928525,32.3962264 C31.9954638,32.3962264 33.6695906,30.8811059 33.6695906,29.0104822 L33.6695906,5.31027254 C33.6695906,3.440326 31.9954638,1.9245283 29.928525,1.9245283 L18.7053281,1.9245283 L14.9642625,1.9245283 L3.74106563,1.9245283 Z" id="Shape" fill="#F7E97F"></path>
                <rect id="Rectangle-3" fill="#CBA930" x="0" y="0" width="33.6695906" height="7.69811321"></rect>
                <path d="M11.8034131,15.2190791 C11.8034131,15.1490791 11.7754131,15.0860791 11.7194131,15.0230791 C11.6634131,14.9670791 11.6004131,14.9320791 11.5304131,14.9320791 C11.4044131,14.9320791 11.3134131,15.0090791 11.2574131,15.1490791 C11.1244131,15.4710791 11.0124131,15.9470791 10.9214131,16.5840791 C10.8304131,17.1720791 10.7884131,17.6620791 10.7884131,18.0610791 C10.7884131,18.2360791 10.7954131,18.4950791 10.8234131,18.8450791 C9.80141307,17.6970791 9.15741307,16.7660791 8.90541307,16.0520791 C8.91941307,15.9960791 8.93341307,15.9610791 8.93341307,15.9330791 C8.93341307,15.8490791 8.90541307,15.7790791 8.84941307,15.7230791 C8.79341307,15.6670791 8.72341307,15.6390791 8.63941307,15.6390791 C8.57641307,15.6390791 8.50641307,15.6810791 8.42241307,15.7580791 C8.33841307,15.8420791 8.30341307,15.9120791 8.30341307,15.9750791 C8.30341307,16.0100791 8.31041307,16.0450791 8.33141307,16.0730791 C8.02341307,17.6480791 7.86941307,18.9290791 7.86941307,19.9090791 L7.86941307,20.4970791 C7.86941307,20.5670791 7.89741307,20.6300791 7.96741307,20.6930791 C8.03041307,20.7560791 8.09341307,20.7910791 8.16341307,20.7910791 C8.28941307,20.7910791 8.36641307,20.7210791 8.40141307,20.5810791 C8.49941307,20.1610791 8.54841307,19.8670791 8.54841307,19.6920791 C8.54841307,19.6290791 8.52741307,19.5730791 8.49941307,19.5170791 L8.43641307,19.5170791 C8.45041307,18.8940791 8.54141307,18.0540791 8.72341307,17.0040791 C8.91941307,17.3680791 9.15041307,17.7250791 9.41641307,18.0610791 C9.54241307,18.2290791 9.81541307,18.5510791 10.2354131,19.0340791 C10.5924131,19.4540791 10.7814131,19.6710791 10.8094131,19.6990791 C10.9074131,19.7970791 10.9774131,19.8530791 11.0334131,19.8600791 C11.1034131,19.9160791 11.1594131,19.9370791 11.2084131,19.9370791 C11.3974131,19.9370791 11.4954131,19.8460791 11.4954131,19.6500791 C11.4954131,19.6430791 11.4884131,19.5940791 11.4744131,19.4960791 C11.3764131,18.8940791 11.3344131,18.5160791 11.3344131,18.3620791 C11.3344131,17.3120791 11.4674131,16.3460791 11.7474131,15.4640791 C11.7824131,15.3450791 11.8034131,15.2610791 11.8034131,15.2190791 Z M16.7594131,17.7110791 C16.7594131,18.3690791 16.5424131,18.9010791 16.1084131,19.3210791 C15.6744131,19.7410791 15.1424131,19.9510791 14.5264131,19.9510791 C13.9524131,19.9510791 13.4484131,19.7760791 13.0074131,19.4120791 C12.5244131,19.0200791 12.2864131,18.5510791 12.2864131,18.0050791 C12.2864131,17.5010791 12.4614131,17.0250791 12.8184131,16.5910791 C13.1264131,16.2130791 13.5464131,15.8980791 14.0784131,15.6320791 C14.1204131,15.5060791 14.2044131,15.4220791 14.3444131,15.3800791 C14.4144131,15.3660791 14.5404131,15.3520791 14.7224131,15.3520791 C15.3384131,15.3520791 15.8354131,15.5900791 16.2204131,16.0520791 C16.5774131,16.5000791 16.7594131,17.0530791 16.7594131,17.7110791 Z M16.1854131,17.7600791 C16.1854131,16.7940791 15.7934131,16.2060791 15.0234131,15.9820791 C14.9814131,16.0030791 14.9394131,16.0170791 14.8834131,16.0170791 C14.4354131,16.0730791 13.9944131,16.2970791 13.5604131,16.6750791 C13.0914131,17.0810791 12.8604131,17.4870791 12.8604131,17.9070791 C12.8604131,18.3480791 13.0424131,18.7050791 13.4134131,18.9710791 C13.7424131,19.2230791 14.1344131,19.3420791 14.5964131,19.3420791 C15.0444131,19.3420791 15.4224131,19.1950791 15.7304131,18.8870791 C16.0314131,18.5860791 16.1854131,18.2080791 16.1854131,17.7600791 Z M21.5404131,14.9740791 C21.5404131,14.9180791 21.5194131,14.8550791 21.4774131,14.7850791 C21.4354131,14.7290791 21.3794131,14.6940791 21.3234131,14.6870791 C21.1904131,14.6870791 21.0014131,14.7220791 20.7634131,14.7780791 C20.0914131,14.9460791 18.9784131,15.2050791 17.4244131,15.5690791 C17.2704131,15.6110791 17.1934131,15.7090791 17.1934131,15.8770791 C17.1934131,16.0590791 17.2704131,16.1500791 17.4314131,16.1500791 C17.7464131,16.1150791 18.3064131,15.9890791 19.1184131,15.7650791 C19.0344131,16.8500791 18.9994131,17.5990791 18.9994131,18.0190791 C18.9994131,18.8590791 19.0274131,19.5730791 19.0974131,20.1610791 C19.1114131,20.3290791 19.2094131,20.4200791 19.3844131,20.4200791 C19.5804131,20.4200791 19.6784131,20.2800791 19.6784131,20.0070791 L19.6784131,19.5380791 C19.6784131,19.4260791 19.6434131,19.3420791 19.5874131,19.2860791 C19.5664131,18.9920791 19.5594131,18.6770791 19.5594131,18.3480791 C19.5594131,17.6060791 19.6014131,16.7030791 19.6994131,15.6460791 C20.0914131,15.5200791 20.3574131,15.4500791 20.4974131,15.4220791 C20.5534131,15.4710791 20.6374131,15.4990791 20.7354131,15.5060791 L21.3444131,15.2680791 C21.4704131,15.2190791 21.5404131,15.1210791 21.5404131,14.9740791 Z M24.9214131,18.9920791 C24.9214131,18.9360791 24.8934131,18.8730791 24.8374131,18.8100791 C24.7744131,18.7540791 24.7114131,18.7190791 24.6554131,18.7190791 C24.5364131,18.7190791 24.4314131,18.7890791 24.3474131,18.9290791 C24.1934131,19.1460791 24.0604131,19.2930791 23.9344131,19.3770791 C23.7804131,19.4820791 23.5914131,19.5310791 23.3604131,19.5310791 C23.0384131,19.5310791 22.7864131,19.4330791 22.5904131,19.2300791 C22.4014131,19.0340791 22.3104131,18.7680791 22.3104131,18.4320791 C22.3104131,18.3620791 22.3104131,18.2920791 22.3244131,18.2220791 C22.7164131,18.1100791 23.2834131,17.9700791 24.0184131,17.8090791 C24.1024131,17.9070791 24.2074131,17.9560791 24.3264131,17.9560791 C24.3824131,17.9560791 24.5014131,17.9000791 24.6694131,17.7740791 C24.8374131,17.6620791 24.9214131,17.5360791 24.9214131,17.3960791 C24.9214131,17.2000791 24.8234131,17.1020791 24.6414131,17.1020791 C24.5364131,17.1020791 24.3194131,17.1370791 23.9904131,17.2000791 C23.5704131,17.2840791 23.0804131,17.4030791 22.5204131,17.5570791 C22.6744131,17.1930791 22.8774131,16.7870791 23.1224131,16.3460791 C23.1714131,16.2550791 23.1994131,16.1780791 23.1994131,16.1220791 C23.1994131,16.0730791 23.1714131,15.9890791 23.1224131,15.8630791 C23.5914131,15.7090791 23.9904131,15.6320791 24.3194131,15.6320791 C24.3544131,15.6320791 24.4104131,15.6460791 24.4804131,15.6600791 C24.5504131,15.6880791 24.5994131,15.6950791 24.6344131,15.6950791 C24.8234131,15.6950791 24.9214131,15.6110791 24.9214131,15.4430791 C24.9214131,15.3170791 24.8724131,15.2260791 24.7814131,15.1700791 C24.6414131,15.0860791 24.4804131,15.0440791 24.2984131,15.0440791 C23.7244131,15.0440791 23.0804131,15.2190791 22.3664131,15.5690791 C22.0654131,15.7160791 21.9184131,15.8560791 21.9184131,15.9890791 C21.9184131,16.1850791 22.0094131,16.2830791 22.2054131,16.2830791 C22.2334131,16.2830791 22.3734131,16.2270791 22.6184131,16.1010791 C22.4084131,16.4160791 22.2124131,16.7940791 22.0444131,17.2350791 C21.8484131,17.7180791 21.7574131,18.0960791 21.7574131,18.3620791 C21.7574131,18.8800791 21.8974131,19.3000791 22.1914131,19.6220791 C22.4714131,19.9510791 22.8634131,20.1120791 23.3534131,20.1120791 C23.9694131,20.1120791 24.4384131,19.8740791 24.7534131,19.3840791 C24.8654131,19.2230791 24.9214131,19.0900791 24.9214131,18.9920791 Z" id="NOTE" fill="#920819" transform="translate(16.395413, 17.739079) rotate(-7.000000) translate(-16.395413, -17.739079) "></path>
                <path d="M8.29093567,27.4622642 L26.8570463,23.4249958" id="Line" stroke="#920819" stroke-linecap="square"></path>
            </g>
        </g>
    </g>
</svg>