<?xml version="1.0" encoding="UTF-8" standalone="no"?>
<svg width="42px" height="42px" viewBox="0 0 42 42" version="1.1" xmlns="http://www.w3.org/2000/svg" xmlns:xlink="http://www.w3.org/1999/xlink">
    <!-- Generator: Sketch 44 (41411) - http://www.bohemiancoding.com/sketch -->
    <title>payment_plan</title>
    <desc>Created with Sketch.</desc>
    <defs>
        <rect id="path-1" x="0" y="0" width="25.6427325" height="24.5321691"></rect>
        <rect id="path-2" x="0" y="0" width="25.6427325" height="24.5321691"></rect>
        <rect id="path-3" x="0" y="0" width="25.6427325" height="24.5321691"></rect>
    </defs>
    <g id="Iconsdeliverable-Copy" stroke="none" stroke-width="1" fill="none" fill-rule="evenodd">
        <g id="payment_plan">
            <g id="Group-7" transform="translate(2.000000, 1.000000)">
                <g id="Group" transform="translate(10.083426, 0.113051)">
                    <g id="Rectangle-13">
                        <use fill="#6F95AC" fill-rule="evenodd" xlink:href="#path-1"></use>
                        <rect stroke="#003F69" stroke-width="2" x="1" y="1" width="23.6427325" height="22.5321691"></rect>
                    </g>
                    <rect id="Rectangle" fill="#003F69" x="1" y="0" width="23.2005675" height="4.67279412"></rect>
                </g>
                <g id="Group" transform="translate(5.761958, 7.461397)">
                    <g id="Rectangle-13">
                        <use fill="#94B4C9" fill-rule="evenodd" xlink:href="#path-2"></use>
                        <rect stroke="#1C5599" stroke-width="2" x="1" y="1" width="23.6427325" height="22.5321691"></rect>
                    </g>
                    <rect id="Rectangle" fill="#1C5599" x="1" y="0" width="23.2005675" height="4.67279412"></rect>
                </g>
                <g id="Group-3" transform="translate(0.000000, 14.809743)">
                    <g id="Group">
                        <g id="Rectangle-13">
                            <use fill="#BBD7EA" fill-rule="evenodd" xlink:href="#path-3"></use>
                            <rect stroke="#338DC9" stroke-width="2" x="1" y="1" width="23.6427325" height="22.5321691"></rect>
                        </g>
                        <rect id="Rectangle" fill="#338DC9" x="1" y="0" width="23.2005675" height="4.67279412"></rect>
                    </g>
                    <g id="Group-2" transform="translate(7.326495, 5.840993)" fill="#256D30">
                        <path d="M0,9.48598353 L3.4950842,9.26578811 C3.57077086,9.83666797 3.72484496,10.2716175 3.95731112,10.5706498 C4.3357444,11.0545385 4.87635527,11.2964792 5.57915994,11.2964792 C6.10356034,11.2964792 6.50766697,11.1727904 6.79149193,10.9254091 C7.07531689,10.6780279 7.21722724,10.391233 7.21722724,10.0650159 C7.21722724,9.75510971 7.08207453,9.47782937 6.81176504,9.23316657 C6.54145555,8.98850377 5.91434694,8.75743681 4.93042041,8.53995877 C3.31937586,8.17568305 2.17057777,7.69180166 1.48399167,7.08830009 C0.79199938,6.48479852 0.446008425,5.71548148 0.446008425,4.7803259 C0.446008425,4.16595042 0.623058484,3.5855646 0.977163913,3.03915102 C1.33126934,2.49273743 1.86377105,2.06322474 2.574685,1.75060005 C3.28559895,1.43797537 4.26005004,1.28166537 5.49806749,1.28166537 C7.01720682,1.28166537 8.1754656,1.5657418 8.97287859,2.13390319 C9.77029158,2.70206458 10.2446776,3.60594414 10.3960509,4.84556898 L6.9334037,5.04945363 C6.84149847,4.51119547 6.64823009,4.11974086 6.35359275,3.87507807 C6.0589554,3.63041527 5.65214573,3.5080857 5.13315151,3.5080857 C4.70606252,3.5080857 4.38439905,3.59915327 4.16815146,3.78129113 C3.95190387,3.96342899 3.8437817,4.18498142 3.8437817,4.44595508 C3.8437817,4.63624836 3.93298249,4.80750975 4.11138675,4.95974438 C4.28438483,5.11741597 4.69524909,5.26421144 5.34399186,5.40013522 C6.94963022,5.74810009 8.09977983,6.10013739 8.79447522,6.45625769 C9.4891706,6.81237798 9.99464176,7.25412363 10.3109039,7.78150789 C10.627166,8.30889214 10.7852946,8.89879248 10.7852946,9.55122661 C10.7852946,10.3178367 10.5744564,11.0246298 10.1527736,11.6716269 C9.7310908,12.3186241 9.14182496,12.8093016 8.38495839,13.1436741 C7.62809183,13.4780466 6.67391365,13.6452303 5.52239523,13.6452303 C3.50048026,13.6452303 2.10029811,13.2537757 1.32180679,12.4708547 C0.543315462,11.6879338 0.102717605,10.6929867 0,9.48598353 Z" id="S"></path>
                        <rect id="Rectangle" x="4.17363698" y="0" width="2.08681849" height="2.56333073"></rect>
                        <rect id="Rectangle" x="4.86924314" y="12.175821" width="2.08681849" height="2.56333073"></rect>
                    </g>
                </g>
            </g>
        </g>
    </g>
</svg>