<?xml version="1.0" encoding="UTF-8" standalone="no"?>
<svg width="38px" height="45px" viewBox="0 0 38 45" version="1.1" xmlns="http://www.w3.org/2000/svg" xmlns:xlink="http://www.w3.org/1999/xlink">
    <!-- Generator: Sketch 47 (45396) - http://www.bohemiancoding.com/sketch -->
    <title>pdf_icon</title>
    <desc>Created with Sketch.</desc>
    <defs></defs>
    <g id="Final-V1" stroke="none" stroke-width="1" fill="none" fill-rule="evenodd" opacity="0.7">
        <g id="pdf_icon" fill-rule="nonzero" fill="#000000">
            <g id="pdf-file" transform="translate(1.000000, 1.000000)">
                <path d="M8.64705882,27.7837007 C8.64705882,27.0541297 8.16011389,26.6190476 7.3009488,26.6190476 C6.95011356,26.6190476 6.71251318,26.6550387 6.58823529,26.6894808 L6.58823529,29.0302677 C6.73538802,29.0647098 6.91628333,29.0761905 7.16562789,29.0761905 C8.0814104,29.0761905 8.64705882,28.5951857 8.64705882,27.7837007 Z" id="Shape"></path>
                <path d="M14.3970928,26.6190476 C13.998341,26.6190476 13.7406511,26.6537981 13.5882353,26.6898322 L13.5882353,31.9066214 C13.7407419,31.9427472 13.9869871,31.9427472 14.2096159,31.9427472 C15.8272401,31.9543001 16.8822519,31.0554639 16.8822519,29.1508811 C16.8936967,27.4946863 15.9323325,26.6190476 14.3970928,26.6190476 Z" id="Shape"></path>
                <path d="M24.1328517,0 L6.86619808,0 C4.34370287,0 2.29066462,2.05493229 2.29066462,4.57657439 L2.29066462,21.4999554 L1.84376656,21.4999554 C0.825673583,21.4999554 0,22.3250142 0,23.3442306 L0,34.528499 C0,35.5476263 0.825584417,36.3725959 1.84376656,36.3725959 L2.29066462,36.3725959 L2.29066462,38.4234256 C2.29066462,40.9478325 4.34370287,43 6.86619808,43 L30.425804,43 C32.9466942,43 35,40.9477433 35,38.4234256 L35,10.8315382 L24.1328517,0 Z M4.83696704,25.3625967 C5.37731066,25.2712703 6.13682336,25.2024188 7.20689989,25.2024188 C8.28830045,25.2024188 9.05904802,25.4088842 9.5769219,25.8235986 C10.0716127,26.2144112 10.4054488,26.8594928 10.4054488,27.6186432 C10.4054488,28.3776152 10.1524859,29.0228751 9.69221304,29.4599752 C9.09355511,30.0236301 8.20822973,30.2766505 7.17257113,30.2766505 C6.94207802,30.2766505 6.73548129,30.2652347 6.5739132,30.2428491 L6.5739132,33.0161738 L4.83696704,33.0161738 L4.83696704,25.3625967 Z M30.425804,40.1972439 L6.86619808,40.1972439 C5.88947795,40.1972439 5.09412067,39.4017057 5.09412067,38.4234256 L5.09412067,36.3725959 L27.056503,36.3725959 C28.0747743,36.3725959 28.9003587,35.5476263 28.9003587,34.528499 L28.9003587,23.3442306 C28.9003587,22.3250142 28.0747743,21.4999554 27.056503,21.4999554 L5.09412067,21.4999554 L5.09412067,4.57657439 C5.09412067,3.60105903 5.88956711,2.80552081 6.86619808,2.80552081 L23.0845315,2.78857549 L23.0845315,8.78481102 C23.0845315,10.5362437 24.5052964,11.9586696 26.2576682,11.9586696 L32.1302939,11.9418135 L32.1963656,38.4233364 C32.1963656,39.4017057 31.402435,40.1972439 30.425804,40.1972439 Z M11.5254581,32.9810345 L11.5254581,25.3625967 C12.1696796,25.2600329 13.0093522,25.2024188 13.8954801,25.2024188 C15.3681393,25.2024188 16.3231031,25.4666766 17.0713809,26.0302423 C17.8766356,26.6290364 18.3824721,27.5835039 18.3824721,28.9538453 C18.3824721,30.4381662 17.8421285,31.4629121 17.0937615,32.0953294 C16.2772719,32.7742124 15.0343925,33.0961735 13.5159912,33.0961735 C12.6066803,33.0961735 11.9624587,33.0385594 11.5254581,32.9810345 Z M24.0823839,28.4704577 L24.0823839,29.8970753 L21.2977418,29.8970753 L21.2977418,33.0161738 L19.5376126,33.0161738 L19.5376126,25.2600329 L24.2776566,25.2600329 L24.2776566,26.697888 L21.2977418,26.697888 L21.2977418,28.4704577 L24.0823839,28.4704577 Z" id="Shape"></path>
            </g>
        </g>
    </g>
</svg>