<?xml version="1.0" encoding="UTF-8" standalone="no"?>
<svg width="42px" height="42px" viewBox="0 0 42 42" version="1.1" xmlns="http://www.w3.org/2000/svg" xmlns:xlink="http://www.w3.org/1999/xlink">
    <!-- Generator: Sketch 43.2 (39069) - http://www.bohemiancoding.com/sketch -->
    <title>trust</title>
    <desc>Created with Sketch.</desc>
    <defs></defs>
    <g id="Iconsdeliverable-Copy" stroke="none" stroke-width="1" fill="none" fill-rule="evenodd">
        <g id="trust">
            <g id="Deposit" transform="translate(4.000000, 1.000000)">
                <path d="M3.74106563,25 C1.67487508,25 0,25.55 0,26.2222222 L0,34.7777778 C0,35.45 1.67487508,36 3.74106563,36 L14.9642625,36 L18.7053281,36 L29.928525,36 C31.9954638,36 33.6695906,35.45 33.6695906,34.7777778 L33.6695906,26.2222222 C33.6695906,25.55 31.9954638,25 29.928525,25 L18.7053281,25 L14.9642625,25 L3.74106563,25 Z" id="Shape" fill="#BDC3C7"></path>
                <rect id="Rectangle-5" fill="#9B9B9B" x="4" y="31" width="5" height="9"></rect>
                <rect id="Rectangle-5" fill="#9B9B9B" x="26" y="31" width="5" height="9"></rect>
                <path d="M3.74106563,0 C1.67487508,0 0,1.73553459 0,3.85674354 L0,30.8539483 C0,32.9751572 1.67487508,34.7106918 3.74106563,34.7106918 L14.9642625,34.7106918 L18.7053281,34.7106918 L29.928525,34.7106918 C31.9954638,34.7106918 33.6695906,32.9751572 33.6695906,30.8539483 L33.6695906,3.85674354 C33.6695906,1.73553459 31.9954638,0 29.928525,0 L18.7053281,0 L14.9642625,0 L3.74106563,0 Z" id="Shape" fill="#CF922A"></path>
                <path d="M5.33333333,2 C3.49233333,2 2,3.51720556 2,5.38888889 L2,29.1111111 C2,30.9834722 3.49233333,32.5 5.33333333,32.5 L15.3333333,32.5 L18.6666667,32.5 L28.6666667,32.5 C30.5083333,32.5 32,30.9834722 32,29.1111111 L32,5.38888889 C32,3.51720556 30.5083333,2 28.6666667,2 L18.6666667,2 L15.3333333,2 L5.33333333,2 Z" id="Shape" fill="#FAE8CA"></path>
                <circle id="Oval-2" fill="#7A7A7A" cx="8" cy="8" r="3"></circle>
                <circle id="Oval-2" fill="#7A7A7A" cx="8" cy="26" r="3"></circle>
                <path d="M8,8.5 L8,25.5" id="Line" stroke="#A3A3A3" stroke-width="2" stroke-linecap="square"></path>
                <circle id="Oval-3" fill="#000000" cx="21" cy="17" r="7"></circle>
                <circle id="Oval-3" fill="#4A4A4A" cx="21" cy="17" r="5"></circle>
                <path d="M21,13 L21,21" id="Line" stroke="#979797" stroke-width="0.5" stroke-linecap="square"></path>
                <path d="M25,17 L17,17" id="Line" stroke="#979797" stroke-width="0.5" stroke-linecap="square"></path>
                <path d="M24,14 L18,20" id="Line" stroke="#979797" stroke-width="0.5" stroke-linecap="square"></path>
                <path d="M18,14 L24,20" id="Line" stroke="#979797" stroke-width="0.5" stroke-linecap="square"></path>
                <path d="M25,17 L17,17" id="Line" stroke="#979797" stroke-width="0.5" stroke-linecap="square"></path>
                <circle id="Oval-4" fill="#000000" cx="21" cy="17" r="2"></circle>
                <rect id="Rectangle-6" stroke="#CF922A" opacity="0.298274254" x="3.5" y="3.5" width="27" height="27" rx="2"></rect>
            </g>
        </g>
    </g>
</svg>