<?xml version="1.0" encoding="UTF-8"?>
<svg width="40px" height="40px" viewBox="0 0 40 40" version="1.1" xmlns="http://www.w3.org/2000/svg" xmlns:xlink="http://www.w3.org/1999/xlink">
    <!-- Generator: Sketch 42 (36781) - http://www.bohemiancoding.com/sketch -->
    <title>edit-permissions</title>
    <desc>Created with Sketch.</desc>
    <defs/>
    <g id="Icons" stroke="none" stroke-width="1" fill="none" fill-rule="evenodd">
        <g id="edit-permissions" fill-rule="nonzero">
            <path d="M8.37459115,13.5996979 C6.51080446,13.5996979 5,15.118264 5,16.9742891 L5,18.6615847 L5,28.7853581 L5,30.4726537 C5,32.3286788 6.51080446,33.8472449 8.37459115,33.8472449 L11.7491823,33.8472449 L28.6221381,33.8472449 L31.9967292,33.8472449 C33.8611908,33.8472449 35.3713204,32.3286788 35.3713204,30.4726537 L35.3713204,18.6615847 L35.3713204,16.9742891 C35.3713204,15.118264 33.8611908,13.5996979 31.9967292,13.5996979 L28.6221381,13.5996979 L8.37459115,13.5996979 Z" id="Shape" fill="#F1C40F"/>
            <path d="M8.37459115,18.6615847 C6.51080446,18.6615847 5,20.1801507 5,22.0361758 L5,23.7234714 L5,33.8472449 L5,35.5345404 C5,37.3905656 6.51080446,38.9091316 8.37459115,38.9091316 L11.7491823,38.9091316 L28.6221381,38.9091316 L31.9967292,38.9091316 C33.8611908,38.9091316 35.3713204,37.3905656 35.3713204,35.5345404 L35.3713204,23.7234714 L35.3713204,22.0361758 C35.3713204,20.1801507 33.8611908,18.6615847 31.9967292,18.6615847 L28.6221381,18.6615847 L8.37459115,18.6615847 Z" id="Shape" fill="#F39C12"/>
            <path d="M20.1856602,0.101333332 C13.6625755,0.101333332 8.37459115,5.38931767 8.37459115,11.9124024 L13.4364779,11.9124024 C13.4364779,8.18499771 16.4582555,5.16322006 20.1856602,5.16322006 C23.3290918,5.16322006 25.9207779,7.31570303 26.6716244,10.2251068 L31.8381234,10.2251068 C31.0164105,4.50517479 26.1333771,0.101333332 20.1856602,0.101333332 Z" id="Shape" fill="#BDC3C7"/>
            <path d="M8.37459115,22.0361758 L8.37459115,23.7234714 L31.9967292,23.7234714 L31.9967292,22.0361758 L8.37459115,22.0361758 Z M8.37459115,25.410767 L8.37459115,27.0980626 L31.9967292,27.0980626 L31.9967292,25.410767 L8.37459115,25.410767 Z M8.37459115,28.7853581 L8.37459115,30.4726537 L31.9967292,30.4726537 L31.9967292,28.7853581 L8.37459115,28.7853581 Z M8.37459115,32.1599493 L8.37459115,33.8472449 L31.9967292,33.8472449 L31.9967292,32.1599493 L8.37459115,32.1599493 Z" id="Shape" fill="#E67E22"/>
            <path d="M8.37459115,13.5996979 L8.37459115,15.2869935 C8.37459115,16.1306413 9.50777886,16.9742891 10.9055345,16.9742891 C12.3032902,16.9742891 13.4364779,16.1306413 13.4364779,15.2869935 L13.4364779,13.5996979 C13.4364779,14.4433457 12.3032902,15.2869935 10.9055345,15.2869935 C9.50777886,15.2869935 8.37459115,14.4433457 8.37459115,13.5996979 Z" id="Shape" fill="#7F8C8D"/>
            <path d="M20.1856602,2.52682072 C19.5934194,2.52682072 19.0062406,2.58385131 18.4460584,2.68492032 C18.0292964,2.7601737 17.6243455,2.87541599 17.2328929,3.00145697 C16.8667498,3.1192302 16.5193356,3.26484381 16.1783332,3.42328086 C15.9994799,3.50629581 15.8224826,3.59336026 15.6510533,3.68683643 C15.428499,3.80815298 15.2270359,3.97063955 15.0183175,4.10866033 C14.8229287,4.23773844 14.6207906,4.33509539 14.438394,4.4778406 C14.2009915,4.66293692 13.96612,4.85090165 13.7528458,5.05776409 C13.6905846,5.11884419 13.6548139,5.20590864 13.5947462,5.26867603 C13.3106056,5.56294038 13.0357452,5.83493243 12.803742,6.16513617 C12.5671832,6.50141418 12.3474973,6.85102183 12.1710062,7.21969591 C12.164257,7.23386919 12.1777554,7.25799752 12.1710062,7.27233953 C11.9835477,7.67037256 11.8067191,8.10906941 11.6965387,8.53781121 C11.2696529,9.52386675 10.1064313,10.2251068 8.74377142,10.2251068 C8.64253369,10.2251068 8.60338843,10.2281439 8.53285948,10.2251068 C8.51514287,10.2244319 8.50451291,10.227469 8.48004713,10.2251068 L8.37459115,11.9124024 L8.37459115,13.5996979 L8.37459115,15.2869935 L13.4364779,15.2869935 L13.4364779,13.5996979 L13.4364779,11.9124024 C13.4364779,11.4465401 13.5048134,10.9808465 13.5947462,10.5414747 C14.2239387,7.46604106 16.9241178,5.16322006 20.1856602,5.16322006 C23.3290918,5.16322006 25.9207779,7.31570303 26.6716244,10.2251068 L31.6272115,10.2251068 C30.265564,10.2251068 29.10133,9.52386675 28.6744442,8.53781121 C28.56477,8.10906941 28.387604,7.67037256 28.2003142,7.27233953 C28.193565,7.25799752 28.2070634,7.23386919 28.2003142,7.21969591 C28.0231481,6.85102183 27.8037997,6.50141418 27.5675783,6.16513617 C27.3347315,5.83493243 27.0613897,5.56294038 26.7762367,5.26867603 C26.7154941,5.2045588 26.6834355,5.12002529 26.6176309,5.05776409 C26.4050317,4.85090165 26.1704976,4.66293692 25.9325889,4.4778406 C25.7571102,4.33998855 25.5411363,4.2335202 25.3521592,4.10866033 C25.1463092,3.97215811 24.9404591,3.80697188 24.7211107,3.68683643 C24.5506938,3.59403518 24.3701532,3.50562089 24.1929872,3.42328086 C23.8521535,3.26484381 23.5045706,3.1192302 23.1384274,3.00145697 C22.7469749,2.87541599 22.3420239,2.7601737 21.9252619,2.68492032 C21.3650798,2.58385131 20.7779009,2.52682072 20.1856602,2.52682072 Z" id="Shape" fill="#95A5A6"/>
            <path d="M26.9348425,15.2869935 C26.9348425,16.2183807 28.0687051,16.9742891 29.4657859,16.9742891 C30.8628666,16.9742891 31.9967292,16.2183807 31.9967292,15.2869935 L26.9348425,15.2869935 Z" id="Shape" fill="#E67E22"/>
        </g>
    </g>
</svg>